IBM Plex Sans Var-Condensed.ufo
<glyph name="numbersign" format="1">
  <advance width="637"/>
  <unicode hex="0023"/>
  <outline>
    <contour>
      <point x="333" y="0" type="line" name="hr00"/>
      <point x="391" y="0" type="line"/>
      <point x="422" y="207" type="line"/>
      <point x="545" y="207" type="line"/>
      <point x="545" y="261" type="line"/>
      <point x="431" y="261" type="line"/>
      <point x="459" y="437" type="line"/>
      <point x="581" y="437" type="line"/>
      <point x="581" y="491" type="line"/>
      <point x="468" y="491" type="line"/>
      <point x="499" y="698" type="line"/>
      <point x="441" y="698" type="line"/>
      <point x="410" y="491" type="line"/>
      <point x="268" y="491" type="line"/>
      <point x="299" y="698" type="line"/>
      <point x="241" y="698" type="line"/>
      <point x="210" y="491" type="line"/>
      <point x="87" y="491" type="line"/>
      <point x="87" y="437" type="line"/>
      <point x="201" y="437" type="line"/>
      <point x="173" y="261" type="line"/>
      <point x="51" y="261" type="line"/>
      <point x="51" y="207" type="line"/>
      <point x="164" y="207" type="line"/>
      <point x="133" y="0" type="line"/>
      <point x="191" y="0" type="line"/>
      <point x="222" y="207" type="line"/>
      <point x="364" y="207" type="line"/>
    </contour>
    <contour>
      <point x="231" y="261" type="line"/>
      <point x="259" y="437" type="line"/>
      <point x="401" y="437" type="line"/>
      <point x="373" y="261" type="line"/>
    </contour>
  </outline>
</glyph>
<glyph name="dollar" format="1">
  <advance width="538"/>
  <unicode hex="0024"/>
  <outline>
    <contour>
      <point x="305" y="-82" type="line"/>
      <point x="305" y="23" type="line"/>
      <point x="303" y="33" type="line"/>
      <point x="303" y="665" type="line"/>
      <point x="305" y="675" type="line"/>
      <point x="305" y="780" type="line"/>
      <point x="241" y="780" type="line"/>
      <point x="241" y="675" type="line"/>
      <point x="243" y="665" type="line"/>
      <point x="243" y="33" type="line"/>
      <point x="241" y="23" type="line"/>
      <point x="241" y="-82" type="line"/>
    </contour>
    <contour>
      <point x="274" y="-4" type="curve" smooth="yes"/>
      <point x="411" y="-4"/>
      <point x="490" y="66"/>
      <point x="490" y="196" type="curve" smooth="yes" name=""/>
      <point x="490" y="306"/>
      <point x="432" y="358"/>
      <point x="299" y="391" type="curve" smooth="yes"/>
      <point x="250" y="403" type="line" smooth="yes"/>
      <point x="176" y="421"/>
      <point x="141" y="454"/>
      <point x="141" y="526" type="curve" smooth="yes"/>
      <point x="141" y="585"/>
      <point x="179" y="636"/>
      <point x="276" y="636" type="curve" smooth="yes"/>
      <point x="348" y="636"/>
      <point x="402" y="596"/>
      <point x="428" y="552" type="curve"/>
      <point x="484" y="595" type="line"/>
      <point x="445" y="659"/>
      <point x="370" y="702"/>
      <point x="274" y="702" type="curve" smooth="yes"/>
      <point x="139" y="702"/>
      <point x="66.0" y="626.0"/>
      <point x="66" y="519" type="curve" smooth="yes"/>
      <point x="66" y="416"/>
      <point x="118" y="360"/>
      <point x="251" y="328" type="curve" smooth="yes"/>
      <point x="297" y="317" type="line" smooth="yes"/>
      <point x="377" y="298"/>
      <point x="416" y="260"/>
      <point x="416" y="189" type="curve" smooth="yes"/>
      <point x="416" y="104"/>
      <point x="363" y="61"/>
      <point x="267" y="62" type="curve" smooth="yes"/>
      <point x="197" y="63"/>
      <point x="134" y="110"/>
      <point x="103" y="160" type="curve"/>
      <point x="48" y="109" type="line"/>
      <point x="91" y="49"/>
      <point x="172" y="-4"/>
    </contour>
  </outline>
</glyph>
<glyph name="period" format="1">
  <advance width="248"/>
  <unicode hex="002E"/>
  <outline>
    <contour>
      <point x="124" y="-12" type="curve" smooth="yes" name="hr00"/>
      <point x="163" y="-12"/>
      <point x="183" y="6"/>
      <point x="183" y="39" type="curve" smooth="yes"/>
      <point x="183" y="55" type="line" smooth="yes"/>
      <point x="183" y="88"/>
      <point x="163" y="106"/>
      <point x="124" y="106" type="curve" smooth="yes"/>
      <point x="85" y="106"/>
      <point x="65" y="88"/>
      <point x="65" y="55" type="curve" smooth="yes"/>
      <point x="65" y="39" type="line" smooth="yes"/>
      <point x="65" y="6"/>
      <point x="85" y="-12"/>
    </contour>
  </outline>
</glyph>
<glyph name="one" format="1">
  <advance width="540"/>
  <unicode hex="0031"/>
  <outline>
    <contour>
      <point x="493" y="0" type="line" name="hr00"/>
      <point x="493" y="70" type="line"/>
      <point x="333" y="70" type="line"/>
      <point x="333" y="698" type="line"/>
      <point x="212" y="698" type="line"/>
      <point x="54" y="551" type="line"/>
      <point x="99" y="502" type="line"/>
      <point x="247" y="639" type="line"/>
      <point x="253" y="639" type="line"/>
      <point x="253" y="70" type="line"/>
      <point x="79" y="70" type="line"/>
      <point x="79" y="0" type="line"/>
    </contour>
  </outline>
</glyph>
<glyph name="four" format="1">
  <advance width="540"/>
  <unicode hex="0034"/>
  <outline>
    <contour>
      <point x="411" y="0" type="line" name="hr00"/>
      <point x="411" y="137" type="line"/>
      <point x="501" y="137" type="line"/>
      <point x="501" y="204" type="line"/>
      <point x="411" y="204" type="line"/>
      <point x="411" y="698" type="line"/>
      <point x="294" y="698" type="line"/>
      <point x="34" y="208" type="line"/>
      <point x="34" y="137" type="line"/>
      <point x="335" y="137" type="line"/>
      <point x="335" y="0" type="line"/>
    </contour>
    <contour>
      <point x="325" y="634" type="line"/>
      <point x="335" y="634" type="line"/>
      <point x="335" y="204" type="line"/>
      <point x="107" y="204" type="line"/>
    </contour>
  </outline>
</glyph>
<glyph name="seven" format="1">
  <advance width="540"/>
  <unicode hex="0037"/>
  <outline>
    <contour>
      <point x="242" y="0" type="line" name="hr00"/>
      <point x="476" y="628" type="line"/>
      <point x="476" y="698" type="line"/>
      <point x="61" y="698" type="line"/>
      <point x="61" y="499" type="line"/>
      <point x="132" y="499" type="line"/>
      <point x="132" y="629" type="line"/>
      <point x="395" y="629" type="line"/>
      <point x="157" y="0" type="line"/>
    </contour>
  </outline>
</glyph>
<glyph name="eight" format="1">
  <advance width="540"/>
  <unicode hex="0038"/>
  <outline>
    <contour>
      <point x="270" y="-12" type="curve" smooth="yes"/>
      <point x="413" y="-12"/>
      <point x="489" y="66"/>
      <point x="489" y="190" type="curve" smooth="yes"/>
      <point x="489" y="296"/>
      <point x="432" y="351"/>
      <point x="356" y="362" type="curve"/>
      <point x="356" y="372" type="line"/>
      <point x="422" y="386"/>
      <point x="470" y="444"/>
      <point x="470" y="536" type="curve" smooth="yes" name="hr01"/>
      <point x="470" y="652"/>
      <point x="396" y="710"/>
      <point x="270" y="710" type="curve" smooth="yes"/>
      <point x="144" y="710"/>
      <point x="70" y="652"/>
      <point x="70" y="536" type="curve" smooth="yes"/>
      <point x="70" y="444"/>
      <point x="118" y="386"/>
      <point x="184" y="372" type="curve"/>
      <point x="184" y="362" type="line"/>
      <point x="108" y="351"/>
      <point x="51" y="296"/>
      <point x="51" y="190" type="curve" smooth="yes" name="hr02"/>
      <point x="51" y="66"/>
      <point x="127" y="-12"/>
    </contour>
    <contour>
      <point x="270" y="58" type="curve" smooth="yes"/>
      <point x="185" y="58"/>
      <point x="135" y="102"/>
      <point x="135" y="183" type="curve" smooth="yes"/>
      <point x="135" y="209" type="line" smooth="yes"/>
      <point x="135" y="290"/>
      <point x="185" y="334"/>
      <point x="270" y="334" type="curve" smooth="yes"/>
      <point x="355" y="334"/>
      <point x="405" y="290"/>
      <point x="405" y="209" type="curve" smooth="yes"/>
      <point x="405" y="183" type="line" smooth="yes"/>
      <point x="405" y="102"/>
      <point x="355" y="58"/>
    </contour>
    <contour>
      <point x="270" y="401" type="curve" smooth="yes"/>
      <point x="193" y="401"/>
      <point x="152" y="438"/>
      <point x="152" y="510" type="curve" smooth="yes" name="hr03"/>
      <point x="152" y="531" type="line" smooth="yes"/>
      <point x="152" y="603"/>
      <point x="193" y="640"/>
      <point x="270" y="640" type="curve" smooth="yes"/>
      <point x="347" y="640"/>
      <point x="388" y="603"/>
      <point x="388" y="531" type="curve" smooth="yes"/>
      <point x="388" y="510" type="line" smooth="yes"/>
      <point x="388" y="438"/>
      <point x="347" y="401"/>
    </contour>
  </outline>
</glyph>
<glyph name="equal" format="1">
  <advance width="540"/>
  <unicode hex="003D"/>
  <outline>
    <contour>
      <point x="480" y="372" type="line" name="hr00"/>
      <point x="480" y="436" type="line"/>
      <point x="60" y="436" type="line"/>
      <point x="60" y="372" type="line"/>
    </contour>
    <contour>
      <point x="480" y="174" type="line"/>
      <point x="480" y="238" type="line"/>
      <point x="60" y="238" type="line"/>
      <point x="60" y="174" type="line"/>
    </contour>
  </outline>
</glyph>
<glyph name="question" format="1">
  <advance width="431"/>
  <unicode hex="003F"/>
  <outline>
    <contour>
      <point x="233" y="206" type="line"/>
      <point x="233" y="317" type="line"/>
      <point x="338" y="345"/>
      <point x="398" y="404"/>
      <point x="398" y="522" type="curve" smooth="yes"/>
      <point x="398" y="647"/>
      <point x="332" y="710"/>
      <point x="212" y="710" type="curve" smooth="yes"/>
      <point x="111" y="710"/>
      <point x="44" y="646"/>
      <point x="20" y="550" type="curve"/>
      <point x="87" y="524" type="line"/>
      <point x="103" y="601"/>
      <point x="148" y="641"/>
      <point x="212" y="641" type="curve" smooth="yes"/>
      <point x="275" y="641"/>
      <point x="316" y="601"/>
      <point x="316" y="532" type="curve" smooth="yes"/>
      <point x="316" y="506" type="line" smooth="yes"/>
      <point x="316" y="420"/>
      <point x="258" y="376"/>
      <point x="160" y="371" type="curve"/>
      <point x="160" y="206" type="line"/>
    </contour>
    <contour>
      <point x="196" y="-12" type="curve" smooth="yes"/>
      <point x="235" y="-12"/>
      <point x="255" y="6"/>
      <point x="255" y="39" type="curve" smooth="yes" name="hr01"/>
      <point x="255" y="55" type="line" smooth="yes"/>
      <point x="255" y="88"/>
      <point x="235" y="106"/>
      <point x="196" y="106" type="curve" smooth="yes"/>
      <point x="157" y="106"/>
      <point x="137" y="88"/>
      <point x="137" y="55" type="curve" smooth="yes"/>
      <point x="137" y="39" type="line" smooth="yes"/>
      <point x="137" y="6"/>
      <point x="157" y="-12"/>
    </contour>
  </outline>
</glyph>
<glyph name="A" format="1">
  <advance width="579"/>
  <unicode hex="0041"/>
  <outline>
    <contour>
      <point x="558" y="0" type="line" name="hr00"/>
      <point x="339" y="698" type="line"/>
      <point x="239" y="698" type="line"/>
      <point x="21" y="0" type="line"/>
      <point x="101" y="0" type="line"/>
      <point x="163" y="209" type="line"/>
      <point x="414" y="209" type="line"/>
      <point x="476" y="0" type="line"/>
    </contour>
    <contour>
      <point x="396" y="275" type="line"/>
      <point x="182" y="275" type="line"/>
      <point x="261" y="540" type="line"/>
      <point x="283" y="627" type="line"/>
      <point x="293" y="627" type="line"/>
      <point x="315" y="540" type="line"/>
    </contour>
    <contour>
      <point x="291.0" y="0.0" type="move" name="bottom"/>
    </contour>
    <contour>
      <point x="558.0" y="0.0" type="move" name="bottomright"/>
    </contour>
    <contour>
      <point x="291.0" y="698.0" type="move" name="top"/>
    </contour>
  </outline>
</glyph>
<glyph name="B" format="1">
  <advance width="589"/>
  <unicode hex="0042"/>
  <outline>
    <contour>
      <point x="83" y="0" type="line"/>
      <point x="374" y="0" type="line" smooth="yes"/>
      <point x="468" y="0"/>
      <point x="533" y="75"/>
      <point x="533" y="202" type="curve" smooth="yes"/>
      <point x="533" y="324"/>
      <point x="453" y="361"/>
      <point x="404" y="361" type="curve"/>
      <point x="404" y="371" type="line"/>
      <point x="452" y="375"/>
      <point x="511" y="407"/>
      <point x="511" y="518" type="curve" smooth="yes" name="hr01"/>
      <point x="511" y="639"/>
      <point x="452" y="698"/>
      <point x="347" y="698" type="curve" smooth="yes"/>
      <point x="83" y="698" type="line"/>
    </contour>
    <contour>
      <point x="163" y="326" type="line"/>
      <point x="350" y="326" type="line" smooth="yes"/>
      <point x="413" y="326"/>
      <point x="447" y="293"/>
      <point x="447" y="221" type="curve" smooth="yes" name="hr02"/>
      <point x="447" y="175" type="line" smooth="yes"/>
      <point x="447" y="103"/>
      <point x="413" y="70"/>
      <point x="350" y="70" type="curve" smooth="yes"/>
      <point x="163" y="70" type="line"/>
    </contour>
    <contour>
      <point x="163" y="628" type="line"/>
      <point x="337" y="628" type="line" smooth="yes"/>
      <point x="394" y="628"/>
      <point x="426" y="599"/>
      <point x="426" y="535" type="curve" smooth="yes" name="hr03"/>
      <point x="426" y="489" type="line" smooth="yes"/>
      <point x="426" y="425"/>
      <point x="394" y="396"/>
      <point x="337" y="396" type="curve" smooth="yes"/>
      <point x="163" y="396" type="line"/>
    </contour>
    <contour>
      <point x="279.0" y="0.0" type="move" name="bottom"/>
    </contour>
    <contour>
      <point x="279.0" y="698.0" type="move" name="top"/>
    </contour>
  </outline>
</glyph>
<glyph name="D" format="1">
  <advance width="607"/>
  <unicode hex="0044"/>
  <outline>
    <contour>
      <point x="83" y="0" type="line" name="hr00"/>
      <point x="302" y="0" type="line" smooth="yes"/>
      <point x="463" y="0"/>
      <point x="555" y="106"/>
      <point x="555" y="349" type="curve" smooth="yes"/>
      <point x="555" y="592"/>
      <point x="463" y="698"/>
      <point x="302" y="698" type="curve" smooth="yes"/>
      <point x="83" y="698" type="line"/>
    </contour>
    <contour>
      <point x="163" y="70" type="line"/>
      <point x="163" y="628" type="line"/>
      <point x="302" y="628" type="line" smooth="yes"/>
      <point x="402" y="628"/>
      <point x="469" y="556"/>
      <point x="469" y="427" type="curve" smooth="yes"/>
      <point x="469" y="271" type="line" smooth="yes"/>
      <point x="469" y="142"/>
      <point x="402" y="70"/>
      <point x="302" y="70" type="curve" smooth="yes"/>
    </contour>
    <contour>
      <point x="280.0" y="0.0" type="move" name="bottom"/>
    </contour>
    <contour>
      <point x="277.0" y="698.0" type="move" name="top"/>
    </contour>
  </outline>
</glyph>
<glyph name="E" format="1">
  <advance width="526"/>
  <unicode hex="0045"/>
  <outline>
    <contour>
      <point x="469" y="0" type="line" name="hr00"/>
      <point x="469" y="70" type="line"/>
      <point x="163" y="70" type="line"/>
      <point x="163" y="318" type="line"/>
      <point x="450" y="318" type="line"/>
      <point x="450" y="388" type="line"/>
      <point x="163" y="388" type="line"/>
      <point x="163" y="628" type="line"/>
      <point x="469" y="628" type="line"/>
      <point x="469" y="698" type="line"/>
      <point x="83" y="698" type="line"/>
      <point x="83" y="0" type="line"/>
    </contour>
    <contour>
      <point x="274.0" y="0.0" type="move" name="bottom"/>
    </contour>
    <contour>
      <point x="469.0" y="0.0" type="move" name="bottomright"/>
    </contour>
    <contour>
      <point x="274.0" y="698.0" type="move" name="top"/>
    </contour>
  </outline>
</glyph>
<glyph name="F" format="1">
  <advance width="505"/>
  <unicode hex="0046"/>
  <outline>
    <contour>
      <point x="163" y="0" type="line" name="hr00"/>
      <point x="163" y="318" type="line"/>
      <point x="433" y="318" type="line"/>
      <point x="433" y="388" type="line"/>
      <point x="163" y="388" type="line"/>
      <point x="163" y="628" type="line"/>
      <point x="460" y="628" type="line"/>
      <point x="460" y="698" type="line"/>
      <point x="83" y="698" type="line"/>
      <point x="83" y="0" type="line"/>
    </contour>
    <contour>
      <point x="135.0" y="0.0" type="move" name="bottom"/>
    </contour>
    <contour>
      <point x="271.0" y="698.0" type="move" name="top"/>
    </contour>
  </outline>
</glyph>
<glyph name="G" format="1">
  <advance width="627"/>
  <unicode hex="0047"/>
  <outline>
    <contour>
      <point x="489" y="0" type="line"/>
      <point x="563" y="0" type="line"/>
      <point x="563" y="357" type="line"/>
      <point x="347" y="357" type="line"/>
      <point x="347" y="287" type="line"/>
      <point x="485" y="287" type="line"/>
      <point x="485" y="211" type="line" smooth="yes"/>
      <point x="485" y="115"/>
      <point x="410" y="59"/>
      <point x="319" y="59" type="curve" smooth="yes" name="hr01"/>
      <point x="204" y="59"/>
      <point x="138" y="142"/>
      <point x="138" y="271" type="curve" smooth="yes"/>
      <point x="138" y="427" type="line" smooth="yes"/>
      <point x="138" y="556"/>
      <point x="204" y="639"/>
      <point x="319" y="639" type="curve" smooth="yes"/>
      <point x="405" y="639"/>
      <point x="459" y="595"/>
      <point x="486" y="522" type="curve"/>
      <point x="552" y="562" type="line"/>
      <point x="511" y="653"/>
      <point x="441" y="710"/>
      <point x="319" y="710" type="curve" smooth="yes"/>
      <point x="150" y="710"/>
      <point x="52" y="598"/>
      <point x="52" y="349" type="curve" smooth="yes"/>
      <point x="52" y="100"/>
      <point x="154" y="-12"/>
      <point x="306" y="-12" type="curve" smooth="yes"/>
      <point x="409" y="-12"/>
      <point x="464" y="35"/>
      <point x="479" y="97" type="curve" name="hr02"/>
      <point x="489" y="97" type="line"/>
    </contour>
    <contour>
      <point x="313.0" y="0.0" type="move" name="bottom"/>
    </contour>
    <contour>
      <point x="320.0" y="698.0" type="move" name="top"/>
    </contour>
  </outline>
</glyph>
<glyph name="H" format="1">
  <advance width="637"/>
  <unicode hex="0048"/>
  <outline>
    <contour>
      <point x="474" y="0" type="line" name=""/>
      <point x="554" y="0" type="line"/>
      <point x="554" y="698" type="line"/>
      <point x="474" y="698" type="line"/>
      <point x="474" y="388" type="line"/>
      <point x="163" y="388" type="line"/>
      <point x="163" y="698" type="line"/>
      <point x="83" y="698" type="line"/>
      <point x="83" y="0" type="line"/>
      <point x="163" y="0" type="line"/>
      <point x="163" y="318" type="line"/>
      <point x="474" y="318" type="line"/>
    </contour>
    <contour>
      <point x="319.0" y="0.0" type="move" name="bottom"/>
    </contour>
    <contour>
      <point x="319.0" y="698.0" type="move" name="top"/>
    </contour>
  </outline>
</glyph>
<glyph name="I" format="1">
  <advance width="362"/>
  <unicode hex="0049"/>
  <outline>
    <contour>
      <point x="309" y="0" type="line" name="hr00"/>
      <point x="309" y="66" type="line"/>
      <point x="221" y="66" type="line"/>
      <point x="221" y="632" type="line"/>
      <point x="309" y="632" type="line"/>
      <point x="309" y="698" type="line"/>
      <point x="53" y="698" type="line"/>
      <point x="53" y="632" type="line"/>
      <point x="141" y="632" type="line"/>
      <point x="141" y="66" type="line"/>
      <point x="53" y="66" type="line"/>
      <point x="53" y="0" type="line"/>
    </contour>
    <contour>
      <point x="181.0" y="0.0" type="move" name="bottom"/>
    </contour>
    <contour>
      <point x="309.0" y="0.0" type="move" name="bottomright"/>
    </contour>
    <contour>
      <point x="181.0" y="698.0" type="move" name="top"/>
    </contour>
  </outline>
</glyph>
<glyph name="L" format="1">
  <advance width="453"/>
  <unicode hex="004C"/>
  <outline>
    <contour>
      <point x="428" y="0" type="line" name="hr00"/>
      <point x="428" y="70" type="line"/>
      <point x="163" y="70" type="line"/>
      <point x="163" y="698" type="line"/>
      <point x="83" y="698" type="line"/>
      <point x="83" y="0" type="line"/>
    </contour>
    <contour>
      <point x="267.0" y="0.0" type="move" name="bottom"/>
    </contour>
    <contour>
      <point x="123.0" y="698.0" type="move" name="top"/>
    </contour>
    <contour>
      <point x="232.0" y="740.0" type="move" name="topright"/>
    </contour>
  </outline>
</glyph>
<glyph name="N" format="1">
  <advance width="637"/>
  <unicode hex="004E"/>
  <outline>
    <contour>
      <point x="457" y="0" type="line" name="hr00"/>
      <point x="555" y="0" type="line"/>
      <point x="555" y="698" type="line"/>
      <point x="477" y="698" type="line"/>
      <point x="477" y="245" type="line"/>
      <point x="484" y="101" type="line"/>
      <point x="474" y="101" type="line"/>
      <point x="413" y="245" type="line"/>
      <point x="181" y="698" type="line"/>
      <point x="83" y="698" type="line"/>
      <point x="83" y="0" type="line"/>
      <point x="161" y="0" type="line"/>
      <point x="161" y="453" type="line"/>
      <point x="154" y="597" type="line"/>
      <point x="164" y="597" type="line"/>
      <point x="225" y="453" type="line"/>
    </contour>
    <contour>
      <point x="318.0" y="0.0" type="move" name="bottom"/>
    </contour>
    <contour>
      <point x="318.0" y="698.0" type="move" name="top"/>
    </contour>
  </outline>
</glyph>
<glyph name="O" format="1">
  <advance width="638"/>
  <unicode hex="004F"/>
  <outline>
    <contour>
      <point x="319" y="-12" type="curve" name="hr00"/>
      <point x="488" y="-12"/>
      <point x="586" y="100"/>
      <point x="586" y="349" type="curve" smooth="yes"/>
      <point x="586" y="598"/>
      <point x="488" y="710"/>
      <point x="319" y="710" type="curve"/>
      <point x="150" y="710"/>
      <point x="52" y="598"/>
      <point x="52" y="349" type="curve" smooth="yes"/>
      <point x="52" y="100"/>
      <point x="150" y="-12"/>
    </contour>
    <contour>
      <point x="319" y="59" type="curve" smooth="yes"/>
      <point x="204" y="59"/>
      <point x="138" y="142"/>
      <point x="138" y="271" type="curve" smooth="yes"/>
      <point x="138" y="427" type="line" smooth="yes"/>
      <point x="138" y="556"/>
      <point x="204" y="639"/>
      <point x="319" y="639" type="curve" smooth="yes"/>
      <point x="434" y="639"/>
      <point x="500" y="556"/>
      <point x="500" y="427" type="curve" smooth="yes"/>
      <point x="500" y="271" type="line" smooth="yes"/>
      <point x="500" y="142"/>
      <point x="434" y="59"/>
    </contour>
    <contour>
      <point x="319.0" y="0.0" type="move" name="bottom"/>
    </contour>
    <contour>
      <point x="319.0" y="698.0" type="move" name="top"/>
    </contour>
  </outline>
</glyph>
<glyph name="Q" format="1">
  <advance width="638"/>
  <unicode hex="0051"/>
  <outline>
    <contour>
      <point x="457" y="-96" type="line" name="hr00"/>
      <point x="361" y="-96" type="line"/>
      <point x="361" y="-9" type="line"/>
      <point x="504" y="8"/>
      <point x="586" y="121"/>
      <point x="586" y="349" type="curve" smooth="yes"/>
      <point x="586" y="598"/>
      <point x="488" y="710"/>
      <point x="319" y="710" type="curve"/>
      <point x="150" y="710"/>
      <point x="52" y="598"/>
      <point x="52" y="349" type="curve" smooth="yes"/>
      <point x="52" y="117"/>
      <point x="137" y="4"/>
      <point x="285" y="-10" type="curve"/>
      <point x="285" y="-85" type="line" smooth="yes"/>
      <point x="285" y="-129"/>
      <point x="312" y="-163"/>
      <point x="365" y="-163" type="curve" smooth="yes"/>
      <point x="457" y="-163" type="line"/>
    </contour>
    <contour>
      <point x="319" y="59" type="curve" smooth="yes"/>
      <point x="204" y="59"/>
      <point x="138" y="142"/>
      <point x="138" y="271" type="curve" smooth="yes"/>
      <point x="138" y="427" type="line" smooth="yes"/>
      <point x="138" y="556"/>
      <point x="204" y="639"/>
      <point x="319" y="639" type="curve" smooth="yes"/>
      <point x="434" y="639"/>
      <point x="500" y="556"/>
      <point x="500" y="427" type="curve" smooth="yes"/>
      <point x="500" y="271" type="line" smooth="yes"/>
      <point x="500" y="142"/>
      <point x="434" y="59"/>
    </contour>
    <contour>
      <point x="319.0" y="698.0" type="move" name="top"/>
    </contour>
  </outline>
</glyph>
<glyph name="T" format="1">
  <advance width="516"/>
  <unicode hex="0054"/>
  <outline>
    <contour>
      <point x="495" y="628" type="line" name="hr00"/>
      <point x="495" y="698" type="line"/>
      <point x="21" y="698" type="line"/>
      <point x="21" y="628" type="line"/>
      <point x="218" y="628" type="line"/>
      <point x="218" y="0" type="line"/>
      <point x="298" y="0" type="line"/>
      <point x="298" y="628" type="line"/>
    </contour>
    <contour>
      <point x="258.0" y="0.0" type="move" name="bottom"/>
    </contour>
    <contour>
      <point x="258.0" y="698.0" type="move" name="top"/>
    </contour>
  </outline>
</glyph>
<glyph name="X" format="1">
  <advance width="555"/>
  <unicode hex="0058"/>
  <outline>
    <contour>
      <point x="21" y="0" type="line"/>
      <point x="109" y="0" type="line"/>
      <point x="270" y="288" type="line"/>
      <point x="280" y="288" type="line"/>
      <point x="440" y="0" type="line"/>
      <point x="533" y="0" type="line"/>
      <point x="327" y="358" type="line" name="hr00"/>
      <point x="528" y="698" type="line"/>
      <point x="440" y="698" type="line"/>
      <point x="283" y="424" type="line"/>
      <point x="273" y="424" type="line"/>
      <point x="121" y="698" type="line"/>
      <point x="28" y="698" type="line"/>
      <point x="227" y="355" type="line"/>
    </contour>
    <contour>
      <point x="278.0" y="0.0" type="move" name="bottom"/>
    </contour>
    <contour>
      <point x="278.0" y="698.0" type="move" name="top"/>
    </contour>
  </outline>
</glyph>
<glyph name="Z" format="1">
  <advance width="524"/>
  <unicode hex="005A"/>
  <outline>
    <contour>
      <point x="491" y="70" type="line" name=""/>
      <point x="120" y="70" type="line"/>
      <point x="479" y="626" type="line"/>
      <point x="479" y="698" type="line"/>
      <point x="49" y="698" type="line"/>
      <point x="49" y="628" type="line"/>
      <point x="392" y="628" type="line"/>
      <point x="33" y="72" type="line"/>
      <point x="33" y="0" type="line"/>
      <point x="491" y="0" type="line"/>
    </contour>
    <contour>
      <point x="268.0" y="0.0" type="move" name="bottom"/>
    </contour>
    <contour>
      <point x="268.0" y="698.0" type="move" name="top"/>
    </contour>
  </outline>
</glyph>
<glyph name="bracketleft" format="1">
  <advance width="286"/>
  <unicode hex="005B"/>
  <outline>
    <contour>
      <point x="233" y="-138" type="line" name="hr00"/>
      <point x="233" y="-78" type="line"/>
      <point x="149" y="-78" type="line"/>
      <point x="149" y="700" type="line"/>
      <point x="233" y="700" type="line"/>
      <point x="233" y="760" type="line"/>
      <point x="83" y="760" type="line"/>
      <point x="83" y="-138" type="line"/>
    </contour>
  </outline>
</glyph>
<glyph name="backslash" format="1">
  <advance width="349"/>
  <unicode hex="005C"/>
  <outline>
    <contour>
      <point x="341" y="-151" type="line" name="hr00"/>
      <point x="104" y="740" type="line"/>
      <point x="37" y="740" type="line"/>
      <point x="274" y="-151" type="line"/>
    </contour>
  </outline>
</glyph>
<glyph name="bracketright" format="1">
  <advance width="286"/>
  <unicode hex="005D"/>
  <outline>
    <contour>
      <point x="53" y="760" type="line" name="hr00"/>
      <point x="53" y="700" type="line"/>
      <point x="137" y="700" type="line"/>
      <point x="137" y="-78" type="line"/>
      <point x="53" y="-78" type="line"/>
      <point x="53" y="-138" type="line"/>
      <point x="203" y="-138" type="line"/>
      <point x="203" y="760" type="line"/>
    </contour>
  </outline>
</glyph>
<glyph name="asciicircum" format="1">
  <advance width="540"/>
  <unicode hex="005E"/>
  <outline>
    <contour>
      <point x="498" y="326" type="line" name="hr00"/>
      <point x="313" y="698" type="line"/>
      <point x="227" y="698" type="line"/>
      <point x="43" y="326" type="line"/>
      <point x="102" y="297" type="line"/>
      <point x="265" y="630" type="line"/>
      <point x="275" y="630" type="line"/>
      <point x="437" y="297" type="line"/>
    </contour>
  </outline>
</glyph>
<glyph name="underscore" format="1">
  <advance width="508"/>
  <unicode hex="005F"/>
  <outline>
    <contour>
      <point x="481" y="-163" type="line" name="hr00"/>
      <point x="481" y="-97" type="line"/>
      <point x="27" y="-97" type="line"/>
      <point x="27" y="-163" type="line"/>
    </contour>
  </outline>
</glyph>
<glyph name="a" format="1">
  <advance width="483"/>
  <unicode hex="0061"/>
  <outline>
    <contour>
      <point x="456" y="0" type="line"/>
      <point x="456" y="67" type="line"/>
      <point x="404" y="67" type="line"/>
      <point x="404" y="359" type="line" smooth="yes"/>
      <point x="404" y="469"/>
      <point x="341" y="527"/>
      <point x="225" y="527" type="curve" smooth="yes"/>
      <point x="146" y="527"/>
      <point x="84" y="483"/>
      <point x="57" y="428" type="curve"/>
      <point x="102" y="386" type="line"/>
      <point x="128" y="435"/>
      <point x="163" y="462"/>
      <point x="222" y="462" type="curve" smooth="yes"/>
      <point x="295" y="462"/>
      <point x="328" y="427"/>
      <point x="328" y="351" type="curve" smooth="yes"/>
      <point x="328" y="294" type="line"/>
      <point x="235" y="294" type="line" smooth="yes"/>
      <point x="101" y="294"/>
      <point x="39" y="234"/>
      <point x="39" y="138" type="curve" smooth="yes"/>
      <point x="39" y="40"/>
      <point x="88" y="-12"/>
      <point x="188" y="-12" type="curve" smooth="yes" name=""/>
      <point x="251" y="-12"/>
      <point x="301" y="22"/>
      <point x="318" y="84" type="curve"/>
      <point x="338" y="84" type="line"/>
      <point x="328" y="94" type="line"/>
      <point x="328" y="74" type="line" smooth="yes"/>
      <point x="328" y="26"/>
      <point x="354" y="0"/>
      <point x="402" y="0" type="curve" smooth="yes" name=""/>
    </contour>
    <contour>
      <point x="328" y="236" type="line"/>
      <point x="328" y="158" type="line" smooth="yes"/>
      <point x="328" y="105"/>
      <point x="277" y="54"/>
      <point x="207" y="54" type="curve" smooth="yes" name=""/>
      <point x="153" y="54"/>
      <point x="118" y="78"/>
      <point x="118" y="130" type="curve" smooth="yes"/>
      <point x="118" y="158" type="line" smooth="yes"/>
      <point x="118" y="208"/>
      <point x="153" y="236"/>
      <point x="233" y="236" type="curve" smooth="yes"/>
    </contour>
    <contour>
      <point x="222.0" y="0.0" type="move" name="bottom"/>
    </contour>
    <contour>
      <point x="457.0" y="0.0" type="move" name="bottomright"/>
    </contour>
    <contour>
      <point x="228.0" y="540.0" type="move" name="top"/>
    </contour>
  </outline>
</glyph>
<glyph name="b" format="1">
  <advance width="524"/>
  <unicode hex="0062"/>
  <outline>
    <contour>
      <point x="76" y="0" type="line"/>
      <point x="152" y="0" type="line"/>
      <point x="152" y="84" type="line"/>
      <point x="162" y="84" type="line"/>
      <point x="182" y="17"/>
      <point x="228" y="-12"/>
      <point x="292" y="-12" type="curve" smooth="yes" name="hr01"/>
      <point x="415" y="-12"/>
      <point x="480" y="92"/>
      <point x="480" y="258" type="curve" smooth="yes"/>
      <point x="480" y="424"/>
      <point x="415" y="528"/>
      <point x="292" y="528" type="curve" smooth="yes"/>
      <point x="228" y="528"/>
      <point x="182" y="499"/>
      <point x="162" y="432" type="curve"/>
      <point x="152" y="432" type="line"/>
      <point x="152" y="740" type="line" name="hr02"/>
      <point x="76" y="740" type="line"/>
    </contour>
    <contour>
      <point x="269" y="56" type="curve" smooth="yes" name="hr03"/>
      <point x="205" y="56"/>
      <point x="152" y="96"/>
      <point x="152" y="154" type="curve" smooth="yes"/>
      <point x="152" y="362" type="line" smooth="yes"/>
      <point x="152" y="420"/>
      <point x="205" y="460"/>
      <point x="269" y="460" type="curve" smooth="yes"/>
      <point x="353" y="460"/>
      <point x="398" y="404"/>
      <point x="398" y="310" type="curve" smooth="yes"/>
      <point x="398" y="206" type="line" smooth="yes"/>
      <point x="398" y="112"/>
      <point x="353" y="56"/>
    </contour>
    <contour>
      <point x="278.0" y="0.0" type="move" name="bottom"/>
    </contour>
  </outline>
</glyph>
<glyph name="c" format="1">
  <advance width="454"/>
  <unicode hex="0063"/>
  <outline>
    <contour>
      <point x="246" y="-12" type="curve" smooth="yes" name="hr00"/>
      <point x="338" y="-12"/>
      <point x="400" y="35"/>
      <point x="431" y="106" type="curve"/>
      <point x="375" y="145" type="line"/>
      <point x="351" y="86"/>
      <point x="312" y="56"/>
      <point x="246" y="56" type="curve" smooth="yes"/>
      <point x="162" y="56"/>
      <point x="123" y="105"/>
      <point x="123" y="206" type="curve" smooth="yes"/>
      <point x="123" y="310" type="line" smooth="yes"/>
      <point x="123" y="411"/>
      <point x="162" y="460"/>
      <point x="246" y="460" type="curve" smooth="yes"/>
      <point x="310" y="460"/>
      <point x="346" y="430"/>
      <point x="363" y="377" type="curve"/>
      <point x="426" y="409" type="line"/>
      <point x="399" y="478"/>
      <point x="343" y="528"/>
      <point x="246" y="528" type="curve" smooth="yes"/>
      <point x="118" y="528"/>
      <point x="41" y="450"/>
      <point x="41" y="258" type="curve" smooth="yes"/>
      <point x="41" y="66"/>
      <point x="118" y="-12"/>
    </contour>
    <contour>
      <point x="248.0" y="0.0" type="move" name="bottom"/>
    </contour>
    <contour>
      <point x="248.0" y="540.0" type="move" name="top"/>
    </contour>
  </outline>
</glyph>
<glyph name="d" format="1">
  <advance width="524"/>
  <unicode hex="0064"/>
  <outline>
    <contour>
      <point x="372" y="0" type="line"/>
      <point x="448" y="0" type="line"/>
      <point x="448" y="740" type="line"/>
      <point x="372" y="740" type="line"/>
      <point x="372" y="432" type="line"/>
      <point x="362" y="432" type="line"/>
      <point x="342" y="499"/>
      <point x="296" y="528"/>
      <point x="232" y="528" type="curve" smooth="yes"/>
      <point x="109" y="528"/>
      <point x="44" y="424"/>
      <point x="44" y="258" type="curve" smooth="yes"/>
      <point x="44" y="92"/>
      <point x="109" y="-12"/>
      <point x="232" y="-12" type="curve" smooth="yes" name="hr01"/>
      <point x="296" y="-12"/>
      <point x="342" y="17"/>
      <point x="362" y="84" type="curve" name="hr02"/>
      <point x="372" y="84" type="line"/>
    </contour>
    <contour>
      <point x="255" y="56" type="curve" smooth="yes" name="hr03"/>
      <point x="171" y="56"/>
      <point x="126" y="112"/>
      <point x="126" y="206" type="curve" smooth="yes"/>
      <point x="126" y="310" type="line" smooth="yes"/>
      <point x="126" y="404"/>
      <point x="171" y="460"/>
      <point x="255" y="460" type="curve" smooth="yes"/>
      <point x="319" y="460"/>
      <point x="372" y="420"/>
      <point x="372" y="362" type="curve" smooth="yes"/>
      <point x="372" y="154" type="line" smooth="yes"/>
      <point x="372" y="96"/>
      <point x="319" y="56"/>
    </contour>
    <contour>
      <point x="247.0" y="0.0" type="move" name="bottom"/>
    </contour>
    <contour>
      <point x="501.0" y="740.0" type="move" name="topright"/>
    </contour>
  </outline>
</glyph>
<glyph name="f" format="1">
  <advance width="294"/>
  <unicode hex="0066"/>
  <outline>
    <contour>
      <point x="101" y="0" type="line" name="hr00"/>
      <point x="177" y="0" type="line"/>
      <point x="177" y="449" type="line"/>
      <point x="276" y="449" type="line"/>
      <point x="276" y="516" type="line"/>
      <point x="177" y="516" type="line"/>
      <point x="177" y="673" type="line"/>
      <point x="276" y="673" type="line"/>
      <point x="276" y="740" type="line"/>
      <point x="199" y="740" type="line" smooth="yes"/>
      <point x="131" y="740"/>
      <point x="101" y="710"/>
      <point x="101" y="642" type="curve" smooth="yes"/>
      <point x="101" y="516" type="line"/>
      <point x="26" y="516" type="line"/>
      <point x="26" y="449" type="line"/>
      <point x="101" y="449" type="line"/>
    </contour>
    <contour>
      <point x="140.0" y="0.0" type="move" name="bottom"/>
    </contour>
  </outline>
</glyph>
<glyph name="h" format="1">
  <advance width="513"/>
  <unicode hex="0068"/>
  <outline>
    <contour>
      <point x="76" y="0" type="line" name="hr00"/>
      <point x="152" y="0" type="line"/>
      <point x="152" y="352" type="line" smooth="yes"/>
      <point x="152" y="419"/>
      <point x="201" y="459"/>
      <point x="262" y="459" type="curve" smooth="yes"/>
      <point x="332" y="459"/>
      <point x="366" y="413"/>
      <point x="366" y="331" type="curve" smooth="yes"/>
      <point x="366" y="0" type="line"/>
      <point x="442" y="0" type="line"/>
      <point x="442" y="336" type="line" smooth="yes"/>
      <point x="442" y="466"/>
      <point x="386" y="528"/>
      <point x="294" y="528" type="curve" smooth="yes"/>
      <point x="222" y="528"/>
      <point x="182" y="495"/>
      <point x="162" y="432" type="curve"/>
      <point x="152" y="432" type="line"/>
      <point x="152" y="740" type="line"/>
      <point x="76" y="740" type="line"/>
    </contour>
    <contour>
      <point x="259.0" y="0.0" type="move" name="bottom"/>
    </contour>
    <contour>
      <point x="115.0" y="698.0" type="move" name="top"/>
    </contour>
  </outline>
</glyph>
<glyph name="i" format="1">
  <advance width="228"/>
  <unicode hex="0069"/>
  <outline>
    <contour>
      <point x="114" y="641" type="curve" smooth="yes"/>
      <point x="147" y="641"/>
      <point x="161" y="656"/>
      <point x="161" y="682" type="curve" smooth="yes"/>
      <point x="161" y="698" type="line" smooth="yes"/>
      <point x="161" y="724"/>
      <point x="147" y="739"/>
      <point x="114" y="739" type="curve" smooth="yes"/>
      <point x="81" y="739"/>
      <point x="67" y="724"/>
      <point x="67" y="698" type="curve" smooth="yes"/>
      <point x="67" y="682" type="line" smooth="yes"/>
      <point x="67" y="656"/>
      <point x="81" y="641"/>
    </contour>
    <contour>
      <point x="76" y="0" type="line" name="hr01"/>
      <point x="152" y="0" type="line"/>
      <point x="152" y="516" type="line"/>
      <point x="76" y="516" type="line"/>
    </contour>
    <contour>
      <point x="114.0" y="0.0" type="move" name="bottom"/>
    </contour>
    <contour>
      <point x="152.0" y="0.0" type="move" name="bottomright"/>
    </contour>
  </outline>
</glyph>
<glyph name="j" format="1">
  <advance width="228"/>
  <unicode hex="006A"/>
  <outline>
    <contour>
      <point x="76" y="-133" type="line"/>
      <point x="0" y="-133" type="line"/>
      <point x="0" y="-200" type="line"/>
      <point x="54" y="-200" type="line" smooth="yes"/>
      <point x="122" y="-200"/>
      <point x="152" y="-170"/>
      <point x="152" y="-102" type="curve" smooth="yes"/>
      <point x="152" y="516" type="line"/>
      <point x="76" y="516" type="line"/>
    </contour>
    <contour>
      <point x="114" y="641" type="curve" smooth="yes"/>
      <point x="147" y="641"/>
      <point x="161" y="656"/>
      <point x="161" y="682" type="curve" smooth="yes" name="hr01"/>
      <point x="161" y="698" type="line" smooth="yes"/>
      <point x="161" y="724"/>
      <point x="147" y="739"/>
      <point x="114" y="739" type="curve" smooth="yes"/>
      <point x="81" y="739"/>
      <point x="67" y="724"/>
      <point x="67" y="698" type="curve" smooth="yes"/>
      <point x="67" y="682" type="line" smooth="yes"/>
      <point x="67" y="656"/>
      <point x="81" y="641"/>
    </contour>
  </outline>
</glyph>
<glyph name="k" format="1">
  <advance width="477"/>
  <unicode hex="006B"/>
  <outline>
    <contour>
      <point x="76" y="0" type="line" name="hr00"/>
      <point x="152" y="0" type="line"/>
      <point x="152" y="186" type="line"/>
      <point x="220" y="266" type="line"/>
      <point x="371" y="0" type="line"/>
      <point x="462" y="0" type="line"/>
      <point x="276" y="311" type="line"/>
      <point x="447" y="516" type="line"/>
      <point x="355" y="516" type="line"/>
      <point x="226" y="356" type="line"/>
      <point x="154" y="259" type="line"/>
      <point x="146" y="259" type="line"/>
      <point x="152" y="360" type="line"/>
      <point x="152" y="740" type="line"/>
      <point x="76" y="740" type="line"/>
    </contour>
    <contour>
      <point x="265.0" y="0.0" type="move" name="bottom"/>
    </contour>
  </outline>
</glyph>
<glyph name="l" format="1">
  <advance width="247"/>
  <unicode hex="006C"/>
  <outline>
    <contour>
      <point x="217" y="0" type="line" name="hr00"/>
      <point x="217" y="67" type="line"/>
      <point x="152" y="67" type="line"/>
      <point x="152" y="740" type="line"/>
      <point x="76" y="740" type="line"/>
      <point x="76" y="78" type="line" smooth="yes"/>
      <point x="76" y="24"/>
      <point x="100" y="0"/>
      <point x="154" y="0" type="curve" smooth="yes"/>
    </contour>
    <contour>
      <point x="148.0" y="0.0" type="move" name="bottom"/>
    </contour>
    <contour>
      <point x="114.0" y="740.0" type="move" name="top"/>
    </contour>
    <contour>
      <point x="205.0" y="740.0" type="move" name="topright"/>
    </contour>
  </outline>
</glyph>
<glyph name="o" format="1">
  <advance width="504"/>
  <unicode hex="006F"/>
  <outline>
    <contour>
      <point x="252" y="-12" type="curve" smooth="yes" name="hr00"/>
      <point x="373" y="-12"/>
      <point x="463" y="66"/>
      <point x="463" y="258" type="curve" smooth="yes"/>
      <point x="463" y="450"/>
      <point x="373" y="528"/>
      <point x="252" y="528" type="curve" smooth="yes"/>
      <point x="131" y="528"/>
      <point x="41" y="450"/>
      <point x="41" y="258" type="curve"/>
      <point x="41" y="66"/>
      <point x="131" y="-12"/>
    </contour>
    <contour>
      <point x="252" y="56" type="curve" smooth="yes"/>
      <point x="170" y="56"/>
      <point x="123" y="105"/>
      <point x="123" y="206" type="curve" smooth="yes"/>
      <point x="123" y="310" type="line" smooth="yes"/>
      <point x="123" y="411"/>
      <point x="170" y="460"/>
      <point x="252" y="460" type="curve" smooth="yes"/>
      <point x="334" y="460"/>
      <point x="381" y="411"/>
      <point x="381" y="310" type="curve" smooth="yes"/>
      <point x="381" y="206" type="line" smooth="yes"/>
      <point x="381" y="105"/>
      <point x="334" y="56"/>
    </contour>
    <contour>
      <point x="252.0" y="0.0" type="move" name="bottom"/>
    </contour>
    <contour>
      <point x="252.0" y="540.0" type="move" name="top"/>
    </contour>
  </outline>
</glyph>
<glyph name="p" format="1">
  <advance width="524"/>
  <unicode hex="0070"/>
  <outline>
    <contour>
      <point x="76" y="-200" type="line"/>
      <point x="152" y="-200" type="line"/>
      <point x="152" y="84" type="line"/>
      <point x="162" y="84" type="line"/>
      <point x="182" y="17"/>
      <point x="228" y="-12"/>
      <point x="292" y="-12" type="curve" smooth="yes"/>
      <point x="415" y="-12"/>
      <point x="480" y="92"/>
      <point x="480" y="258" type="curve" smooth="yes"/>
      <point x="480" y="424"/>
      <point x="415" y="528"/>
      <point x="292" y="528" type="curve" smooth="yes"/>
      <point x="228" y="528"/>
      <point x="182" y="499"/>
      <point x="162" y="432" type="curve"/>
      <point x="152" y="432" type="line"/>
      <point x="152" y="516" type="line" name="hr01"/>
      <point x="76" y="516" type="line"/>
    </contour>
    <contour>
      <point x="269" y="56" type="curve" smooth="yes"/>
      <point x="205" y="56"/>
      <point x="152" y="96"/>
      <point x="152" y="154" type="curve" smooth="yes"/>
      <point x="152" y="362" type="line" smooth="yes"/>
      <point x="152" y="420"/>
      <point x="205" y="460"/>
      <point x="269" y="460" type="curve" smooth="yes" name="hr02"/>
      <point x="353" y="460"/>
      <point x="398" y="404"/>
      <point x="398" y="310" type="curve" smooth="yes"/>
      <point x="398" y="206" type="line" smooth="yes"/>
      <point x="398" y="112"/>
      <point x="353" y="56"/>
    </contour>
    <contour>
      <point x="278.0" y="540.0" type="move" name="top"/>
    </contour>
  </outline>
</glyph>
<glyph name="q" format="1">
  <advance width="524"/>
  <unicode hex="0071"/>
  <outline>
    <contour>
      <point x="372" y="-200" type="line"/>
      <point x="448" y="-200" type="line"/>
      <point x="448" y="516" type="line"/>
      <point x="372" y="516" type="line"/>
      <point x="372" y="432" type="line"/>
      <point x="362" y="432" type="line"/>
      <point x="342" y="499"/>
      <point x="296" y="528"/>
      <point x="232" y="528" type="curve" smooth="yes" name="hr01"/>
      <point x="109" y="528"/>
      <point x="44" y="424"/>
      <point x="44" y="258" type="curve" smooth="yes"/>
      <point x="44" y="92"/>
      <point x="109" y="-12"/>
      <point x="232" y="-12" type="curve" smooth="yes"/>
      <point x="296" y="-12"/>
      <point x="342" y="17"/>
      <point x="362" y="84" type="curve"/>
      <point x="372" y="84" type="line"/>
    </contour>
    <contour>
      <point x="255" y="56" type="curve" smooth="yes"/>
      <point x="171" y="56"/>
      <point x="126" y="112"/>
      <point x="126" y="206" type="curve" smooth="yes"/>
      <point x="126" y="310" type="line" smooth="yes"/>
      <point x="126" y="404"/>
      <point x="171" y="460"/>
      <point x="255" y="460" type="curve" smooth="yes"/>
      <point x="319" y="460"/>
      <point x="372" y="420"/>
      <point x="372" y="362" type="curve" smooth="yes"/>
      <point x="372" y="154" type="line" smooth="yes"/>
      <point x="372" y="96"/>
      <point x="319" y="56"/>
    </contour>
    <contour>
      <point x="247.0" y="540.0" type="move" name="top"/>
    </contour>
  </outline>
</glyph>
<glyph name="r" format="1">
  <advance width="332"/>
  <unicode hex="0072"/>
  <outline>
    <contour>
      <point x="152" y="0" type="line" name="hr00"/>
      <point x="152" y="343" type="line"/>
      <point x="152" y="406"/>
      <point x="195" y="439"/>
      <point x="267" y="439" type="curve" smooth="yes"/>
      <point x="317" y="439" type="line"/>
      <point x="317" y="516" type="line"/>
      <point x="289" y="516" type="line" smooth="yes"/>
      <point x="222" y="516"/>
      <point x="179" y="479"/>
      <point x="162" y="420" type="curve"/>
      <point x="152" y="420" type="line"/>
      <point x="152" y="516" type="line"/>
      <point x="76" y="516" type="line"/>
      <point x="76" y="0" type="line"/>
    </contour>
    <contour>
      <point x="115.0" y="0.0" type="move" name="bottom"/>
    </contour>
    <contour>
      <point x="197.0" y="540.0" type="move" name="top"/>
    </contour>
  </outline>
</glyph>
<glyph name="t" format="1">
  <advance width="318"/>
  <unicode hex="0074"/>
  <outline>
    <contour>
      <point x="273" y="0" type="line" name="hr00"/>
      <point x="273" y="67" type="line"/>
      <point x="178" y="67" type="line"/>
      <point x="178" y="449" type="line"/>
      <point x="278" y="449" type="line"/>
      <point x="278" y="516" type="line"/>
      <point x="178" y="516" type="line"/>
      <point x="178" y="658" type="line"/>
      <point x="109" y="658" type="line"/>
      <point x="109" y="562" type="line" smooth="yes"/>
      <point x="109" y="532"/>
      <point x="101" y="516"/>
      <point x="71" y="516" type="curve" smooth="yes"/>
      <point x="26" y="516" type="line"/>
      <point x="26" y="449" type="line"/>
      <point x="102" y="449" type="line"/>
      <point x="102" y="78" type="line" smooth="yes"/>
      <point x="102" y="24"/>
      <point x="126" y="0"/>
      <point x="180" y="0" type="curve" smooth="yes"/>
    </contour>
    <contour>
      <point x="193.0" y="0.0" type="move" name="bottom"/>
    </contour>
    <contour>
      <point x="231.0" y="751.0" type="move" name="topright"/>
    </contour>
  </outline>
</glyph>
<glyph name="u" format="1">
  <advance width="513"/>
  <unicode hex="0075"/>
  <outline>
    <contour>
      <point x="361" y="0" type="line"/>
      <point x="437" y="0" type="line"/>
      <point x="437" y="516" type="line"/>
      <point x="361" y="516" type="line"/>
      <point x="361" y="164" type="line" smooth="yes"/>
      <point x="361" y="97"/>
      <point x="312" y="57"/>
      <point x="251" y="57" type="curve" smooth="yes" name="hr01"/>
      <point x="181" y="57"/>
      <point x="147" y="103"/>
      <point x="147" y="185" type="curve" smooth="yes"/>
      <point x="147" y="516" type="line"/>
      <point x="71" y="516" type="line"/>
      <point x="71" y="180" type="line" smooth="yes"/>
      <point x="71" y="50"/>
      <point x="127" y="-12"/>
      <point x="219" y="-12" type="curve" smooth="yes"/>
      <point x="291" y="-12"/>
      <point x="331" y="21"/>
      <point x="351" y="84" type="curve" name="hr02"/>
      <point x="361" y="84" type="line"/>
    </contour>
    <contour>
      <point x="251.0" y="0.0" type="move" name="bottom"/>
    </contour>
    <contour>
      <point x="437.0" y="0.0" type="move" name="bottomright"/>
    </contour>
    <contour>
      <point x="255.0" y="540.0" type="move" name="top"/>
    </contour>
  </outline>
</glyph>
<glyph name="v" format="1">
  <advance width="445"/>
  <unicode hex="0076"/>
  <outline>
    <contour>
      <point x="268" y="0" type="line" name="hr00"/>
      <point x="430" y="516" type="line"/>
      <point x="356" y="516" type="line"/>
      <point x="277" y="256" type="line"/>
      <point x="229" y="67" type="line"/>
      <point x="219" y="67" type="line"/>
      <point x="171" y="256" type="line"/>
      <point x="92" y="516" type="line"/>
      <point x="16" y="516" type="line"/>
      <point x="178" y="0" type="line"/>
    </contour>
    <contour>
      <point x="223.0" y="0.0" type="move" name="bottom"/>
    </contour>
    <contour>
      <point x="223.0" y="540.0" type="move" name="top"/>
    </contour>
  </outline>
</glyph>
<glyph name="w" format="1">
  <advance width="698"/>
  <unicode hex="0077"/>
  <outline>
    <contour>
      <point x="151" y="0" type="line" name="hr00"/>
      <point x="247" y="0" type="line"/>
      <point x="310" y="250" type="line"/>
      <point x="347" y="439" type="line"/>
      <point x="357" y="439" type="line"/>
      <point x="392" y="250" type="line"/>
      <point x="455" y="0" type="line"/>
      <point x="551" y="0" type="line"/>
      <point x="675" y="516" type="line"/>
      <point x="603" y="516" type="line"/>
      <point x="553" y="292" type="line"/>
      <point x="509" y="67" type="line"/>
      <point x="499" y="67" type="line"/>
      <point x="448" y="292" type="line"/>
      <point x="396" y="516" type="line"/>
      <point x="308" y="516" type="line"/>
      <point x="256" y="292" type="line"/>
      <point x="205" y="67" type="line"/>
      <point x="195" y="67" type="line"/>
      <point x="151" y="292" type="line"/>
      <point x="101" y="516" type="line"/>
      <point x="27" y="516" type="line"/>
    </contour>
    <contour>
      <point x="352.0" y="0.0" type="move" name="bottom"/>
    </contour>
    <contour>
      <point x="352.0" y="540.0" type="move" name="top"/>
    </contour>
  </outline>
</glyph>
<glyph name="x" format="1">
  <advance width="459"/>
  <unicode hex="0078"/>
  <outline>
    <contour>
      <point x="19" y="0" type="line"/>
      <point x="102" y="0" type="line" name="hr00"/>
      <point x="227" y="202" type="line"/>
      <point x="237" y="202" type="line"/>
      <point x="356" y="0" type="line"/>
      <point x="442" y="0" type="line"/>
      <point x="275" y="266" type="line"/>
      <point x="437" y="516" type="line"/>
      <point x="354" y="516" type="line"/>
      <point x="237" y="328" type="line"/>
      <point x="227" y="328" type="line"/>
      <point x="112" y="516" type="line"/>
      <point x="26" y="516" type="line"/>
      <point x="189" y="263" type="line"/>
    </contour>
    <contour>
      <point x="230.0" y="0.0" type="move" name="bottom"/>
    </contour>
    <contour>
      <point x="230.0" y="540.0" type="move" name="top"/>
    </contour>
  </outline>
</glyph>
<glyph name="z" format="1">
  <advance width="421"/>
  <unicode hex="007A"/>
  <outline>
    <contour>
      <point x="391" y="0" type="line" name="hr00"/>
      <point x="391" y="67" type="line"/>
      <point x="120" y="67" type="line"/>
      <point x="383" y="458" type="line"/>
      <point x="383" y="516" type="line"/>
      <point x="38" y="516" type="line"/>
      <point x="38" y="449" type="line"/>
      <point x="293" y="449" type="line"/>
      <point x="30" y="58" type="line"/>
      <point x="30" y="0" type="line"/>
    </contour>
    <contour>
      <point x="210.0" y="0.0" type="move" name="bottom"/>
    </contour>
    <contour>
      <point x="210.0" y="540.0" type="move" name="top"/>
    </contour>
  </outline>
</glyph>
<glyph name="bar" format="1">
  <advance width="288"/>
  <unicode hex="007C"/>
  <outline>
    <contour>
      <point x="176" y="-138" type="line" name="hr00"/>
      <point x="176" y="760" type="line"/>
      <point x="112" y="760" type="line"/>
      <point x="112" y="-138" type="line"/>
    </contour>
  </outline>
</glyph>
<glyph name="exclamdown" format="1">
  <advance width="258"/>
  <unicode hex="00A1"/>
  <outline>
    <contour>
      <point x="171" y="-182" type="line"/>
      <point x="171" y="22" type="line"/>
      <point x="148" y="333" type="line"/>
      <point x="110" y="333" type="line"/>
      <point x="87" y="22" type="line"/>
      <point x="87" y="-182" type="line"/>
    </contour>
    <contour>
      <point x="129" y="410" type="curve" smooth="yes"/>
      <point x="168" y="410"/>
      <point x="188" y="428"/>
      <point x="188" y="461" type="curve" smooth="yes" name="hr01"/>
      <point x="188" y="477" type="line" smooth="yes"/>
      <point x="188" y="510"/>
      <point x="168" y="528"/>
      <point x="129" y="528" type="curve" smooth="yes"/>
      <point x="90" y="528"/>
      <point x="70" y="510"/>
      <point x="70" y="477" type="curve" smooth="yes"/>
      <point x="70" y="461" type="line" smooth="yes"/>
      <point x="70" y="428"/>
      <point x="90" y="410"/>
    </contour>
  </outline>
</glyph>
<glyph name="sterling" format="1">
  <advance width="535"/>
  <unicode hex="00A3"/>
  <outline>
    <contour>
      <point x="466" y="0" type="line"/>
      <point x="466" y="70" type="line"/>
      <point x="123" y="70" type="line"/>
      <point x="123" y="79" type="line"/>
      <point x="176" y="92"/>
      <point x="216" y="152"/>
      <point x="216" y="236" type="curve" smooth="yes"/>
      <point x="216" y="254"/>
      <point x="214" y="271"/>
      <point x="211" y="287" type="curve"/>
      <point x="383" y="287" type="line"/>
      <point x="383" y="352" type="line"/>
      <point x="194" y="352" type="line"/>
      <point x="183" y="393"/>
      <point x="171" y="436"/>
      <point x="171" y="492" type="curve" smooth="yes" name="hr01"/>
      <point x="171" y="601"/>
      <point x="213" y="640"/>
      <point x="292" y="640" type="curve" smooth="yes"/>
      <point x="358" y="640"/>
      <point x="395" y="612"/>
      <point x="423" y="563" type="curve"/>
      <point x="482" y="606" type="line"/>
      <point x="444" y="672"/>
      <point x="388" y="710"/>
      <point x="294" y="710" type="curve" smooth="yes"/>
      <point x="160" y="710"/>
      <point x="89" y="633"/>
      <point x="89" y="499" type="curve" smooth="yes"/>
      <point x="89" y="440"/>
      <point x="102" y="394"/>
      <point x="115" y="352" type="curve"/>
      <point x="52" y="352" type="line"/>
      <point x="52" y="287" type="line"/>
      <point x="132" y="287" type="line"/>
      <point x="136" y="270"/>
      <point x="138" y="252"/>
      <point x="138" y="233" type="curve" smooth="yes" name="hr02"/>
      <point x="138" y="156"/>
      <point x="121" y="116"/>
      <point x="73" y="92" type="curve"/>
      <point x="73" y="0" type="line"/>
    </contour>
  </outline>
</glyph>
<glyph name="currency" format="1">
  <advance width="544"/>
  <unicode hex="00A4"/>
  <outline>
    <contour>
      <point x="272" y="119" type="curve" smooth="yes" name=""/>
      <point x="307" y="119"/>
      <point x="339" y="126"/>
      <point x="366" y="139" type="curve"/>
      <point x="435" y="21" type="line"/>
      <point x="496" y="56" type="line"/>
      <point x="422" y="182" type="line"/>
      <point x="457" y="222"/>
      <point x="476" y="279"/>
      <point x="476" y="349" type="curve" smooth="yes"/>
      <point x="476" y="418"/>
      <point x="457" y="476"/>
      <point x="422" y="516" type="curve"/>
      <point x="496" y="642" type="line"/>
      <point x="435" y="677" type="line"/>
      <point x="366" y="559" type="line"/>
      <point x="339" y="572"/>
      <point x="307" y="579"/>
      <point x="272" y="579" type="curve" smooth="yes"/>
      <point x="237" y="579"/>
      <point x="205" y="572"/>
      <point x="178" y="559" type="curve"/>
      <point x="109" y="677" type="line"/>
      <point x="48" y="642" type="line"/>
      <point x="122" y="516" type="line"/>
      <point x="87" y="476"/>
      <point x="68" y="418"/>
      <point x="68" y="349" type="curve" smooth="yes"/>
      <point x="68" y="279"/>
      <point x="87" y="222"/>
      <point x="122" y="182" type="curve"/>
      <point x="48" y="56" type="line"/>
      <point x="109" y="21" type="line"/>
      <point x="178" y="139" type="line"/>
      <point x="205" y="126"/>
      <point x="237" y="119"/>
    </contour>
    <contour>
      <point x="272" y="186" type="curve" smooth="yes"/>
      <point x="201" y="186"/>
      <point x="153" y="229"/>
      <point x="153" y="317" type="curve" smooth="yes"/>
      <point x="153" y="381" type="line" smooth="yes"/>
      <point x="153" y="469"/>
      <point x="201" y="512"/>
      <point x="272" y="512" type="curve" smooth="yes"/>
      <point x="343" y="512"/>
      <point x="391" y="469"/>
      <point x="391" y="381" type="curve" smooth="yes"/>
      <point x="391" y="317" type="line" smooth="yes"/>
      <point x="391" y="229"/>
      <point x="343" y="186"/>
    </contour>
  </outline>
</glyph>
<glyph name="ordfeminine" format="1">
  <advance width="362"/>
  <unicode hex="00AA"/>
  <outline>
    <contour>
      <point x="327" y="413" type="line"/>
      <point x="293" y="413" type="line"/>
      <point x="293" y="589" type="line" smooth="yes"/>
      <point x="293" y="669"/>
      <point x="249" y="710"/>
      <point x="171" y="710" type="curve" smooth="yes"/>
      <point x="102" y="710"/>
      <point x="64" y="676"/>
      <point x="47" y="643" type="curve"/>
      <point x="86" y="610" type="line"/>
      <point x="98" y="640"/>
      <point x="125" y="660"/>
      <point x="167" y="660" type="curve" smooth="yes"/>
      <point x="214" y="660"/>
      <point x="234" y="640"/>
      <point x="234" y="586" type="curve" smooth="yes"/>
      <point x="234" y="552" type="line"/>
      <point x="171" y="552" type="line" smooth="yes"/>
      <point x="83" y="552"/>
      <point x="36" y="521"/>
      <point x="36" y="448" type="curve" smooth="yes"/>
      <point x="36" y="388"/>
      <point x="69" y="350"/>
      <point x="133" y="350" type="curve" smooth="yes" name=""/>
      <point x="180" y="350"/>
      <point x="213" y="375"/>
      <point x="226" y="413" type="curve"/>
      <point x="244" y="413" type="line"/>
      <point x="234" y="423" type="line"/>
      <point x="234" y="411" type="line" smooth="yes"/>
      <point x="234" y="374"/>
      <point x="255" y="358"/>
      <point x="290" y="358" type="curve" smooth="yes"/>
      <point x="327" y="358" type="line"/>
    </contour>
    <contour>
      <point x="234" y="507" type="line"/>
      <point x="234" y="466" type="line" smooth="yes"/>
      <point x="234" y="426"/>
      <point x="195" y="400"/>
      <point x="149" y="400" type="curve" smooth="yes" name=""/>
      <point x="113" y="400"/>
      <point x="95" y="414"/>
      <point x="95" y="445" type="curve" smooth="yes"/>
      <point x="95" y="464" type="line" smooth="yes"/>
      <point x="95" y="492"/>
      <point x="122" y="507"/>
      <point x="170" y="507" type="curve" smooth="yes"/>
    </contour>
  </outline>
</glyph>
<glyph name="logicalnot" format="1">
  <advance width="540"/>
  <unicode hex="00AC"/>
  <outline>
    <contour>
      <point x="480" y="78" type="line" name="hr00"/>
      <point x="480" y="337" type="line"/>
      <point x="60" y="337" type="line"/>
      <point x="60" y="273" type="line"/>
      <point x="408" y="273" type="line"/>
      <point x="408" y="78" type="line"/>
    </contour>
  </outline>
</glyph>
<glyph name="macron" format="1">
  <advance width="540"/>
  <unicode hex="00AF"/>
  <outline>
    <contour>
      <point x="143" y="639" type="line" name="hr00"/>
      <point x="397" y="639" type="line"/>
      <point x="397" y="703" type="line"/>
      <point x="143" y="703" type="line"/>
    </contour>
    <contour>
      <point x="270" y="540" type="move" name="_top"/>
    </contour>
  </outline>
</glyph>
<glyph name="acute" format="1">
  <advance width="540"/>
  <unicode hex="00B4"/>
  <outline>
    <contour>
      <point x="374" y="743" type="line" name="hr00"/>
      <point x="305" y="779" type="line"/>
      <point x="228" y="610" type="line"/>
      <point x="277" y="585" type="line"/>
    </contour>
    <contour>
      <point x="270" y="540" type="move" name="_top"/>
    </contour>
  </outline>
</glyph>
<glyph name="mu" format="1">
  <advance width="518"/>
  <unicode hex="00B5"/>
  <outline>
    <contour>
      <point x="151" y="-200" type="line"/>
      <point x="151" y="-41" type="line"/>
      <point x="142" y="42" type="line"/>
      <point x="150" y="42" type="line"/>
      <point x="162" y="8"/>
      <point x="201" y="-12"/>
      <point x="240" y="-12" type="curve" smooth="yes"/>
      <point x="303" y="-12"/>
      <point x="336" y="22"/>
      <point x="356" y="84" type="curve"/>
      <point x="366" y="84" type="line"/>
      <point x="366" y="0" type="line" name="hr01"/>
      <point x="442" y="0" type="line"/>
      <point x="442" y="516" type="line"/>
      <point x="366" y="516" type="line"/>
      <point x="366" y="164" type="line" smooth="yes"/>
      <point x="366" y="97"/>
      <point x="317" y="57"/>
      <point x="256" y="57" type="curve" smooth="yes" name="hr02"/>
      <point x="186" y="57"/>
      <point x="152" y="103"/>
      <point x="152" y="185" type="curve" smooth="yes"/>
      <point x="152" y="516" type="line"/>
      <point x="76" y="516" type="line"/>
      <point x="76" y="-200" type="line"/>
    </contour>
  </outline>
</glyph>
<glyph name="paragraph" format="1">
  <advance width="588"/>
  <unicode hex="00B6"/>
  <outline>
    <contour>
      <point x="221" y="-149" type="line" name="hr00"/>
      <point x="291" y="-149" type="line"/>
      <point x="291" y="633" type="line"/>
      <point x="386" y="633" type="line"/>
      <point x="386" y="-149" type="line"/>
      <point x="456" y="-149" type="line"/>
      <point x="456" y="633" type="line"/>
      <point x="516" y="633" type="line"/>
      <point x="516" y="698" type="line"/>
      <point x="221" y="698" type="line" smooth="yes"/>
      <point x="115" y="698"/>
      <point x="46" y="617"/>
      <point x="46" y="500" type="curve" smooth="yes"/>
      <point x="46" y="383"/>
      <point x="115" y="302"/>
      <point x="221" y="302" type="curve"/>
    </contour>
  </outline>
</glyph>
<glyph name="periodcentered" format="1">
  <advance width="296"/>
  <unicode hex="00B7"/>
  <outline>
    <contour>
      <point x="148" y="245" type="curve" smooth="yes" name="hr00"/>
      <point x="187" y="245"/>
      <point x="207" y="263"/>
      <point x="207" y="296" type="curve" smooth="yes"/>
      <point x="207" y="312" type="line" smooth="yes"/>
      <point x="207" y="345"/>
      <point x="187" y="363"/>
      <point x="148" y="363" type="curve" smooth="yes"/>
      <point x="109" y="363"/>
      <point x="89" y="345"/>
      <point x="89" y="312" type="curve" smooth="yes"/>
      <point x="89" y="296" type="line" smooth="yes"/>
      <point x="89" y="263"/>
      <point x="109" y="245"/>
    </contour>
  </outline>
</glyph>
<glyph name="onesuperior" format="1">
  <advance width="320"/>
  <unicode hex="00B9"/>
  <outline>
    <contour>
      <point x="291" y="329" type="line" name="hr00"/>
      <point x="291" y="377" type="line"/>
      <point x="205" y="377" type="line"/>
      <point x="205" y="698" type="line"/>
      <point x="120" y="698" type="line"/>
      <point x="30" y="608" type="line"/>
      <point x="66" y="576" type="line"/>
      <point x="139" y="650" type="line"/>
      <point x="145" y="650" type="line"/>
      <point x="145" y="377" type="line"/>
      <point x="49" y="377" type="line"/>
      <point x="49" y="329" type="line"/>
    </contour>
  </outline>
</glyph>
<glyph name="ordmasculine" format="1">
  <advance width="360"/>
  <unicode hex="00BA"/>
  <outline>
    <contour>
      <point x="180" y="350" type="curve" smooth="yes" name=""/>
      <point x="268" y="350"/>
      <point x="321" y="406"/>
      <point x="321" y="530" type="curve" smooth="yes"/>
      <point x="321" y="654"/>
      <point x="268" y="710"/>
      <point x="180" y="710" type="curve" smooth="yes"/>
      <point x="92" y="710"/>
      <point x="39" y="654"/>
      <point x="39" y="530" type="curve" smooth="yes"/>
      <point x="39" y="406"/>
      <point x="92" y="350"/>
    </contour>
    <contour>
      <point x="180" y="400" type="curve" smooth="yes"/>
      <point x="128" y="400"/>
      <point x="103" y="431"/>
      <point x="103" y="489" type="curve" smooth="yes"/>
      <point x="103" y="571" type="line" smooth="yes"/>
      <point x="103" y="629"/>
      <point x="128" y="660"/>
      <point x="180" y="660" type="curve" smooth="yes"/>
      <point x="232" y="660"/>
      <point x="257" y="629"/>
      <point x="257" y="571" type="curve" smooth="yes"/>
      <point x="257" y="489" type="line" smooth="yes"/>
      <point x="257" y="431"/>
      <point x="232" y="400"/>
    </contour>
  </outline>
</glyph>
<glyph name="AE" format="1">
  <advance width="820"/>
  <unicode hex="00C6"/>
  <outline>
    <contour>
      <point x="377" y="0" type="line" name="hr00"/>
      <point x="763" y="0" type="line"/>
      <point x="763" y="70" type="line"/>
      <point x="457" y="70" type="line"/>
      <point x="457" y="318" type="line"/>
      <point x="744" y="318" type="line"/>
      <point x="744" y="388" type="line"/>
      <point x="457" y="388" type="line"/>
      <point x="457" y="628" type="line"/>
      <point x="763" y="628" type="line"/>
      <point x="763" y="698" type="line"/>
      <point x="323" y="698" type="line"/>
      <point x="3" y="0" type="line"/>
      <point x="85" y="0" type="line"/>
      <point x="177" y="208" type="line"/>
      <point x="377" y="208" type="line"/>
    </contour>
    <contour>
      <point x="377" y="628" type="line"/>
      <point x="377" y="274" type="line"/>
      <point x="207" y="274" type="line"/>
      <point x="364" y="628" type="line"/>
    </contour>
    <contour>
      <point x="531" y="698" type="move" name="top"/>
    </contour>
  </outline>
</glyph>
<glyph name="Eth" format="1">
  <advance width="610"/>
  <unicode hex="00D0"/>
  <outline>
    <component base="Dcroat"/>
    <contour>
      <point x="280.0" y="0.0" type="move" name="bottom"/>
    </contour>
    <contour>
      <point x="280.0" y="698.0" type="move" name="top"/>
    </contour>
  </outline>
</glyph>
<glyph name="multiply" format="1">
  <advance width="540"/>
  <unicode hex="00D7"/>
  <outline>
    <contour>
      <point x="415" y="115" type="line" name="hr00"/>
      <point x="460" y="160" type="line"/>
      <point x="315" y="305" type="line"/>
      <point x="460" y="450" type="line"/>
      <point x="415" y="495" type="line"/>
      <point x="270" y="350" type="line"/>
      <point x="125" y="495" type="line"/>
      <point x="80" y="450" type="line"/>
      <point x="225" y="305" type="line"/>
      <point x="80" y="160" type="line"/>
      <point x="125" y="115" type="line"/>
      <point x="270" y="260" type="line"/>
    </contour>
  </outline>
</glyph>
<glyph name="Oslash" format="1">
  <advance width="638"/>
  <unicode hex="00D8"/>
  <outline>
    <contour>
      <point x="319" y="-12" type="curve" smooth="yes" name="hr00"/>
      <point x="488" y="-12"/>
      <point x="586" y="100"/>
      <point x="586" y="349" type="curve" smooth="yes"/>
      <point x="586" y="467"/>
      <point x="564" y="555"/>
      <point x="523" y="614" type="curve"/>
      <point x="580" y="706" type="line"/>
      <point x="527" y="742" type="line"/>
      <point x="477" y="662" type="line"/>
      <point x="435" y="694"/>
      <point x="382" y="710"/>
      <point x="319" y="710" type="curve" smooth="yes"/>
      <point x="150" y="710"/>
      <point x="52" y="598"/>
      <point x="52" y="349" type="curve" smooth="yes"/>
      <point x="52" y="231"/>
      <point x="74" y="143"/>
      <point x="115" y="84" type="curve"/>
      <point x="58" y="-8" type="line"/>
      <point x="111" y="-44" type="line"/>
      <point x="161" y="36" type="line"/>
      <point x="203" y="4"/>
      <point x="256" y="-12"/>
    </contour>
    <contour>
      <point x="319" y="639" type="curve" smooth="yes"/>
      <point x="368" y="639"/>
      <point x="408" y="624"/>
      <point x="438" y="596" type="curve"/>
      <point x="319" y="410" type="line"/>
      <point x="163" y="151" type="line"/>
      <point x="152" y="151" type="line"/>
      <point x="147" y="170"/>
      <point x="138" y="211"/>
      <point x="138" y="241" type="curve"/>
      <point x="138" y="427" type="line" smooth="yes"/>
      <point x="138" y="556"/>
      <point x="204" y="639"/>
    </contour>
    <contour>
      <point x="319" y="59" type="curve" smooth="yes"/>
      <point x="270" y="59"/>
      <point x="230" y="74"/>
      <point x="200" y="102" type="curve"/>
      <point x="319" y="288" type="line"/>
      <point x="475" y="547" type="line"/>
      <point x="486" y="547" type="line"/>
      <point x="491" y="528"/>
      <point x="500" y="487"/>
      <point x="500" y="457" type="curve"/>
      <point x="500" y="271" type="line" smooth="yes"/>
      <point x="500" y="142"/>
      <point x="434" y="59"/>
    </contour>
    <contour>
      <point x="319.0" y="698.0" type="move" name="top"/>
    </contour>
  </outline>
</glyph>
<glyph name="oslash" format="1">
  <advance width="504"/>
  <unicode hex="00F8"/>
  <outline>
    <contour>
      <point x="69" y="-36" type="line"/>
      <point x="120" y="33" type="line"/>
      <point x="155" y="2"/>
      <point x="201" y="-12"/>
      <point x="252" y="-12" type="curve" smooth="yes" name="hr00"/>
      <point x="373" y="-12"/>
      <point x="463" y="66"/>
      <point x="463" y="258" type="curve" smooth="yes"/>
      <point x="463" y="338"/>
      <point x="448" y="398"/>
      <point x="421" y="441" type="curve"/>
      <point x="479" y="520" type="line"/>
      <point x="435" y="552" type="line"/>
      <point x="384" y="483" type="line"/>
      <point x="349" y="514"/>
      <point x="303" y="528"/>
      <point x="252" y="528" type="curve" smooth="yes"/>
      <point x="131" y="528"/>
      <point x="41" y="450"/>
      <point x="41" y="258" type="curve" smooth="yes"/>
      <point x="41" y="178"/>
      <point x="56" y="118"/>
      <point x="83" y="75" type="curve"/>
      <point x="25" y="-4" type="line"/>
    </contour>
    <contour>
      <point x="252" y="56" type="curve" smooth="yes"/>
      <point x="213" y="56"/>
      <point x="181" y="68"/>
      <point x="160" y="89" type="curve"/>
      <point x="318" y="304" type="line"/>
      <point x="374" y="385" type="line"/>
      <point x="383" y="385" type="line"/>
      <point x="382" y="347"/>
      <point x="382" y="339"/>
      <point x="381" y="301" type="curve"/>
      <point x="381" y="206" type="line" smooth="yes"/>
      <point x="381" y="105"/>
      <point x="334" y="56"/>
    </contour>
    <contour>
      <point x="252" y="460" type="curve" smooth="yes"/>
      <point x="291" y="460"/>
      <point x="323" y="448"/>
      <point x="344" y="427" type="curve"/>
      <point x="186" y="212" type="line"/>
      <point x="130" y="131" type="line"/>
      <point x="121" y="131" type="line"/>
      <point x="122" y="171"/>
      <point x="122" y="175"/>
      <point x="123" y="215" type="curve"/>
      <point x="123" y="310" type="line" smooth="yes"/>
      <point x="123" y="411"/>
      <point x="170" y="460"/>
    </contour>
    <contour>
      <point x="252.0" y="540.0" type="move" name="top"/>
    </contour>
  </outline>
</glyph>
<glyph name="aogonek" format="1">
  <advance width="483"/>
  <unicode hex="0105"/>
  <outline>
    <contour>
      <point x="456" y="67" type="line"/>
      <point x="404" y="67" type="line" name=""/>
      <point x="404" y="359" type="line" smooth="yes"/>
      <point x="404" y="469"/>
      <point x="341" y="527"/>
      <point x="225" y="527" type="curve" smooth="yes"/>
      <point x="146" y="527"/>
      <point x="84" y="483"/>
      <point x="57" y="428" type="curve"/>
      <point x="102" y="386" type="line"/>
      <point x="128" y="435"/>
      <point x="163" y="462"/>
      <point x="222" y="462" type="curve" smooth="yes"/>
      <point x="295" y="462"/>
      <point x="328" y="427"/>
      <point x="328" y="351" type="curve" smooth="yes"/>
      <point x="328" y="294" type="line"/>
      <point x="235" y="294" type="line" smooth="yes"/>
      <point x="101" y="294"/>
      <point x="39" y="234"/>
      <point x="39" y="138" type="curve" smooth="yes"/>
      <point x="39" y="40"/>
      <point x="88" y="-12"/>
      <point x="188" y="-12" type="curve" smooth="yes" name=""/>
      <point x="251" y="-12"/>
      <point x="301" y="22"/>
      <point x="318" y="84" type="curve"/>
      <point x="338" y="84" type="line"/>
      <point x="328" y="94" type="line"/>
      <point x="328" y="74" type="line" smooth="yes"/>
      <point x="328" y="26"/>
      <point x="354" y="0"/>
      <point x="402" y="0" type="curve" smooth="yes"/>
      <point x="432" y="0" type="line" name=""/>
      <point x="387" y="26" type="line"/>
      <point x="407" y="-9" type="line"/>
      <point x="346" y="-41"/>
      <point x="297" y="-82"/>
      <point x="297" y="-138" type="curve" smooth="yes"/>
      <point x="297" y="-185"/>
      <point x="338" y="-207"/>
      <point x="392" y="-207" type="curve" smooth="yes"/>
      <point x="431" y="-207"/>
      <point x="463" y="-188"/>
      <point x="476" y="-168" type="curve"/>
      <point x="441" y="-132" type="line"/>
      <point x="430" y="-147"/>
      <point x="415" y="-154"/>
      <point x="396" y="-154" type="curve" smooth="yes"/>
      <point x="376" y="-154"/>
      <point x="360" y="-144"/>
      <point x="360" y="-120" type="curve" smooth="yes"/>
      <point x="360" y="-81"/>
      <point x="386" y="-51"/>
      <point x="456" y="0" type="curve"/>
    </contour>
    <contour>
      <point x="328" y="236" type="line"/>
      <point x="328" y="158" type="line" smooth="yes"/>
      <point x="328" y="105"/>
      <point x="277" y="54"/>
      <point x="207" y="54" type="curve" smooth="yes" name=""/>
      <point x="153" y="54"/>
      <point x="118" y="78"/>
      <point x="118" y="130" type="curve" smooth="yes"/>
      <point x="118" y="158" type="line" smooth="yes"/>
      <point x="118" y="208"/>
      <point x="153" y="236"/>
      <point x="233" y="236" type="curve" smooth="yes"/>
    </contour>
    <contour>
      <point x="228.0" y="540.0" type="move" name="top"/>
    </contour>
  </outline>
</glyph>
<glyph name="Dcroat" format="1">
  <advance width="610"/>
  <unicode hex="0110"/>
  <outline>
    <contour>
      <point x="86" y="0" type="line" name="hr00"/>
      <point x="305" y="0" type="line" smooth="yes"/>
      <point x="466" y="0"/>
      <point x="558" y="106"/>
      <point x="558" y="349" type="curve" smooth="yes"/>
      <point x="558" y="592"/>
      <point x="466" y="698"/>
      <point x="305" y="698" type="curve" smooth="yes"/>
      <point x="86" y="698" type="line"/>
      <point x="86" y="396" type="line"/>
      <point x="22" y="396" type="line"/>
      <point x="22" y="336" type="line"/>
      <point x="86" y="336" type="line"/>
    </contour>
    <contour>
      <point x="166" y="70" type="line"/>
      <point x="166" y="336" type="line"/>
      <point x="290" y="336" type="line"/>
      <point x="290" y="396" type="line"/>
      <point x="166" y="396" type="line"/>
      <point x="166" y="628" type="line"/>
      <point x="305" y="628" type="line" smooth="yes"/>
      <point x="405" y="628"/>
      <point x="472" y="556"/>
      <point x="472" y="427" type="curve" smooth="yes"/>
      <point x="472" y="271" type="line" smooth="yes"/>
      <point x="472" y="142"/>
      <point x="405" y="70"/>
      <point x="305" y="70" type="curve" smooth="yes"/>
    </contour>
  </outline>
</glyph>
<glyph name="dcroat" format="1">
  <advance width="524"/>
  <unicode hex="0111"/>
  <outline>
    <contour>
      <point x="372" y="0" type="line"/>
      <point x="448" y="0" type="line"/>
      <point x="448" y="614" type="line"/>
      <point x="508" y="614" type="line"/>
      <point x="508" y="670" type="line"/>
      <point x="448" y="670" type="line"/>
      <point x="448" y="740" type="line"/>
      <point x="372" y="740" type="line"/>
      <point x="372" y="670" type="line"/>
      <point x="237" y="670" type="line"/>
      <point x="237" y="614" type="line"/>
      <point x="372" y="614" type="line"/>
      <point x="372" y="432" type="line"/>
      <point x="362" y="432" type="line"/>
      <point x="342" y="499"/>
      <point x="296" y="528"/>
      <point x="232" y="528" type="curve" smooth="yes"/>
      <point x="109" y="528"/>
      <point x="44" y="424"/>
      <point x="44" y="258" type="curve" smooth="yes"/>
      <point x="44" y="92"/>
      <point x="109" y="-12"/>
      <point x="232" y="-12" type="curve" smooth="yes" name="hr01"/>
      <point x="296" y="-12"/>
      <point x="342" y="17"/>
      <point x="362" y="84" type="curve" name="hr02"/>
      <point x="372" y="84" type="line"/>
    </contour>
    <contour>
      <point x="255" y="56" type="curve" smooth="yes" name="hr03"/>
      <point x="171" y="56"/>
      <point x="126" y="112"/>
      <point x="126" y="206" type="curve" smooth="yes"/>
      <point x="126" y="310" type="line" smooth="yes"/>
      <point x="126" y="404"/>
      <point x="171" y="460"/>
      <point x="255" y="460" type="curve" smooth="yes"/>
      <point x="319" y="460"/>
      <point x="372" y="420"/>
      <point x="372" y="362" type="curve" smooth="yes"/>
      <point x="372" y="154" type="line" smooth="yes"/>
      <point x="372" y="96"/>
      <point x="319" y="56"/>
    </contour>
  </outline>
</glyph>
<glyph name="Hbar" format="1">
  <advance width="644"/>
  <unicode hex="0126"/>
  <outline>
    <contour>
      <point x="477" y="0" type="line" name="hr00"/>
      <point x="558" y="0" type="line"/>
      <point x="558" y="519" type="line"/>
      <point x="622" y="519" type="line"/>
      <point x="622" y="579" type="line"/>
      <point x="558" y="579" type="line"/>
      <point x="558" y="698" type="line"/>
      <point x="477" y="698" type="line"/>
      <point x="477" y="579" type="line"/>
      <point x="166" y="579" type="line"/>
      <point x="166" y="698" type="line"/>
      <point x="86" y="698" type="line"/>
      <point x="86" y="579" type="line"/>
      <point x="22" y="579" type="line"/>
      <point x="22" y="519" type="line"/>
      <point x="86" y="519" type="line"/>
      <point x="86" y="0" type="line"/>
      <point x="166" y="0" type="line"/>
      <point x="166" y="318" type="line"/>
      <point x="477" y="318" type="line"/>
    </contour>
    <contour>
      <point x="166" y="388" type="line"/>
      <point x="166" y="519" type="line"/>
      <point x="477" y="519" type="line"/>
      <point x="477" y="388" type="line"/>
    </contour>
  </outline>
</glyph>
<glyph name="hbar" format="1">
  <advance width="513"/>
  <unicode hex="0127"/>
  <outline>
    <contour>
      <point x="152" y="0" type="line" name="hr00"/>
      <point x="152" y="352" type="line" smooth="yes"/>
      <point x="152" y="419"/>
      <point x="201" y="459"/>
      <point x="262" y="459" type="curve" smooth="yes"/>
      <point x="332" y="459"/>
      <point x="366" y="413"/>
      <point x="366" y="331" type="curve" smooth="yes"/>
      <point x="366" y="0" type="line"/>
      <point x="442" y="0" type="line"/>
      <point x="442" y="336" type="line" smooth="yes"/>
      <point x="442" y="466"/>
      <point x="386" y="528"/>
      <point x="294" y="528" type="curve" smooth="yes"/>
      <point x="222" y="528"/>
      <point x="182" y="495"/>
      <point x="162" y="432" type="curve"/>
      <point x="152" y="432" type="line"/>
      <point x="152" y="614" type="line"/>
      <point x="287" y="614" type="line"/>
      <point x="287" y="670" type="line"/>
      <point x="152" y="670" type="line"/>
      <point x="152" y="740" type="line"/>
      <point x="76" y="740" type="line"/>
      <point x="76" y="670" type="line"/>
      <point x="16" y="670" type="line"/>
      <point x="16" y="614" type="line"/>
      <point x="76" y="614" type="line"/>
      <point x="76" y="0" type="line"/>
    </contour>
  </outline>
</glyph>
<glyph name="Iogonek" format="1">
  <advance width="362"/>
  <unicode hex="012E"/>
  <outline>
    <contour>
      <point x="53" y="0" type="line"/>
      <point x="258" y="0" type="line"/>
      <point x="260" y="-9" type="line"/>
      <point x="186" y="-48"/>
      <point x="150" y="-90"/>
      <point x="150" y="-138" type="curve" smooth="yes"/>
      <point x="150" y="-181"/>
      <point x="186" y="-207"/>
      <point x="245" y="-207" type="curve" smooth="yes"/>
      <point x="284" y="-207"/>
      <point x="316" y="-188"/>
      <point x="329" y="-168" type="curve"/>
      <point x="294" y="-132" type="line"/>
      <point x="283" y="-147"/>
      <point x="268" y="-154"/>
      <point x="249" y="-154" type="curve" smooth="yes"/>
      <point x="226" y="-154"/>
      <point x="213" y="-141"/>
      <point x="213" y="-120" type="curve" smooth="yes"/>
      <point x="213" y="-82"/>
      <point x="237" y="-53"/>
      <point x="309" y="0" type="curve"/>
      <point x="309" y="66" type="line"/>
      <point x="221" y="66" type="line" name="hr01"/>
      <point x="221" y="632" type="line"/>
      <point x="309" y="632" type="line"/>
      <point x="309" y="698" type="line"/>
      <point x="53" y="698" type="line"/>
      <point x="53" y="632" type="line"/>
      <point x="141" y="632" type="line"/>
      <point x="141" y="66" type="line"/>
      <point x="53" y="66" type="line"/>
    </contour>
  </outline>
</glyph>
<glyph name="iogonek" format="1">
  <advance width="228"/>
  <unicode hex="012F"/>
  <outline>
    <contour>
      <point x="76" y="516" type="line"/>
      <point x="76" y="0" type="line"/>
      <point x="101" y="0" type="line"/>
      <point x="103" y="-9" type="line"/>
      <point x="29" y="-48"/>
      <point x="-7" y="-90"/>
      <point x="-7" y="-138" type="curve" smooth="yes"/>
      <point x="-7" y="-181"/>
      <point x="29" y="-207"/>
      <point x="88" y="-207" type="curve" smooth="yes"/>
      <point x="127" y="-207"/>
      <point x="159" y="-188"/>
      <point x="172" y="-168" type="curve"/>
      <point x="137" y="-132" type="line"/>
      <point x="126" y="-147"/>
      <point x="111" y="-154"/>
      <point x="92" y="-154" type="curve" smooth="yes"/>
      <point x="69" y="-154"/>
      <point x="56" y="-141"/>
      <point x="56" y="-120" type="curve" smooth="yes"/>
      <point x="56" y="-82"/>
      <point x="80" y="-53"/>
      <point x="152" y="0" type="curve" name="hr01"/>
      <point x="152" y="516" type="line"/>
    </contour>
    <contour>
      <point x="114" y="641" type="curve" smooth="yes"/>
      <point x="147" y="641"/>
      <point x="161" y="656"/>
      <point x="161" y="682" type="curve" smooth="yes"/>
      <point x="161" y="698" type="line" smooth="yes"/>
      <point x="161" y="724"/>
      <point x="147" y="739"/>
      <point x="114" y="739" type="curve" smooth="yes"/>
      <point x="81" y="739"/>
      <point x="67" y="724"/>
      <point x="67" y="698" type="curve" smooth="yes"/>
      <point x="67" y="682" type="line" smooth="yes"/>
      <point x="67" y="656"/>
      <point x="81" y="641"/>
    </contour>
  </outline>
</glyph>
<glyph name="dotlessi" format="1">
  <advance width="228"/>
  <unicode hex="0131"/>
  <outline>
    <contour>
      <point x="152" y="0" type="line" name="hr00"/>
      <point x="152" y="516" type="line"/>
      <point x="76" y="516" type="line"/>
      <point x="76" y="0" type="line"/>
    </contour>
    <contour>
      <point x="114" y="540" type="move" name="top"/>
    </contour>
  </outline>
</glyph>
<glyph name="kgreenlandic" format="1">
  <advance width="477"/>
  <unicode hex="0138"/>
  <outline>
    <contour>
      <point x="371" y="0" type="line" name="hr00"/>
      <point x="462" y="0" type="line"/>
      <point x="276" y="311" type="line"/>
      <point x="447" y="516" type="line"/>
      <point x="355" y="516" type="line"/>
      <point x="226" y="356" type="line"/>
      <point x="154" y="259" type="line"/>
      <point x="146" y="259" type="line"/>
      <point x="152" y="360" type="line"/>
      <point x="152" y="516" type="line"/>
      <point x="76" y="516" type="line"/>
      <point x="76" y="0" type="line"/>
      <point x="152" y="0" type="line"/>
      <point x="152" y="186" type="line"/>
      <point x="220" y="266" type="line"/>
    </contour>
  </outline>
</glyph>
<glyph name="Lslash" format="1">
  <advance width="461"/>
  <unicode hex="0141"/>
  <outline>
    <contour>
      <point x="436" y="70" type="line" name="hr00"/>
      <point x="171" y="70" type="line"/>
      <point x="171" y="300" type="line"/>
      <point x="331" y="358" type="line"/>
      <point x="331" y="426" type="line"/>
      <point x="171" y="366" type="line"/>
      <point x="171" y="698" type="line"/>
      <point x="91" y="698" type="line"/>
      <point x="91" y="336" type="line"/>
      <point x="1" y="302" type="line"/>
      <point x="1" y="239" type="line"/>
      <point x="91" y="271" type="line"/>
      <point x="91" y="0" type="line"/>
      <point x="436" y="0" type="line"/>
    </contour>
  </outline>
</glyph>
<glyph name="lslash" format="1">
  <advance width="252"/>
  <unicode hex="0142"/>
  <outline>
    <contour>
      <point x="217" y="67" type="line" name="hr00"/>
      <point x="152" y="67" type="line"/>
      <point x="152" y="353" type="line"/>
      <point x="237" y="384" type="line"/>
      <point x="237" y="449" type="line"/>
      <point x="152" y="418" type="line"/>
      <point x="152" y="740" type="line"/>
      <point x="76" y="740" type="line"/>
      <point x="76" y="391" type="line"/>
      <point x="16" y="369" type="line"/>
      <point x="16" y="304" type="line"/>
      <point x="76" y="326" type="line"/>
      <point x="76" y="78" type="line" smooth="yes"/>
      <point x="76" y="24"/>
      <point x="100" y="0"/>
      <point x="154" y="0" type="curve" smooth="yes"/>
      <point x="217" y="0" type="line"/>
    </contour>
  </outline>
</glyph>
<glyph name="Eng" format="1">
  <advance width="637"/>
  <unicode hex="014A"/>
  <outline>
    <contour>
      <point x="161" y="0" type="line" name="hr00"/>
      <point x="161" y="453" type="line"/>
      <point x="154" y="597" type="line"/>
      <point x="164" y="597" type="line"/>
      <point x="225" y="453" type="line"/>
      <point x="457" y="0" type="line"/>
      <point x="477" y="0" type="line"/>
      <point x="477" y="-132" type="line"/>
      <point x="403" y="-132" type="line"/>
      <point x="403" y="-200" type="line"/>
      <point x="457" y="-200" type="line" smooth="yes"/>
      <point x="525" y="-200"/>
      <point x="555" y="-170"/>
      <point x="555" y="-102" type="curve" smooth="yes"/>
      <point x="555" y="698" type="line"/>
      <point x="477" y="698" type="line"/>
      <point x="477" y="245" type="line"/>
      <point x="484" y="101" type="line"/>
      <point x="474" y="101" type="line"/>
      <point x="413" y="245" type="line"/>
      <point x="181" y="698" type="line"/>
      <point x="83" y="698" type="line"/>
      <point x="83" y="0" type="line"/>
    </contour>
  </outline>
</glyph>
<glyph name="eng" format="1">
  <advance width="513"/>
  <unicode hex="014B"/>
  <outline>
    <contour>
      <point x="290" y="-200" type="line"/>
      <point x="344" y="-200" type="line" smooth="yes"/>
      <point x="412" y="-200"/>
      <point x="442" y="-170"/>
      <point x="442" y="-102" type="curve" smooth="yes"/>
      <point x="442" y="336" type="line" smooth="yes"/>
      <point x="442" y="466"/>
      <point x="386" y="528"/>
      <point x="294" y="528" type="curve" smooth="yes"/>
      <point x="222" y="528"/>
      <point x="182" y="495"/>
      <point x="162" y="432" type="curve"/>
      <point x="152" y="432" type="line"/>
      <point x="152" y="516" type="line" name="hr01"/>
      <point x="76" y="516" type="line"/>
      <point x="76" y="0" type="line"/>
      <point x="152" y="0" type="line"/>
      <point x="152" y="352" type="line" smooth="yes"/>
      <point x="152" y="419"/>
      <point x="201" y="459"/>
      <point x="262" y="459" type="curve" smooth="yes" name="hr02"/>
      <point x="332" y="459"/>
      <point x="366" y="413"/>
      <point x="366" y="331" type="curve" smooth="yes"/>
      <point x="366" y="-133" type="line"/>
      <point x="290" y="-133" type="line"/>
    </contour>
  </outline>
</glyph>
<glyph name="Scedilla" format="1">
  <advance width="525"/>
  <unicode hex="015E"/>
  <outline>
    <contour>
      <point x="265" y="641" type="curve" smooth="yes" name="hr00"/>
      <point x="340" y="641"/>
      <point x="382" y="612"/>
      <point x="418" y="556" type="curve"/>
      <point x="477" y="598" type="line"/>
      <point x="428" y="675"/>
      <point x="365" y="710"/>
      <point x="268" y="710" type="curve" smooth="yes"/>
      <point x="140" y="710"/>
      <point x="56" y="646"/>
      <point x="56" y="522" type="curve" smooth="yes"/>
      <point x="56" y="414"/>
      <point x="113" y="359"/>
      <point x="235" y="329" type="curve" smooth="yes"/>
      <point x="287" y="316" type="line" smooth="yes"/>
      <point x="373" y="295"/>
      <point x="403" y="262"/>
      <point x="403" y="190" type="curve" smooth="yes"/>
      <point x="403" y="102"/>
      <point x="354" y="57"/>
      <point x="261" y="57" type="curve" smooth="yes"/>
      <point x="189" y="57"/>
      <point x="137" y="93"/>
      <point x="95" y="155" type="curve"/>
      <point x="37" y="107" type="line"/>
      <point x="82" y="40"/>
      <point x="148" y="-4"/>
      <point x="235" y="-11" type="curve"/>
      <point x="221" y="-87" type="line"/>
      <point x="270" y="-87" type="line" smooth="yes"/>
      <point x="298" y="-87"/>
      <point x="312" y="-97"/>
      <point x="312" y="-121" type="curve" smooth="yes"/>
      <point x="312" y="-145"/>
      <point x="298" y="-155"/>
      <point x="270" y="-155" type="curve" smooth="yes"/>
      <point x="243" y="-155"/>
      <point x="226" y="-141"/>
      <point x="213" y="-127" type="curve"/>
      <point x="178" y="-166" type="line"/>
      <point x="192" y="-184"/>
      <point x="220" y="-207"/>
      <point x="270" y="-207" type="curve" smooth="yes"/>
      <point x="324" y="-207"/>
      <point x="372" y="-180"/>
      <point x="372" y="-124" type="curve" smooth="yes"/>
      <point x="372" y="-79"/>
      <point x="351" y="-54"/>
      <point x="314" y="-54" type="curve" smooth="yes"/>
      <point x="294" y="-54"/>
      <point x="285" y="-61"/>
      <point x="278" y="-70" type="curve"/>
      <point x="270" y="-70" type="line"/>
      <point x="281" y="-11" type="line"/>
      <point x="405" y="-5"/>
      <point x="481" y="66"/>
      <point x="481" y="190" type="curve" smooth="yes"/>
      <point x="481" y="305"/>
      <point x="432" y="359"/>
      <point x="302" y="391" type="curve" smooth="yes"/>
      <point x="250" y="404" type="line" smooth="yes"/>
      <point x="169" y="424"/>
      <point x="134" y="455"/>
      <point x="134" y="522" type="curve" smooth="yes"/>
      <point x="134" y="606"/>
      <point x="180" y="641"/>
    </contour>
  </outline>
</glyph>
<glyph name="tcedilla" format="1">
  <advance width="318"/>
  <unicode hex="0163"/>
  <outline>
    <contour>
      <point x="203" y="-207" type="curve" smooth="yes" name=""/>
      <point x="257" y="-207"/>
      <point x="305" y="-180"/>
      <point x="305" y="-124" type="curve" smooth="yes"/>
      <point x="305" y="-79"/>
      <point x="284" y="-54"/>
      <point x="247" y="-54" type="curve" smooth="yes"/>
      <point x="227" y="-54"/>
      <point x="218" y="-61"/>
      <point x="211" y="-70" type="curve"/>
      <point x="203" y="-70" type="line"/>
      <point x="216" y="0" type="line"/>
      <point x="273" y="0" type="line"/>
      <point x="273" y="67" type="line"/>
      <point x="178" y="67" type="line"/>
      <point x="178" y="449" type="line"/>
      <point x="278" y="449" type="line"/>
      <point x="278" y="516" type="line"/>
      <point x="178" y="516" type="line"/>
      <point x="178" y="658" type="line"/>
      <point x="109" y="658" type="line"/>
      <point x="109" y="562" type="line" smooth="yes"/>
      <point x="109" y="532"/>
      <point x="101" y="516"/>
      <point x="71" y="516" type="curve" smooth="yes"/>
      <point x="26" y="516" type="line"/>
      <point x="26" y="449" type="line"/>
      <point x="102" y="449" type="line"/>
      <point x="102" y="78" type="line"/>
      <point x="102" y="24"/>
      <point x="126" y="0"/>
      <point x="180" y="0" type="curve" smooth="yes"/>
      <point x="189" y="0" type="line" name=""/>
      <point x="176" y="32" type="line"/>
      <point x="154" y="-87" type="line"/>
      <point x="203" y="-87" type="line" smooth="yes"/>
      <point x="231" y="-87"/>
      <point x="245" y="-97"/>
      <point x="245" y="-121" type="curve" smooth="yes"/>
      <point x="245" y="-145"/>
      <point x="231" y="-155"/>
      <point x="203" y="-155" type="curve" smooth="yes"/>
      <point x="176" y="-155"/>
      <point x="159" y="-141"/>
      <point x="146" y="-127" type="curve"/>
      <point x="111" y="-166" type="line"/>
      <point x="125" y="-184"/>
      <point x="153" y="-207"/>
    </contour>
  </outline>
</glyph>
<glyph name="Tbar" format="1">
  <advance width="516"/>
  <unicode hex="0166"/>
  <outline>
    <contour>
      <point x="442" y="342" type="line" name="hr00"/>
      <point x="442" y="402" type="line"/>
      <point x="298" y="402" type="line"/>
      <point x="298" y="628" type="line"/>
      <point x="495" y="628" type="line"/>
      <point x="495" y="698" type="line"/>
      <point x="21" y="698" type="line"/>
      <point x="21" y="628" type="line"/>
      <point x="218" y="628" type="line"/>
      <point x="218" y="402" type="line"/>
      <point x="74" y="402" type="line"/>
      <point x="74" y="342" type="line"/>
      <point x="218" y="342" type="line"/>
      <point x="218" y="0" type="line"/>
      <point x="298" y="0" type="line"/>
      <point x="298" y="342" type="line"/>
    </contour>
  </outline>
</glyph>
<glyph name="uogonek" format="1">
  <advance width="513"/>
  <unicode hex="0173"/>
  <outline>
    <contour>
      <point x="437" y="516" type="line"/>
      <point x="361" y="516" type="line"/>
      <point x="361" y="164" type="line" smooth="yes"/>
      <point x="361" y="97"/>
      <point x="312" y="57"/>
      <point x="251" y="57" type="curve" smooth="yes" name=""/>
      <point x="181" y="57"/>
      <point x="147" y="103"/>
      <point x="147" y="185" type="curve" smooth="yes"/>
      <point x="147" y="516" type="line"/>
      <point x="71" y="516" type="line"/>
      <point x="71" y="180" type="line" smooth="yes"/>
      <point x="71" y="50"/>
      <point x="127" y="-12"/>
      <point x="219" y="-12" type="curve" smooth="yes"/>
      <point x="291" y="-12"/>
      <point x="331" y="21"/>
      <point x="351" y="84" type="curve"/>
      <point x="361" y="84" type="line"/>
      <point x="361" y="0" type="line" name=""/>
      <point x="388" y="0" type="line"/>
      <point x="388" y="-9" type="line"/>
      <point x="327" y="-41"/>
      <point x="278" y="-82"/>
      <point x="278" y="-138" type="curve" smooth="yes"/>
      <point x="278" y="-185"/>
      <point x="319" y="-207"/>
      <point x="373" y="-207" type="curve" smooth="yes"/>
      <point x="412" y="-207"/>
      <point x="444" y="-188"/>
      <point x="457" y="-168" type="curve"/>
      <point x="422" y="-132" type="line"/>
      <point x="411" y="-147"/>
      <point x="396" y="-154"/>
      <point x="377" y="-154" type="curve" smooth="yes"/>
      <point x="357" y="-154"/>
      <point x="341" y="-144"/>
      <point x="341" y="-120" type="curve" smooth="yes"/>
      <point x="341" y="-81"/>
      <point x="367" y="-51"/>
      <point x="437" y="0" type="curve"/>
    </contour>
    <contour>
      <point x="255.0" y="540.0" type="move" name="top"/>
    </contour>
  </outline>
</glyph>
<glyph name="longs" format="1">
  <advance width="253"/>
  <unicode hex="017F"/>
  <outline>
    <contour>
      <point x="101" y="0" type="line" name=""/>
      <point x="177" y="0" type="line"/>
      <point x="177" y="673" type="line"/>
      <point x="276" y="673" type="line"/>
      <point x="276" y="740" type="line"/>
      <point x="199" y="740" type="line" smooth="yes"/>
      <point x="131" y="740"/>
      <point x="101" y="710"/>
      <point x="101" y="642" type="curve" smooth="yes"/>
      <point x="101" y="516" type="line"/>
      <point x="26" y="516" type="line"/>
      <point x="26" y="449" type="line"/>
      <point x="101" y="449" type="line"/>
    </contour>
  </outline>
</glyph>
<glyph name="Schwa" format="1">
  <advance width="638"/>
  <unicode hex="018F"/>
  <outline>
    <contour>
      <point x="52" y="369" type="line"/>
      <point x="52" y="349" type="line" smooth="yes"/>
      <point x="52" y="100"/>
      <point x="150" y="-12"/>
      <point x="319" y="-12" type="curve" smooth="yes" name=""/>
      <point x="488" y="-12"/>
      <point x="586" y="100"/>
      <point x="586" y="349" type="curve" smooth="yes"/>
      <point x="586" y="598"/>
      <point x="488" y="710"/>
      <point x="319" y="710" type="curve" smooth="yes"/>
      <point x="189" y="710"/>
      <point x="109" y="635"/>
      <point x="78" y="532" type="curve"/>
      <point x="146" y="502" type="line"/>
      <point x="172" y="589"/>
      <point x="227" y="639"/>
      <point x="319" y="639" type="curve" smooth="yes"/>
      <point x="434" y="639"/>
      <point x="503" y="556"/>
      <point x="503" y="427" type="curve" smooth="yes"/>
      <point x="503" y="369" type="line"/>
    </contour>
    <contour>
      <point x="135" y="304" type="line"/>
      <point x="503" y="304" type="line"/>
      <point x="503" y="271" type="line" smooth="yes"/>
      <point x="503" y="142"/>
      <point x="434" y="59"/>
      <point x="319" y="59" type="curve" smooth="yes"/>
      <point x="204" y="59"/>
      <point x="135" y="142"/>
      <point x="135" y="271" type="curve" smooth="yes"/>
    </contour>
    <contour>
      <point x="319.0" y="0.0" type="move" name="bottom"/>
    </contour>
    <contour>
      <point x="319.0" y="698.0" type="move" name="top"/>
    </contour>
  </outline>
</glyph>
<glyph name="Ohorn" format="1">
  <advance width="638"/>
  <unicode hex="01A0"/>
  <outline>
    <contour>
      <point x="525" y="810" type="line"/>
      <point x="525" y="698" type="line"/>
      <point x="406" y="698" type="line"/>
      <point x="380" y="706"/>
      <point x="350" y="710"/>
      <point x="319" y="710" type="curve" smooth="yes" name="hr01"/>
      <point x="150" y="710"/>
      <point x="52" y="598"/>
      <point x="52" y="349" type="curve" smooth="yes"/>
      <point x="52" y="100"/>
      <point x="150" y="-12"/>
      <point x="319" y="-12" type="curve"/>
      <point x="488" y="-12"/>
      <point x="586" y="100"/>
      <point x="586" y="349" type="curve" smooth="yes"/>
      <point x="586" y="525"/>
      <point x="542" y="614"/>
      <point x="435" y="639" type="curve"/>
      <point x="435" y="647" type="line" name="hr02"/>
      <point x="531" y="647" type="line" smooth="yes"/>
      <point x="579" y="647"/>
      <point x="591" y="659"/>
      <point x="591" y="707" type="curve" smooth="yes"/>
      <point x="591" y="810" type="line"/>
    </contour>
    <contour>
      <point x="319" y="59" type="curve" smooth="yes"/>
      <point x="204" y="59"/>
      <point x="138" y="142"/>
      <point x="138" y="271" type="curve" smooth="yes"/>
      <point x="138" y="427" type="line" smooth="yes"/>
      <point x="138" y="556"/>
      <point x="204" y="639"/>
      <point x="319" y="639" type="curve" smooth="yes" name="hr03"/>
      <point x="434" y="639"/>
      <point x="500" y="556"/>
      <point x="500" y="427" type="curve" smooth="yes"/>
      <point x="500" y="271" type="line" smooth="yes"/>
      <point x="500" y="142"/>
      <point x="434" y="59"/>
    </contour>
    <contour>
      <point x="319" y="0" type="move" name="bottom"/>
    </contour>
    <contour>
      <point x="319" y="698" type="move" name="top"/>
    </contour>
  </outline>
</glyph>
<glyph name="ohorn" format="1">
  <advance width="504"/>
  <unicode hex="01A1"/>
  <outline>
    <contour>
      <point x="403" y="628" type="line"/>
      <point x="403" y="516" type="line"/>
      <point x="328" y="516" type="line"/>
      <point x="305" y="524"/>
      <point x="279" y="528"/>
      <point x="252" y="528" type="curve" smooth="yes" name="hr01"/>
      <point x="131" y="528"/>
      <point x="41" y="450"/>
      <point x="41" y="258" type="curve"/>
      <point x="41" y="66"/>
      <point x="131" y="-12"/>
      <point x="252" y="-12" type="curve" smooth="yes"/>
      <point x="373" y="-12"/>
      <point x="463" y="66"/>
      <point x="463" y="258" type="curve" smooth="yes"/>
      <point x="463" y="372"/>
      <point x="428" y="440"/>
      <point x="353" y="457" type="curve"/>
      <point x="353" y="465" type="line" name="hr02"/>
      <point x="409" y="465" type="line" smooth="yes"/>
      <point x="457" y="465"/>
      <point x="469" y="477"/>
      <point x="469" y="525" type="curve" smooth="yes"/>
      <point x="469" y="628" type="line"/>
    </contour>
    <contour>
      <point x="252" y="56" type="curve" smooth="yes"/>
      <point x="170" y="56"/>
      <point x="123" y="105"/>
      <point x="123" y="206" type="curve" smooth="yes"/>
      <point x="123" y="310" type="line" smooth="yes"/>
      <point x="123" y="411"/>
      <point x="170" y="460"/>
      <point x="252" y="460" type="curve" smooth="yes" name="hr03"/>
      <point x="334" y="460"/>
      <point x="381" y="411"/>
      <point x="381" y="310" type="curve" smooth="yes"/>
      <point x="381" y="206" type="line" smooth="yes"/>
      <point x="381" y="105"/>
      <point x="334" y="56"/>
    </contour>
    <contour>
      <point x="252" y="0" type="move" name="bottom"/>
    </contour>
    <contour>
      <point x="252" y="540" type="move" name="top"/>
    </contour>
  </outline>
</glyph>
<glyph name="Uhorn" format="1">
  <advance width="617"/>
  <unicode hex="01AF"/>
  <outline>
    <contour>
      <point x="78" y="698" type="line"/>
      <point x="78" y="262" type="line" smooth="yes"/>
      <point x="78" y="76"/>
      <point x="137" y="-12"/>
      <point x="305" y="-12" type="curve" smooth="yes"/>
      <point x="473" y="-12"/>
      <point x="532" y="76"/>
      <point x="532" y="262" type="curve" smooth="yes" name=""/>
      <point x="532" y="677" type="line"/>
      <point x="502" y="647" type="line"/>
      <point x="543" y="647" type="line" smooth="yes"/>
      <point x="591" y="647"/>
      <point x="603" y="659"/>
      <point x="603" y="707" type="curve" smooth="yes"/>
      <point x="603" y="810" type="line"/>
      <point x="537" y="810" type="line"/>
      <point x="537" y="698" type="line"/>
      <point x="452" y="698" type="line"/>
      <point x="452" y="246" type="line" smooth="yes"/>
      <point x="452" y="121"/>
      <point x="415" y="59"/>
      <point x="305" y="59" type="curve" smooth="yes"/>
      <point x="195" y="59"/>
      <point x="158" y="121"/>
      <point x="158" y="246" type="curve" smooth="yes"/>
      <point x="158" y="698" type="line"/>
    </contour>
    <contour>
      <point x="304.0" y="0.0" type="move" name="bottom"/>
    </contour>
    <contour>
      <point x="304.0" y="698.0" type="move" name="top"/>
    </contour>
  </outline>
</glyph>
<glyph name="uhorn" format="1">
  <advance width="519"/>
  <unicode hex="01B0"/>
  <outline>
    <contour>
      <point x="437" y="0" type="line"/>
      <point x="437" y="495" type="line"/>
      <point x="407" y="465" type="line"/>
      <point x="451" y="465" type="line" smooth="yes"/>
      <point x="499" y="465"/>
      <point x="511" y="477"/>
      <point x="511" y="525" type="curve" smooth="yes"/>
      <point x="511" y="628" type="line"/>
      <point x="445" y="628" type="line"/>
      <point x="445" y="516" type="line"/>
      <point x="361" y="516" type="line"/>
      <point x="361" y="164" type="line" smooth="yes"/>
      <point x="361" y="97"/>
      <point x="312" y="57"/>
      <point x="251" y="57" type="curve" smooth="yes" name=""/>
      <point x="181" y="57"/>
      <point x="147" y="103"/>
      <point x="147" y="185" type="curve" smooth="yes"/>
      <point x="147" y="516" type="line"/>
      <point x="71" y="516" type="line"/>
      <point x="71" y="180" type="line" smooth="yes"/>
      <point x="71" y="50"/>
      <point x="127" y="-12"/>
      <point x="219" y="-12" type="curve" smooth="yes"/>
      <point x="291" y="-12"/>
      <point x="331" y="21"/>
      <point x="351" y="84" type="curve"/>
      <point x="361" y="84" type="line"/>
      <point x="361" y="0" type="line"/>
    </contour>
    <contour>
      <point x="251.0" y="0.0" type="move" name="bottom"/>
    </contour>
    <contour>
      <point x="255.0" y="540.0" type="move" name="top"/>
    </contour>
  </outline>
</glyph>
<glyph name="dotlessj" format="1">
  <advance width="228"/>
  <unicode hex="0237"/>
  <outline>
    <contour>
      <point x="0" y="-200" type="line" name="hr00"/>
      <point x="54" y="-200" type="line" smooth="yes"/>
      <point x="122" y="-200"/>
      <point x="152" y="-170"/>
      <point x="152" y="-102" type="curve" smooth="yes"/>
      <point x="152" y="516" type="line"/>
      <point x="76" y="516" type="line"/>
      <point x="76" y="-133" type="line"/>
      <point x="0" y="-133" type="line"/>
    </contour>
    <contour>
      <point x="114" y="540" type="move" name="top"/>
    </contour>
  </outline>
</glyph>
<glyph name="schwa" format="1">
  <advance width="495"/>
  <unicode hex="0259"/>
  <outline>
    <contour>
      <point x="42" y="277" type="line" name="hr00"/>
      <point x="42" y="258" type="line" smooth="yes"/>
      <point x="42" y="66"/>
      <point x="122" y="-12"/>
      <point x="243" y="-12" type="curve" smooth="yes"/>
      <point x="364" y="-12"/>
      <point x="454" y="66"/>
      <point x="454" y="258" type="curve" smooth="yes"/>
      <point x="454" y="450"/>
      <point x="364" y="528"/>
      <point x="243" y="528" type="curve" smooth="yes"/>
      <point x="147" y="528"/>
      <point x="86" y="479"/>
      <point x="54" y="409" type="curve"/>
      <point x="106" y="371" type="line"/>
      <point x="131" y="430"/>
      <point x="174" y="461"/>
      <point x="243" y="461" type="curve" smooth="yes"/>
      <point x="324" y="461"/>
      <point x="373" y="411"/>
      <point x="373" y="310" type="curve" smooth="yes"/>
      <point x="373" y="277" type="line"/>
    </contour>
    <contour>
      <point x="123" y="219" type="line"/>
      <point x="373" y="219" type="line"/>
      <point x="373" y="206" type="line" smooth="yes"/>
      <point x="373" y="105"/>
      <point x="325" y="52"/>
      <point x="243" y="52" type="curve" smooth="yes"/>
      <point x="164" y="52"/>
      <point x="123" y="105"/>
      <point x="123" y="206" type="curve" smooth="yes"/>
    </contour>
  </outline>
</glyph>
<glyph name="caronslovak" format="1">
  <advance width="540"/>
  <unicode hex="02BC"/>
  <outline>
    <contour>
      <point x="369" y="740" type="line" name="hr00"/>
      <point x="282" y="740" type="line"/>
      <point x="271" y="555" type="line"/>
      <point x="322" y="555" type="line"/>
    </contour>
    <contour>
      <point x="270" y="740" type="move" name="_topright"/>
    </contour>
  </outline>
</glyph>
<glyph name="circumflex" format="1">
  <advance width="540"/>
  <unicode hex="02C6"/>
  <outline>
    <contour>
      <point x="224" y="765" type="line" name="hr00"/>
      <point x="123" y="621" type="line"/>
      <point x="164" y="591" type="line"/>
      <point x="270" y="709" type="line"/>
      <point x="376" y="591" type="line"/>
      <point x="417" y="621" type="line"/>
      <point x="316" y="765" type="line"/>
    </contour>
    <contour>
      <point x="270" y="540" type="move" name="_top"/>
    </contour>
  </outline>
</glyph>
<glyph name="dotaccent" format="1">
  <advance width="540"/>
  <unicode hex="02D9"/>
  <outline>
    <contour>
      <point x="270" y="618" type="curve" smooth="yes" name="hr00"/>
      <point x="303" y="618"/>
      <point x="320" y="633"/>
      <point x="320" y="658" type="curve" smooth="yes"/>
      <point x="320" y="676" type="line" smooth="yes"/>
      <point x="320" y="701"/>
      <point x="303" y="716"/>
      <point x="270" y="716" type="curve" smooth="yes"/>
      <point x="237" y="716"/>
      <point x="220" y="701"/>
      <point x="220" y="676" type="curve" smooth="yes"/>
      <point x="220" y="658" type="line" smooth="yes"/>
      <point x="220" y="633"/>
      <point x="237" y="618"/>
    </contour>
    <contour>
      <point x="270" y="540" type="move" name="_top"/>
    </contour>
  </outline>
</glyph>
<glyph name="ring" format="1">
  <advance width="540"/>
  <unicode hex="02DA"/>
  <outline>
    <contour>
      <point x="270" y="576" type="curve" smooth="yes" name="hr00"/>
      <point x="338" y="576"/>
      <point x="380" y="624"/>
      <point x="380" y="691" type="curve" smooth="yes"/>
      <point x="380" y="758"/>
      <point x="338" y="806"/>
      <point x="270" y="806" type="curve" smooth="yes"/>
      <point x="202" y="806"/>
      <point x="160" y="758"/>
      <point x="160" y="691" type="curve" smooth="yes"/>
      <point x="160" y="624"/>
      <point x="202" y="576"/>
    </contour>
    <contour>
      <point x="270" y="623" type="curve" smooth="yes"/>
      <point x="237" y="623"/>
      <point x="216" y="641"/>
      <point x="216" y="674" type="curve" smooth="yes"/>
      <point x="216" y="708" type="line" smooth="yes"/>
      <point x="216" y="741"/>
      <point x="237" y="759"/>
      <point x="270" y="759" type="curve" smooth="yes"/>
      <point x="303" y="759"/>
      <point x="324" y="741"/>
      <point x="324" y="708" type="curve" smooth="yes"/>
      <point x="324" y="674" type="line" smooth="yes"/>
      <point x="324" y="641"/>
      <point x="303" y="623"/>
    </contour>
    <contour>
      <point x="270" y="540" type="move" name="_top"/>
    </contour>
  </outline>
</glyph>
<glyph name="tilde" format="1">
  <advance width="540"/>
  <unicode hex="02DC"/>
  <outline>
    <contour>
      <point x="337" y="613" type="curve" smooth="yes"/>
      <point x="372" y="613"/>
      <point x="401" y="631"/>
      <point x="422" y="665" type="curve"/>
      <point x="392" y="703" type="line"/>
      <point x="374" y="686"/>
      <point x="359" y="675"/>
      <point x="339" y="675" type="curve" smooth="yes"/>
      <point x="325" y="675"/>
      <point x="308" y="682"/>
      <point x="277" y="700" type="curve" smooth="yes"/>
      <point x="244" y="719"/>
      <point x="225" y="726"/>
      <point x="203" y="726" type="curve" smooth="yes" name="hr01"/>
      <point x="168" y="726"/>
      <point x="139" y="708"/>
      <point x="118" y="674" type="curve"/>
      <point x="148" y="636" type="line"/>
      <point x="166" y="653"/>
      <point x="181" y="664"/>
      <point x="201" y="664" type="curve" smooth="yes"/>
      <point x="215" y="664"/>
      <point x="232" y="657"/>
      <point x="263" y="639" type="curve" smooth="yes"/>
      <point x="296" y="620"/>
      <point x="315" y="613"/>
    </contour>
    <contour>
      <point x="270" y="540" type="move" name="_top"/>
    </contour>
  </outline>
</glyph>
<glyph name="hookcomb" format="1">
  <advance width="0"/>
  <unicode hex="0309"/>
  <outline>
    <contour>
      <point x="-78" y="703" type="line" name="hr00"/>
      <point x="28" y="703" type="line"/>
      <point x="-22" y="600" type="line"/>
      <point x="21" y="577" type="line"/>
      <point x="50" y="617" type="line" smooth="yes"/>
      <point x="76" y="652"/>
      <point x="87" y="685"/>
      <point x="87" y="713" type="curve" smooth="yes"/>
      <point x="87" y="749"/>
      <point x="69" y="765"/>
      <point x="28" y="765" type="curve" smooth="yes"/>
      <point x="-78" y="765" type="line"/>
    </contour>
    <contour>
      <point x="0" y="540" type="move" name="_top"/>
    </contour>
  </outline>
</glyph>
<glyph name="horncomb" format="1">
  <advance width="0"/>
  <unicode hex="031B"/>
  <outline>
    <contour>
      <point x="72" y="628" type="line" name="hr00"/>
      <point x="6" y="628" type="line"/>
      <point x="6" y="516" type="line"/>
      <point x="-72" y="516" type="line"/>
      <point x="-72" y="465" type="line"/>
      <point x="12" y="465" type="line" smooth="yes"/>
      <point x="60" y="465"/>
      <point x="72" y="477"/>
      <point x="72" y="525" type="curve" smooth="yes"/>
    </contour>
  </outline>
</glyph>
<glyph name="dotbelowcomb" format="1">
  <advance width="0"/>
  <unicode hex="0323"/>
  <outline>
    <contour>
      <point x="0" y="-166" type="curve" smooth="yes" name="hr00"/>
      <point x="33" y="-166"/>
      <point x="50" y="-151"/>
      <point x="50" y="-126" type="curve" smooth="yes"/>
      <point x="50" y="-108" type="line" smooth="yes"/>
      <point x="50" y="-83"/>
      <point x="33" y="-68"/>
      <point x="0" y="-68" type="curve" smooth="yes"/>
      <point x="-33" y="-68"/>
      <point x="-50" y="-83"/>
      <point x="-50" y="-108" type="curve" smooth="yes"/>
      <point x="-50" y="-126" type="line" smooth="yes"/>
      <point x="-50" y="-151"/>
      <point x="-33" y="-166"/>
    </contour>
    <contour>
      <point x="0" y="0" type="move" name="_bottom"/>
    </contour>
  </outline>
</glyph>
<glyph name="pi" format="1">
  <advance width="563"/>
  <unicode hex="03C0"/>
  <outline>
    <contour>
      <point x="450" y="449" type="line" name="hr00"/>
      <point x="528" y="449" type="line"/>
      <point x="528" y="516" type="line"/>
      <point x="26" y="516" type="line"/>
      <point x="26" y="449" type="line"/>
      <point x="104" y="449" type="line"/>
      <point x="104" y="0" type="line"/>
      <point x="180" y="0" type="line"/>
      <point x="180" y="449" type="line"/>
      <point x="374" y="449" type="line"/>
      <point x="374" y="78" type="line" smooth="yes"/>
      <point x="374" y="24"/>
      <point x="398" y="0"/>
      <point x="452" y="0" type="curve" smooth="yes"/>
      <point x="528" y="0" type="line"/>
      <point x="528" y="67" type="line"/>
      <point x="450" y="67" type="line"/>
    </contour>
  </outline>
</glyph>
<glyph name="baht" format="1">
  <advance width="581"/>
  <unicode hex="0E3F"/>
  <outline>
    <contour>
      <point x="317" y="21" type="line"/>
      <point x="363" y="21" type="line" smooth="yes"/>
      <point x="460" y="21"/>
      <point x="525" y="89"/>
      <point x="525" y="211" type="curve"/>
      <point x="525" y="311"/>
      <point x="472" y="353"/>
      <point x="393" y="358" type="curve"/>
      <point x="393" y="366" type="line"/>
      <point x="461" y="375"/>
      <point x="503" y="416"/>
      <point x="503" y="508" type="curve" smooth="yes" name="hr01"/>
      <point x="503" y="624"/>
      <point x="443" y="677"/>
      <point x="337" y="677" type="curve" smooth="yes"/>
      <point x="317" y="677" type="line"/>
      <point x="317" y="780" type="line"/>
      <point x="253" y="780" type="line"/>
      <point x="253" y="677" type="line"/>
      <point x="83" y="677" type="line"/>
      <point x="83" y="21" type="line"/>
      <point x="253" y="21" type="line"/>
      <point x="253" y="-82" type="line"/>
      <point x="317" y="-82" type="line"/>
    </contour>
    <contour>
      <point x="161" y="392" type="line"/>
      <point x="161" y="609" type="line"/>
      <point x="255" y="609" type="line"/>
      <point x="255" y="392" type="line"/>
    </contour>
    <contour>
      <point x="315" y="609" type="line"/>
      <point x="338" y="609" type="line" smooth="yes"/>
      <point x="396" y="609"/>
      <point x="421" y="582"/>
      <point x="421" y="525" type="curve" smooth="yes"/>
      <point x="421" y="476" type="line" smooth="yes"/>
      <point x="421" y="419"/>
      <point x="396" y="392"/>
      <point x="338" y="392" type="curve" smooth="yes"/>
      <point x="315" y="392" type="line"/>
    </contour>
    <contour>
      <point x="161" y="89" type="line"/>
      <point x="161" y="326" type="line"/>
      <point x="255" y="326" type="line"/>
      <point x="255" y="89" type="line"/>
    </contour>
    <contour>
      <point x="315" y="326" type="line"/>
      <point x="342" y="326" type="line" smooth="yes"/>
      <point x="404" y="326"/>
      <point x="443" y="297"/>
      <point x="443" y="235" type="curve" smooth="yes" name="hr02"/>
      <point x="443" y="180" type="line" smooth="yes"/>
      <point x="443" y="118"/>
      <point x="404" y="89"/>
      <point x="342" y="89" type="curve" smooth="yes"/>
      <point x="315" y="89" type="line"/>
    </contour>
  </outline>
</glyph>
<glyph name="Germandbls" format="1">
  <advance width="632"/>
  <unicode hex="1E9E"/>
  <outline>
    <contour>
      <point x="586" y="195" type="curve" smooth="yes"/>
      <point x="586" y="328"/>
      <point x="501" y="400"/>
      <point x="389" y="400" type="curve"/>
      <point x="389" y="408" type="line"/>
      <point x="546" y="620" type="line"/>
      <point x="546" y="698" type="line"/>
      <point x="83" y="698" type="line"/>
      <point x="83" y="0" type="line"/>
      <point x="163" y="0" type="line"/>
      <point x="163" y="628" type="line"/>
      <point x="465" y="628" type="line"/>
      <point x="306" y="408" type="line"/>
      <point x="306" y="334" type="line"/>
      <point x="381" y="334" type="line" smooth="yes"/>
      <point x="455" y="334"/>
      <point x="502" y="294"/>
      <point x="502" y="230" type="curve" smooth="yes"/>
      <point x="502" y="160" type="line" smooth="yes"/>
      <point x="502" y="96"/>
      <point x="461" y="55"/>
      <point x="388" y="55" type="curve" smooth="yes" name="hr01"/>
      <point x="331" y="55"/>
      <point x="292" y="79"/>
      <point x="263" y="128" type="curve"/>
      <point x="209" y="82" type="line"/>
      <point x="248" y="15"/>
      <point x="303" y="-12"/>
      <point x="388" y="-12" type="curve" smooth="yes"/>
      <point x="509" y="-12"/>
      <point x="586" y="56"/>
    </contour>
  </outline>
</glyph>
<glyph name="endash" format="1">
  <advance width="528"/>
  <unicode hex="2013"/>
  <outline>
    <contour>
      <point x="496" y="268" type="line" name="hr00"/>
      <point x="496" y="341" type="line"/>
      <point x="32" y="341" type="line"/>
      <point x="32" y="268" type="line"/>
    </contour>
  </outline>
</glyph>
<glyph name="emdash" format="1">
  <advance width="702"/>
  <unicode hex="2014"/>
  <outline>
    <contour>
      <point x="670" y="268" type="line" name="hr00"/>
      <point x="670" y="341" type="line"/>
      <point x="32" y="341" type="line"/>
      <point x="32" y="268" type="line"/>
    </contour>
  </outline>
</glyph>
<glyph name="horizontalbar" format="1">
  <advance width="900"/>
  <unicode hex="2015"/>
  <outline>
    <contour>
      <point x="900" y="268" type="line" name=""/>
      <point x="900" y="341" type="line"/>
      <point x="0" y="341" type="line"/>
      <point x="0" y="268" type="line"/>
    </contour>
  </outline>
</glyph>
<glyph name="quoteleft" format="1">
  <advance width="248"/>
  <unicode hex="2018"/>
  <outline>
    <contour>
      <point x="124" y="502" type="curve" smooth="yes" name="hr00"/>
      <point x="163" y="502"/>
      <point x="183" y="520"/>
      <point x="183" y="553" type="curve" smooth="yes"/>
      <point x="183" y="569" type="line" smooth="yes"/>
      <point x="183" y="596"/>
      <point x="170" y="612"/>
      <point x="144" y="618" type="curve"/>
      <point x="154" y="665"/>
      <point x="177" y="698"/>
      <point x="213" y="740" type="curve"/>
      <point x="151" y="740" type="line"/>
      <point x="99" y="691"/>
      <point x="65" y="621"/>
      <point x="65" y="569" type="curve" smooth="yes"/>
      <point x="65" y="553" type="line" smooth="yes"/>
      <point x="65" y="520"/>
      <point x="85" y="502"/>
    </contour>
  </outline>
</glyph>
<glyph name="dagger" format="1">
  <advance width="494"/>
  <unicode hex="2020"/>
  <outline>
    <contour>
      <point x="280" y="-200" type="line" name="hr00"/>
      <point x="280" y="458" type="line"/>
      <point x="450" y="458" type="line"/>
      <point x="450" y="516" type="line"/>
      <point x="280" y="516" type="line"/>
      <point x="280" y="740" type="line"/>
      <point x="214" y="740" type="line"/>
      <point x="214" y="516" type="line"/>
      <point x="44" y="516" type="line"/>
      <point x="44" y="458" type="line"/>
      <point x="214" y="458" type="line"/>
      <point x="214" y="-200" type="line"/>
    </contour>
  </outline>
</glyph>
<glyph name="daggerdbl" format="1">
  <advance width="495"/>
  <unicode hex="2021"/>
  <outline>
    <contour>
      <point x="280" y="-200" type="line" name="hr00"/>
      <point x="280" y="24" type="line"/>
      <point x="451" y="24" type="line"/>
      <point x="451" y="82" type="line"/>
      <point x="280" y="82" type="line"/>
      <point x="280" y="458" type="line"/>
      <point x="451" y="458" type="line"/>
      <point x="451" y="516" type="line"/>
      <point x="280" y="516" type="line"/>
      <point x="280" y="740" type="line"/>
      <point x="215" y="740" type="line"/>
      <point x="215" y="516" type="line"/>
      <point x="44" y="516" type="line"/>
      <point x="44" y="458" type="line"/>
      <point x="215" y="458" type="line"/>
      <point x="215" y="82" type="line"/>
      <point x="44" y="82" type="line"/>
      <point x="44" y="24" type="line"/>
      <point x="215" y="24" type="line"/>
      <point x="215" y="-200" type="line"/>
    </contour>
  </outline>
</glyph>
<glyph name="perthousand" format="1">
  <advance width="1180"/>
  <unicode hex="2030"/>
  <outline>
    <contour>
      <point x="237" y="0" type="line"/>
      <point x="673" y="698" type="line"/>
      <point x="600" y="698" type="line"/>
      <point x="164" y="0" type="line"/>
    </contour>
    <contour>
      <point x="202" y="314" type="curve" smooth="yes"/>
      <point x="294" y="314"/>
      <point x="346" y="372"/>
      <point x="346" y="512" type="curve" smooth="yes"/>
      <point x="346" y="652"/>
      <point x="294" y="710"/>
      <point x="202" y="710" type="curve" smooth="yes" name="hr01"/>
      <point x="110" y="710"/>
      <point x="58" y="652"/>
      <point x="58" y="512" type="curve" smooth="yes"/>
      <point x="58" y="372"/>
      <point x="110" y="314"/>
    </contour>
    <contour>
      <point x="202" y="364" type="curve" smooth="yes"/>
      <point x="151" y="364"/>
      <point x="126" y="395"/>
      <point x="126" y="472" type="curve" smooth="yes"/>
      <point x="126" y="552" type="line" smooth="yes"/>
      <point x="126" y="629"/>
      <point x="151" y="660"/>
      <point x="202" y="660" type="curve" smooth="yes"/>
      <point x="253" y="660"/>
      <point x="278" y="629"/>
      <point x="278" y="552" type="curve" smooth="yes"/>
      <point x="278" y="472" type="line" smooth="yes"/>
      <point x="278" y="395"/>
      <point x="253" y="364"/>
    </contour>
    <contour>
      <point x="635" y="-12" type="curve" smooth="yes"/>
      <point x="727" y="-12"/>
      <point x="779" y="46"/>
      <point x="779" y="186" type="curve" smooth="yes"/>
      <point x="779" y="326"/>
      <point x="727" y="384"/>
      <point x="635" y="384" type="curve" smooth="yes" name="hr02"/>
      <point x="543" y="384"/>
      <point x="491" y="326"/>
      <point x="491" y="186" type="curve" smooth="yes"/>
      <point x="491" y="46"/>
      <point x="543" y="-12"/>
    </contour>
    <contour>
      <point x="635" y="38" type="curve" smooth="yes"/>
      <point x="584" y="38"/>
      <point x="559" y="69"/>
      <point x="559" y="146" type="curve" smooth="yes"/>
      <point x="559" y="226" type="line" smooth="yes"/>
      <point x="559" y="303"/>
      <point x="584" y="334"/>
      <point x="635" y="334" type="curve" smooth="yes"/>
      <point x="686" y="334"/>
      <point x="711" y="303"/>
      <point x="711" y="226" type="curve" smooth="yes"/>
      <point x="711" y="146" type="line" smooth="yes"/>
      <point x="711" y="69"/>
      <point x="686" y="38"/>
    </contour>
    <contour>
      <point x="978" y="-12" type="curve" smooth="yes"/>
      <point x="1070" y="-12"/>
      <point x="1122" y="46"/>
      <point x="1122" y="186" type="curve" smooth="yes"/>
      <point x="1122" y="326"/>
      <point x="1070" y="384"/>
      <point x="978" y="384" type="curve" smooth="yes"/>
      <point x="886" y="384"/>
      <point x="834" y="326"/>
      <point x="834" y="186" type="curve" smooth="yes"/>
      <point x="834" y="46"/>
      <point x="886" y="-12"/>
    </contour>
    <contour>
      <point x="978" y="38" type="curve" smooth="yes"/>
      <point x="927" y="38"/>
      <point x="902" y="69"/>
      <point x="902" y="146" type="curve" smooth="yes"/>
      <point x="902" y="226" type="line" smooth="yes"/>
      <point x="902" y="303"/>
      <point x="927" y="334"/>
      <point x="978" y="334" type="curve" smooth="yes"/>
      <point x="1029" y="334"/>
      <point x="1054" y="303"/>
      <point x="1054" y="226" type="curve" smooth="yes"/>
      <point x="1054" y="146" type="line" smooth="yes"/>
      <point x="1054" y="69"/>
      <point x="1029" y="38"/>
    </contour>
  </outline>
</glyph>
<glyph name="prime" format="1">
  <advance width="220"/>
  <unicode hex="2032"/>
  <outline>
    <contour>
      <point x="119" y="396" type="line" name=""/>
      <point x="172" y="698" type="line"/>
      <point x="102" y="698" type="line"/>
      <point x="49" y="396" type="line"/>
    </contour>
  </outline>
</glyph>
<glyph name="guilsinglleft" format="1">
  <advance width="274"/>
  <unicode hex="2039"/>
  <outline>
    <contour>
      <point x="231" y="151" type="line" name="hr00"/>
      <point x="110" y="281" type="line"/>
      <point x="110" y="289" type="line"/>
      <point x="231" y="419" type="line"/>
      <point x="205" y="472" type="line"/>
      <point x="33" y="321" type="line"/>
      <point x="33" y="249" type="line"/>
      <point x="205" y="98" type="line"/>
    </contour>
  </outline>
</glyph>
<glyph name="guilsinglright" format="1">
  <advance width="274"/>
  <unicode hex="203A"/>
  <outline>
    <contour>
      <point x="43" y="151" type="line"/>
      <point x="69" y="98" type="line"/>
      <point x="241" y="249" type="line"/>
      <point x="241" y="321" type="line"/>
      <point x="69" y="472" type="line"/>
      <point x="43" y="419" type="line" name="hr00"/>
      <point x="164" y="289" type="line"/>
      <point x="164" y="281" type="line"/>
    </contour>
  </outline>
</glyph>
<glyph name="fraction" format="1">
  <advance width="100"/>
  <unicode hex="2044"/>
  <outline>
    <contour>
      <point x="-139" y="0" type="line"/>
      <point x="301" y="698" type="line"/>
      <point x="239" y="698" type="line"/>
      <point x="-201" y="0" type="line"/>
    </contour>
  </outline>
</glyph>
<glyph name="foursuperior" format="1">
  <advance width="320"/>
  <unicode hex="2074"/>
  <outline>
    <contour>
      <point x="248" y="329" type="line" name="hr00"/>
      <point x="248" y="401" type="line"/>
      <point x="298" y="401" type="line"/>
      <point x="298" y="447" type="line"/>
      <point x="248" y="447" type="line"/>
      <point x="248" y="698" type="line"/>
      <point x="164" y="698" type="line"/>
      <point x="22" y="451" type="line"/>
      <point x="22" y="401" type="line"/>
      <point x="192" y="401" type="line"/>
      <point x="192" y="329" type="line"/>
    </contour>
    <contour>
      <point x="192" y="447" type="line"/>
      <point x="73" y="447" type="line"/>
      <point x="186" y="645" type="line"/>
      <point x="192" y="645" type="line"/>
    </contour>
  </outline>
</glyph>
<glyph name="sixsuperior" format="1">
  <advance width="320"/>
  <unicode hex="2076"/>
  <outline>
    <contour>
      <point x="160" y="323" type="curve" smooth="yes" name="hr00"/>
      <point x="237" y="323"/>
      <point x="288" y="366"/>
      <point x="288" y="447" type="curve" smooth="yes"/>
      <point x="288" y="525"/>
      <point x="242" y="561"/>
      <point x="181" y="561" type="curve" smooth="yes"/>
      <point x="133" y="561"/>
      <point x="109" y="537"/>
      <point x="97" y="509" type="curve"/>
      <point x="91" y="509" type="line"/>
      <point x="108" y="589"/>
      <point x="151" y="638"/>
      <point x="241" y="698" type="curve"/>
      <point x="161" y="698" type="line"/>
      <point x="97" y="658"/>
      <point x="32" y="575"/>
      <point x="32" y="467" type="curve" smooth="yes"/>
      <point x="32" y="370"/>
      <point x="79" y="323"/>
    </contour>
    <contour>
      <point x="160" y="369" type="curve" smooth="yes"/>
      <point x="116" y="369"/>
      <point x="94" y="390"/>
      <point x="94" y="432" type="curve" smooth="yes"/>
      <point x="94" y="452" type="line" smooth="yes"/>
      <point x="94" y="495"/>
      <point x="116" y="515"/>
      <point x="160" y="515" type="curve" smooth="yes"/>
      <point x="203" y="515"/>
      <point x="226" y="495"/>
      <point x="226" y="452" type="curve" smooth="yes"/>
      <point x="226" y="432" type="line" smooth="yes"/>
      <point x="226" y="390"/>
      <point x="203" y="369"/>
    </contour>
  </outline>
</glyph>
<glyph name="sevensuperior" format="1">
  <advance width="320"/>
  <unicode hex="2077"/>
  <outline>
    <contour>
      <point x="155" y="329" type="line" name=""/>
      <point x="283" y="650" type="line"/>
      <point x="283" y="698" type="line"/>
      <point x="37" y="698" type="line"/>
      <point x="37" y="582" type="line"/>
      <point x="89" y="582" type="line"/>
      <point x="89" y="650" type="line"/>
      <point x="225" y="650" type="line"/>
      <point x="92" y="329" type="line"/>
    </contour>
  </outline>
</glyph>
<glyph name="eightsuperior" format="1">
  <advance width="320"/>
  <unicode hex="2078"/>
  <outline>
    <contour>
      <point x="160" y="323" type="curve" smooth="yes"/>
      <point x="242" y="323"/>
      <point x="289" y="363"/>
      <point x="289" y="430" type="curve" smooth="yes"/>
      <point x="289" y="482"/>
      <point x="257" y="511"/>
      <point x="212" y="518" type="curve"/>
      <point x="212" y="524" type="line"/>
      <point x="251" y="532"/>
      <point x="278" y="562"/>
      <point x="278" y="609" type="curve" smooth="yes" name="hr01"/>
      <point x="278" y="672"/>
      <point x="235" y="704"/>
      <point x="160" y="704" type="curve" smooth="yes"/>
      <point x="85" y="704"/>
      <point x="42" y="672"/>
      <point x="42" y="609" type="curve" smooth="yes"/>
      <point x="42" y="562"/>
      <point x="69" y="532"/>
      <point x="108" y="524" type="curve"/>
      <point x="108" y="518" type="line"/>
      <point x="64" y="511"/>
      <point x="31" y="482"/>
      <point x="31" y="430" type="curve" smooth="yes" name="hr02"/>
      <point x="31" y="363"/>
      <point x="78" y="323"/>
    </contour>
    <contour>
      <point x="160" y="543" type="curve" smooth="yes"/>
      <point x="120" y="543"/>
      <point x="100" y="559"/>
      <point x="100" y="588" type="curve" smooth="yes" name="hr03"/>
      <point x="100" y="613" type="line" smooth="yes"/>
      <point x="100" y="641"/>
      <point x="120" y="658"/>
      <point x="160" y="658" type="curve" smooth="yes"/>
      <point x="200" y="658"/>
      <point x="220" y="641"/>
      <point x="220" y="613" type="curve" smooth="yes"/>
      <point x="220" y="588" type="line" smooth="yes"/>
      <point x="220" y="559"/>
      <point x="200" y="543"/>
    </contour>
    <contour>
      <point x="160" y="369" type="curve" smooth="yes"/>
      <point x="117" y="369"/>
      <point x="93" y="388"/>
      <point x="93" y="420" type="curve" smooth="yes" name="hr04"/>
      <point x="93" y="447" type="line" smooth="yes"/>
      <point x="93" y="479"/>
      <point x="117" y="497"/>
      <point x="160" y="497" type="curve" smooth="yes"/>
      <point x="203" y="497"/>
      <point x="227" y="479"/>
      <point x="227" y="447" type="curve" smooth="yes"/>
      <point x="227" y="420" type="line" smooth="yes"/>
      <point x="227" y="388"/>
      <point x="203" y="369"/>
    </contour>
  </outline>
</glyph>
<glyph name="oneinferior" format="1">
  <advance width="320"/>
  <unicode hex="2081"/>
  <outline>
    <contour>
      <point x="291" y="0" type="line" name="hr00"/>
      <point x="291" y="48" type="line"/>
      <point x="205" y="48" type="line"/>
      <point x="205" y="369" type="line"/>
      <point x="120" y="369" type="line"/>
      <point x="30" y="279" type="line"/>
      <point x="66" y="247" type="line"/>
      <point x="139" y="321" type="line"/>
      <point x="145" y="321" type="line"/>
      <point x="145" y="48" type="line"/>
      <point x="49" y="48" type="line"/>
      <point x="49" y="0" type="line"/>
    </contour>
  </outline>
</glyph>
<glyph name="twoinferior" format="1">
  <advance width="320"/>
  <unicode hex="2082"/>
  <outline>
    <contour>
      <point x="286" y="48" type="line" name="hr00"/>
      <point x="100" y="48" type="line"/>
      <point x="187" y="124" type="line" smooth="yes"/>
      <point x="238" y="168"/>
      <point x="274" y="206"/>
      <point x="274" y="266" type="curve" smooth="yes"/>
      <point x="274" y="332"/>
      <point x="239" y="375"/>
      <point x="158" y="375" type="curve" smooth="yes"/>
      <point x="80" y="375"/>
      <point x="48" y="332"/>
      <point x="34" y="286" type="curve"/>
      <point x="85" y="266" type="line"/>
      <point x="94" y="299"/>
      <point x="109" y="325"/>
      <point x="154" y="325" type="curve" smooth="yes"/>
      <point x="195" y="325"/>
      <point x="212" y="304"/>
      <point x="212" y="275" type="curve" smooth="yes"/>
      <point x="212" y="252" type="line" smooth="yes"/>
      <point x="212" y="218"/>
      <point x="190" y="191"/>
      <point x="155" y="159" type="curve" smooth="yes"/>
      <point x="40" y="54" type="line"/>
      <point x="40" y="0" type="line"/>
      <point x="286" y="0" type="line"/>
    </contour>
  </outline>
</glyph>
<glyph name="seveninferior" format="1">
  <advance width="320"/>
  <unicode hex="2087"/>
  <outline>
    <contour>
      <point x="155" y="0" type="line" name="hr00"/>
      <point x="283" y="321" type="line"/>
      <point x="283" y="369" type="line"/>
      <point x="37" y="369" type="line"/>
      <point x="37" y="253" type="line"/>
      <point x="89" y="253" type="line"/>
      <point x="89" y="321" type="line"/>
      <point x="225" y="321" type="line"/>
      <point x="92" y="0" type="line"/>
    </contour>
  </outline>
</glyph>
<glyph name="eightinferior" format="1">
  <advance width="320"/>
  <unicode hex="2088"/>
  <outline>
    <contour>
      <point x="160" y="-6" type="curve" smooth="yes"/>
      <point x="242" y="-6"/>
      <point x="289" y="34"/>
      <point x="289" y="101" type="curve" smooth="yes"/>
      <point x="289" y="153"/>
      <point x="257" y="182"/>
      <point x="212" y="189" type="curve"/>
      <point x="212" y="195" type="line"/>
      <point x="251" y="203"/>
      <point x="278" y="233"/>
      <point x="278" y="280" type="curve" smooth="yes" name="hr01"/>
      <point x="278" y="343"/>
      <point x="235" y="375"/>
      <point x="160" y="375" type="curve" smooth="yes"/>
      <point x="85" y="375"/>
      <point x="42" y="343"/>
      <point x="42" y="280" type="curve" smooth="yes"/>
      <point x="42" y="233"/>
      <point x="69" y="203"/>
      <point x="108" y="195" type="curve"/>
      <point x="108" y="189" type="line"/>
      <point x="64" y="182"/>
      <point x="31" y="153"/>
      <point x="31" y="101" type="curve" smooth="yes" name="hr02"/>
      <point x="31" y="34"/>
      <point x="78" y="-6"/>
    </contour>
    <contour>
      <point x="160" y="40" type="curve" smooth="yes"/>
      <point x="117" y="40"/>
      <point x="93" y="59"/>
      <point x="93" y="91" type="curve" smooth="yes"/>
      <point x="93" y="118" type="line" smooth="yes"/>
      <point x="93" y="150"/>
      <point x="117" y="168"/>
      <point x="160" y="168" type="curve" smooth="yes"/>
      <point x="203" y="168"/>
      <point x="227" y="150"/>
      <point x="227" y="118" type="curve" smooth="yes"/>
      <point x="227" y="91" type="line" smooth="yes"/>
      <point x="227" y="59"/>
      <point x="203" y="40"/>
    </contour>
    <contour>
      <point x="160" y="214" type="curve" smooth="yes"/>
      <point x="120" y="214"/>
      <point x="100" y="230"/>
      <point x="100" y="259" type="curve" smooth="yes" name="hr03"/>
      <point x="100" y="284" type="line" smooth="yes"/>
      <point x="100" y="312"/>
      <point x="120" y="329"/>
      <point x="160" y="329" type="curve" smooth="yes"/>
      <point x="200" y="329"/>
      <point x="220" y="312"/>
      <point x="220" y="284" type="curve" smooth="yes"/>
      <point x="220" y="259" type="line" smooth="yes"/>
      <point x="220" y="230"/>
      <point x="200" y="214"/>
    </contour>
  </outline>
</glyph>
<glyph name="coloncurrency" format="1">
  <advance width="565"/>
  <unicode hex="20A1"/>
  <outline>
    <contour>
      <point x="219" y="-82" type="line"/>
      <point x="229" y="36" type="line"/>
      <point x="229" y="46" type="line"/>
      <point x="284" y="652" type="line"/>
      <point x="288" y="662" type="line"/>
      <point x="299" y="780" type="line"/>
      <point x="241" y="780" type="line"/>
      <point x="230" y="662" type="line"/>
      <point x="230" y="652" type="line"/>
      <point x="175" y="46" type="line"/>
      <point x="171" y="36" type="line"/>
      <point x="161" y="-82" type="line"/>
    </contour>
    <contour>
      <point x="339" y="-82" type="line"/>
      <point x="349" y="36" type="line"/>
      <point x="349" y="46" type="line"/>
      <point x="404" y="652" type="line"/>
      <point x="408" y="662" type="line"/>
      <point x="419" y="780" type="line"/>
      <point x="361" y="780" type="line"/>
      <point x="350" y="662" type="line"/>
      <point x="350" y="652" type="line"/>
      <point x="295" y="46" type="line"/>
      <point x="291" y="36" type="line"/>
      <point x="281" y="-82" type="line"/>
    </contour>
    <contour>
      <point x="52" y="349" type="curve" smooth="yes"/>
      <point x="52" y="121"/>
      <point x="135" y="-4"/>
      <point x="303" y="-4" type="curve" smooth="yes" name=""/>
      <point x="416" y="-4"/>
      <point x="488" y="46"/>
      <point x="526" y="140" type="curve"/>
      <point x="462" y="180" type="line"/>
      <point x="439" y="106"/>
      <point x="392" y="65"/>
      <point x="303" y="65" type="curve" smooth="yes"/>
      <point x="215" y="65"/>
      <point x="138" y="125"/>
      <point x="138" y="271" type="curve" smooth="yes"/>
      <point x="138" y="427" type="line" smooth="yes"/>
      <point x="138" y="553"/>
      <point x="199" y="633"/>
      <point x="303" y="633" type="curve" smooth="yes"/>
      <point x="390" y="633"/>
      <point x="436" y="592"/>
      <point x="457" y="525" type="curve"/>
      <point x="521" y="564" type="line"/>
      <point x="475" y="678"/>
      <point x="390" y="702"/>
      <point x="303" y="702" type="curve" smooth="yes"/>
      <point x="147" y="702"/>
      <point x="52" y="592"/>
    </contour>
  </outline>
</glyph>
<glyph name="lira" format="1">
  <advance width="535"/>
  <unicode hex="20A4"/>
  <outline>
    <contour>
      <point x="477" y="70" type="line"/>
      <point x="122" y="70" type="line"/>
      <point x="122" y="79" type="line"/>
      <point x="174" y="92"/>
      <point x="215" y="151"/>
      <point x="215" y="240" type="curve" smooth="yes"/>
      <point x="215" y="319"/>
      <point x="170" y="381"/>
      <point x="170" y="492" type="curve" smooth="yes" name=""/>
      <point x="170" y="601"/>
      <point x="214" y="640"/>
      <point x="297" y="640" type="curve" smooth="yes"/>
      <point x="366" y="640"/>
      <point x="406" y="613"/>
      <point x="434" y="563" type="curve"/>
      <point x="493" y="606" type="line"/>
      <point x="455" y="673"/>
      <point x="396" y="710"/>
      <point x="299" y="710" type="curve" smooth="yes"/>
      <point x="161" y="710"/>
      <point x="88" y="633"/>
      <point x="88" y="499" type="curve" smooth="yes"/>
      <point x="88" y="392"/>
      <point x="137" y="308"/>
      <point x="137" y="245" type="curve" smooth="yes"/>
      <point x="137" y="161"/>
      <point x="125" y="119"/>
      <point x="72" y="92" type="curve"/>
      <point x="72" y="0" type="line"/>
      <point x="477" y="0" type="line"/>
    </contour>
    <contour>
      <point x="51" y="398" type="line"/>
      <point x="397" y="398" type="line"/>
      <point x="397" y="463" type="line"/>
      <point x="51" y="463" type="line"/>
    </contour>
    <contour>
      <point x="51" y="235" type="line"/>
      <point x="394" y="235" type="line"/>
      <point x="394" y="300" type="line"/>
      <point x="51" y="300" type="line"/>
    </contour>
  </outline>
</glyph>
<glyph name="naira" format="1">
  <advance width="632"/>
  <unicode hex="20A6"/>
  <outline>
    <contour>
      <point x="448" y="0" type="line" name=""/>
      <point x="546" y="0" type="line"/>
      <point x="546" y="235" type="line"/>
      <point x="616" y="235" type="line"/>
      <point x="616" y="300" type="line"/>
      <point x="546" y="300" type="line"/>
      <point x="546" y="398" type="line"/>
      <point x="616" y="398" type="line"/>
      <point x="616" y="463" type="line"/>
      <point x="546" y="463" type="line"/>
      <point x="546" y="698" type="line"/>
      <point x="468" y="698" type="line"/>
      <point x="468" y="463" type="line"/>
      <point x="300" y="463" type="line"/>
      <point x="185" y="698" type="line"/>
      <point x="86" y="698" type="line"/>
      <point x="86" y="463" type="line"/>
      <point x="16" y="463" type="line"/>
      <point x="16" y="398" type="line"/>
      <point x="86" y="398" type="line"/>
      <point x="86" y="300" type="line"/>
      <point x="16" y="300" type="line"/>
      <point x="16" y="235" type="line"/>
      <point x="86" y="235" type="line"/>
      <point x="86" y="0" type="line"/>
      <point x="164" y="0" type="line"/>
      <point x="164" y="235" type="line"/>
      <point x="333" y="235" type="line"/>
    </contour>
    <contour>
      <point x="164" y="296" type="line"/>
      <point x="164" y="453" type="line"/>
      <point x="157" y="597" type="line"/>
      <point x="167" y="597" type="line"/>
      <point x="226" y="453" type="line"/>
      <point x="303" y="296" type="line"/>
    </contour>
    <contour>
      <point x="329" y="402" type="line"/>
      <point x="468" y="402" type="line"/>
      <point x="468" y="245" type="line"/>
      <point x="475" y="101" type="line"/>
      <point x="465" y="101" type="line"/>
      <point x="406" y="245" type="line"/>
    </contour>
  </outline>
</glyph>
<glyph name="sheqel" format="1">
  <advance width="702"/>
  <unicode hex="20AA"/>
  <outline>
    <contour>
      <point x="236" y="0" type="line" name="hr00"/>
      <point x="458" y="0" type="line" smooth="yes"/>
      <point x="565" y="0"/>
      <point x="620" y="57"/>
      <point x="620" y="164" type="curve" smooth="yes"/>
      <point x="620" y="698" type="line"/>
      <point x="544" y="698" type="line"/>
      <point x="544" y="168" type="line" smooth="yes"/>
      <point x="544" y="103"/>
      <point x="518" y="66"/>
      <point x="454" y="66" type="curve" smooth="yes"/>
      <point x="312" y="66" type="line"/>
      <point x="312" y="542" type="line"/>
      <point x="236" y="542" type="line"/>
    </contour>
    <contour>
      <point x="158" y="0" type="line"/>
      <point x="158" y="632" type="line"/>
      <point x="300" y="632" type="line" smooth="yes"/>
      <point x="364" y="632"/>
      <point x="390" y="595"/>
      <point x="390" y="530" type="curve" smooth="yes"/>
      <point x="390" y="156" type="line"/>
      <point x="466" y="156" type="line"/>
      <point x="466" y="534" type="line" smooth="yes"/>
      <point x="466" y="641"/>
      <point x="411" y="698"/>
      <point x="304" y="698" type="curve" smooth="yes"/>
      <point x="82" y="698" type="line"/>
      <point x="82" y="0" type="line"/>
    </contour>
  </outline>
</glyph>
<glyph name="kip" format="1">
  <advance width="559"/>
  <unicode hex="20AD"/>
  <outline>
    <contour>
      <point x="163" y="329" type="line" name="hr00"/>
      <point x="233" y="329" type="line"/>
      <point x="443" y="0" type="line"/>
      <point x="529" y="0" type="line"/>
      <point x="359" y="262" type="line"/>
      <point x="305" y="329" type="line"/>
      <point x="506" y="329" type="line"/>
      <point x="506" y="394" type="line"/>
      <point x="305" y="394" type="line"/>
      <point x="360" y="461" type="line"/>
      <point x="517" y="698" type="line"/>
      <point x="433" y="698" type="line"/>
      <point x="233" y="394" type="line"/>
      <point x="163" y="394" type="line"/>
      <point x="163" y="698" type="line"/>
      <point x="85" y="698" type="line"/>
      <point x="85" y="394" type="line"/>
      <point x="15" y="394" type="line"/>
      <point x="15" y="329" type="line"/>
      <point x="85" y="329" type="line"/>
      <point x="85" y="0" type="line"/>
      <point x="163" y="0" type="line"/>
    </contour>
  </outline>
</glyph>
<glyph name="peso" format="1">
  <advance width="569"/>
  <unicode hex="20B1"/>
  <outline>
    <contour>
      <point x="177" y="196" type="line" name=""/>
      <point x="300" y="196" type="line" smooth="yes"/>
      <point x="396" y="196"/>
      <point x="452" y="234"/>
      <point x="474" y="337" type="curve"/>
      <point x="553" y="337" type="line"/>
      <point x="553" y="402" type="line"/>
      <point x="482" y="402" type="line"/>
      <point x="482" y="492" type="line"/>
      <point x="553" y="492" type="line"/>
      <point x="553" y="557" type="line"/>
      <point x="474" y="557" type="line"/>
      <point x="452" y="660"/>
      <point x="396" y="698"/>
      <point x="300" y="698" type="curve" smooth="yes"/>
      <point x="99" y="698" type="line"/>
      <point x="99" y="557" type="line"/>
      <point x="29" y="557" type="line"/>
      <point x="29" y="492" type="line"/>
      <point x="99" y="492" type="line"/>
      <point x="99" y="402" type="line"/>
      <point x="29" y="402" type="line"/>
      <point x="29" y="337" type="line"/>
      <point x="99" y="337" type="line"/>
      <point x="99" y="0" type="line"/>
      <point x="177" y="0" type="line"/>
    </contour>
    <contour>
      <point x="177" y="630" type="line"/>
      <point x="304" y="630" type="line" smooth="yes"/>
      <point x="354" y="630"/>
      <point x="390" y="605"/>
      <point x="399" y="557" type="curve"/>
      <point x="177" y="557" type="line"/>
    </contour>
    <contour>
      <point x="177" y="398" type="line"/>
      <point x="177" y="496" type="line"/>
      <point x="401" y="496" type="line"/>
      <point x="401" y="398" type="line"/>
    </contour>
    <contour>
      <point x="177" y="264" type="line"/>
      <point x="177" y="337" type="line"/>
      <point x="399" y="337" type="line"/>
      <point x="390" y="289"/>
      <point x="355" y="264"/>
      <point x="304" y="264" type="curve" smooth="yes"/>
    </contour>
  </outline>
</glyph>
<glyph name="guarani" format="1">
  <advance width="608"/>
  <unicode hex="20B2"/>
  <outline>
    <contour>
      <point x="52" y="349" type="curve" smooth="yes"/>
      <point x="52" y="122"/>
      <point x="135" y="-4"/>
      <point x="303" y="-4" type="curve" smooth="yes" name=""/>
      <point x="454" y="-4"/>
      <point x="544" y="83"/>
      <point x="544" y="261" type="curve" smooth="yes"/>
      <point x="544" y="357" type="line"/>
      <point x="298" y="357" type="line"/>
      <point x="298" y="291" type="line"/>
      <point x="467" y="291" type="line"/>
      <point x="467" y="240" type="line" smooth="yes"/>
      <point x="467" y="112"/>
      <point x="406" y="65"/>
      <point x="303" y="65" type="curve" smooth="yes"/>
      <point x="217" y="65"/>
      <point x="138" y="125"/>
      <point x="138" y="271" type="curve" smooth="yes"/>
      <point x="138" y="427" type="line" smooth="yes"/>
      <point x="138" y="553"/>
      <point x="199" y="633"/>
      <point x="304" y="633" type="curve" smooth="yes"/>
      <point x="390" y="633"/>
      <point x="438" y="593"/>
      <point x="459" y="527" type="curve"/>
      <point x="523" y="566" type="line"/>
      <point x="478" y="678"/>
      <point x="387" y="702"/>
      <point x="304" y="702" type="curve" smooth="yes"/>
      <point x="146" y="702"/>
      <point x="52" y="592"/>
    </contour>
    <contour>
      <point x="261" y="-82" type="line"/>
      <point x="279" y="36" type="line"/>
      <point x="279" y="46" type="line"/>
      <point x="374" y="652" type="line"/>
      <point x="378" y="662" type="line"/>
      <point x="396" y="780" type="line"/>
      <point x="332" y="780" type="line"/>
      <point x="314" y="662" type="line"/>
      <point x="314" y="652" type="line"/>
      <point x="219" y="46" type="line"/>
      <point x="215" y="36" type="line"/>
      <point x="197" y="-82" type="line"/>
    </contour>
  </outline>
</glyph>
<glyph name="cedi" format="1">
  <advance width="564"/>
  <unicode hex="20B5"/>
  <outline>
    <contour>
      <point x="261" y="-82" type="line"/>
      <point x="279" y="36" type="line"/>
      <point x="279" y="46" type="line"/>
      <point x="374" y="652" type="line"/>
      <point x="378" y="662" type="line"/>
      <point x="396" y="780" type="line"/>
      <point x="332" y="780" type="line"/>
      <point x="314" y="662" type="line"/>
      <point x="314" y="652" type="line"/>
      <point x="219" y="46" type="line"/>
      <point x="215" y="36" type="line"/>
      <point x="197" y="-82" type="line"/>
    </contour>
    <contour>
      <point x="52" y="349" type="curve" smooth="yes"/>
      <point x="52" y="122"/>
      <point x="133" y="-4"/>
      <point x="298" y="-4" type="curve" smooth="yes" name=""/>
      <point x="408" y="-4"/>
      <point x="478" y="46"/>
      <point x="516" y="140" type="curve"/>
      <point x="452" y="180" type="line"/>
      <point x="429" y="106"/>
      <point x="384" y="65"/>
      <point x="298" y="65" type="curve" smooth="yes"/>
      <point x="214" y="65"/>
      <point x="138" y="125"/>
      <point x="138" y="271" type="curve" smooth="yes"/>
      <point x="138" y="427" type="line" smooth="yes"/>
      <point x="138" y="553"/>
      <point x="197" y="633"/>
      <point x="298" y="633" type="curve" smooth="yes"/>
      <point x="382" y="633"/>
      <point x="426" y="592"/>
      <point x="447" y="525" type="curve"/>
      <point x="511" y="564" type="line"/>
      <point x="465" y="678"/>
      <point x="381" y="702"/>
      <point x="298" y="702" type="curve" smooth="yes"/>
      <point x="144" y="702"/>
      <point x="52" y="592"/>
    </contour>
  </outline>
</glyph>
<glyph name="tenge" format="1">
  <advance width="547"/>
  <unicode hex="20B8"/>
  <outline>
    <contour>
      <point x="510" y="633" type="line" name="hr00"/>
      <point x="510" y="698" type="line"/>
      <point x="36" y="698" type="line"/>
      <point x="36" y="633" type="line"/>
    </contour>
    <contour>
      <point x="510" y="478" type="line"/>
      <point x="510" y="543" type="line"/>
      <point x="36" y="543" type="line"/>
      <point x="36" y="478" type="line"/>
      <point x="233" y="478" type="line"/>
      <point x="233" y="0" type="line"/>
      <point x="313" y="0" type="line"/>
      <point x="313" y="478" type="line"/>
    </contour>
  </outline>
</glyph>
<glyph name="rupeeindian" format="1">
  <advance width="546"/>
  <unicode hex="20B9"/>
  <outline>
    <contour>
      <point x="446" y="0" type="line"/>
      <point x="233" y="326" type="line"/>
      <point x="218" y="303" type="line"/>
      <point x="250" y="303" type="line" smooth="yes"/>
      <point x="350" y="303"/>
      <point x="416" y="348"/>
      <point x="422" y="478" type="curve"/>
      <point x="513" y="478" type="line"/>
      <point x="513" y="543" type="line"/>
      <point x="419" y="543" type="line"/>
      <point x="410" y="595"/>
      <point x="382" y="621"/>
      <point x="342" y="625" type="curve"/>
      <point x="342" y="633" type="line"/>
      <point x="513" y="633" type="line"/>
      <point x="513" y="698" type="line"/>
      <point x="48" y="698" type="line"/>
      <point x="48" y="633" type="line"/>
      <point x="248" y="633" type="line" smooth="yes"/>
      <point x="311" y="633"/>
      <point x="345" y="606"/>
      <point x="345" y="545" type="curve" smooth="yes"/>
      <point x="345" y="543" type="line"/>
      <point x="48" y="543" type="line"/>
      <point x="48" y="478" type="line" name=""/>
      <point x="345" y="478" type="line"/>
      <point x="345" y="458" type="line" smooth="yes"/>
      <point x="345" y="395"/>
      <point x="312" y="368"/>
      <point x="248" y="368" type="curve"/>
      <point x="48" y="368" type="line"/>
      <point x="48" y="303" type="line"/>
      <point x="158" y="303" type="line"/>
      <point x="352" y="0" type="line"/>
    </contour>
  </outline>
</glyph>
<glyph name="liraturkish" format="1">
  <advance width="546"/>
  <unicode hex="20BA"/>
  <outline>
    <contour>
      <point x="99" y="0" type="line" name="hr00"/>
      <point x="266" y="0" type="line" smooth="yes"/>
      <point x="433" y="0"/>
      <point x="504" y="113"/>
      <point x="504" y="300" type="curve"/>
      <point x="426" y="300" type="line"/>
      <point x="426" y="139"/>
      <point x="368" y="70"/>
      <point x="266" y="70" type="curve" smooth="yes"/>
      <point x="179" y="70" type="line"/>
      <point x="179" y="290" type="line"/>
      <point x="369" y="391" type="line"/>
      <point x="369" y="457" type="line"/>
      <point x="179" y="356" type="line"/>
      <point x="179" y="451" type="line"/>
      <point x="369" y="552" type="line"/>
      <point x="369" y="618" type="line"/>
      <point x="179" y="517" type="line"/>
      <point x="179" y="698" type="line"/>
      <point x="99" y="698" type="line"/>
      <point x="99" y="478" type="line"/>
      <point x="9" y="430" type="line"/>
      <point x="9" y="364" type="line"/>
      <point x="99" y="412" type="line"/>
      <point x="99" y="317" type="line"/>
      <point x="9" y="269" type="line"/>
      <point x="9" y="203" type="line"/>
      <point x="99" y="251" type="line"/>
    </contour>
  </outline>
</glyph>
<glyph name="bitcoin" format="1">
  <advance width="580"/>
  <unicode hex="20BF"/>
  <outline>
    <contour>
      <point x="301" y="-82" type="line"/>
      <point x="365" y="-82" type="line"/>
      <point x="365" y="21" type="line"/>
      <point x="460" y="21"/>
      <point x="525" y="89"/>
      <point x="525" y="211" type="curve"/>
      <point x="525" y="311"/>
      <point x="472" y="353"/>
      <point x="393" y="358" type="curve"/>
      <point x="393" y="366" type="line"/>
      <point x="461" y="375"/>
      <point x="503" y="416"/>
      <point x="503" y="508" type="curve" smooth="yes" name="hr01"/>
      <point x="503" y="613"/>
      <point x="454" y="667"/>
      <point x="365" y="676" type="curve"/>
      <point x="365" y="780" type="line"/>
      <point x="301" y="780" type="line"/>
      <point x="301" y="677" type="line"/>
      <point x="244" y="677" type="line"/>
      <point x="244" y="780" type="line"/>
      <point x="180" y="780" type="line"/>
      <point x="180" y="677" type="line"/>
      <point x="83" y="677" type="line"/>
      <point x="83" y="21" type="line"/>
      <point x="180" y="21" type="line"/>
      <point x="180" y="-82" type="line"/>
      <point x="244" y="-82" type="line"/>
      <point x="244" y="21" type="line"/>
      <point x="301" y="21" type="line"/>
    </contour>
    <contour>
      <point x="161" y="609" type="line"/>
      <point x="338" y="609" type="line" smooth="yes"/>
      <point x="396" y="609"/>
      <point x="421" y="582"/>
      <point x="421" y="525" type="curve" smooth="yes"/>
      <point x="421" y="476" type="line" smooth="yes"/>
      <point x="421" y="419"/>
      <point x="396" y="392"/>
      <point x="338" y="392" type="curve" smooth="yes"/>
      <point x="161" y="392" type="line"/>
    </contour>
    <contour>
      <point x="161" y="326" type="line"/>
      <point x="342" y="326" type="line" smooth="yes"/>
      <point x="404" y="326"/>
      <point x="443" y="297"/>
      <point x="443" y="235" type="curve" smooth="yes" name="hr02"/>
      <point x="443" y="180" type="line" smooth="yes"/>
      <point x="443" y="118"/>
      <point x="404" y="89"/>
      <point x="342" y="89" type="curve" smooth="yes"/>
      <point x="161" y="89" type="line"/>
    </contour>
  </outline>
</glyph>
<glyph name="litre" format="1">
  <advance width="443"/>
  <unicode hex="2113"/>
  <outline>
    <contour>
      <point x="247" y="-12" type="curve" smooth="yes" name=""/>
      <point x="331" y="-12"/>
      <point x="389" y="40"/>
      <point x="417" y="126" type="curve"/>
      <point x="363" y="156" type="line"/>
      <point x="339" y="87"/>
      <point x="304" y="51"/>
      <point x="253" y="51" type="curve" smooth="yes"/>
      <point x="200" y="51"/>
      <point x="178" y="85"/>
      <point x="178" y="158" type="curve" smooth="yes"/>
      <point x="178" y="220" type="line"/>
      <point x="287" y="308"/>
      <point x="366" y="443"/>
      <point x="366" y="586" type="curve" smooth="yes"/>
      <point x="366" y="694"/>
      <point x="327" y="752"/>
      <point x="237" y="752" type="curve" smooth="yes"/>
      <point x="147" y="752"/>
      <point x="108" y="694"/>
      <point x="108" y="586" type="curve" smooth="yes"/>
      <point x="108" y="238" type="line"/>
      <point x="81" y="218"/>
      <point x="55" y="199"/>
      <point x="28" y="179" type="curve"/>
      <point x="61" y="133" type="line"/>
      <point x="77" y="145"/>
      <point x="92" y="156"/>
      <point x="108" y="168" type="curve"/>
      <point x="108" y="147" type="line" smooth="yes"/>
      <point x="108" y="46"/>
      <point x="157" y="-12"/>
    </contour>
    <contour>
      <point x="235" y="689" type="curve" smooth="yes"/>
      <point x="272" y="689"/>
      <point x="292" y="667"/>
      <point x="292" y="601" type="curve" smooth="yes"/>
      <point x="292" y="576" type="line" smooth="yes"/>
      <point x="292" y="468"/>
      <point x="245" y="368"/>
      <point x="178" y="297" type="curve"/>
      <point x="178" y="601" type="line" smooth="yes"/>
      <point x="178" y="667"/>
      <point x="198" y="689"/>
    </contour>
  </outline>
</glyph>
<glyph name="numerosign" format="1">
  <advance width="931"/>
  <unicode hex="2116"/>
  <outline>
    <contour>
      <point x="748" y="364" type="curve" smooth="yes"/>
      <point x="833" y="364"/>
      <point x="893" y="419"/>
      <point x="893" y="537" type="curve" smooth="yes"/>
      <point x="893" y="655"/>
      <point x="833" y="710"/>
      <point x="748" y="710" type="curve" smooth="yes"/>
      <point x="663" y="710"/>
      <point x="603" y="655"/>
      <point x="603" y="537" type="curve" smooth="yes"/>
      <point x="603" y="419"/>
      <point x="663" y="364"/>
    </contour>
    <contour>
      <point x="161" y="0" type="line"/>
      <point x="161" y="453" type="line"/>
      <point x="154" y="597" type="line"/>
      <point x="164" y="597" type="line"/>
      <point x="221" y="453" type="line"/>
      <point x="434" y="0" type="line"/>
      <point x="535" y="0" type="line"/>
      <point x="535" y="698" type="line" name="hr01"/>
      <point x="457" y="698" type="line"/>
      <point x="457" y="245" type="line"/>
      <point x="464" y="101" type="line"/>
      <point x="454" y="101" type="line"/>
      <point x="397" y="245" type="line"/>
      <point x="184" y="698" type="line"/>
      <point x="83" y="698" type="line"/>
      <point x="83" y="0" type="line"/>
    </contour>
    <contour>
      <point x="748" y="414" type="curve" smooth="yes"/>
      <point x="697" y="414"/>
      <point x="668" y="450"/>
      <point x="668" y="501" type="curve" smooth="yes"/>
      <point x="668" y="573" type="line" smooth="yes"/>
      <point x="668" y="624"/>
      <point x="697" y="660"/>
      <point x="748" y="660" type="curve" smooth="yes" name="hr02"/>
      <point x="799" y="660"/>
      <point x="828" y="624"/>
      <point x="828" y="573" type="curve" smooth="yes"/>
      <point x="828" y="501" type="line" smooth="yes"/>
      <point x="828" y="450"/>
      <point x="799" y="414"/>
    </contour>
    <contour>
      <point x="873" y="251" type="line"/>
      <point x="873" y="310" type="line"/>
      <point x="623" y="310" type="line"/>
      <point x="623" y="251" type="line"/>
    </contour>
  </outline>
</glyph>
<glyph name="trademark" format="1">
  <advance width="590"/>
  <unicode hex="2122"/>
  <outline>
    <contour>
      <point x="155" y="420" type="line" name="hr00"/>
      <point x="155" y="654" type="line"/>
      <point x="234" y="654" type="line"/>
      <point x="234" y="698" type="line"/>
      <point x="28" y="698" type="line"/>
      <point x="28" y="654" type="line"/>
      <point x="107" y="654" type="line"/>
      <point x="107" y="420" type="line"/>
    </contour>
    <contour>
      <point x="323" y="420" type="line"/>
      <point x="323" y="550" type="line"/>
      <point x="317" y="632" type="line"/>
      <point x="325" y="632" type="line"/>
      <point x="399" y="474" type="line"/>
      <point x="474" y="632" type="line"/>
      <point x="482" y="632" type="line"/>
      <point x="476" y="550" type="line"/>
      <point x="476" y="420" type="line"/>
      <point x="520" y="420" type="line"/>
      <point x="520" y="698" type="line"/>
      <point x="460" y="698" type="line"/>
      <point x="401" y="563" type="line"/>
      <point x="397" y="563" type="line"/>
      <point x="338" y="698" type="line"/>
      <point x="279" y="698" type="line"/>
      <point x="279" y="420" type="line"/>
    </contour>
  </outline>
</glyph>
<glyph name="estimated" format="1">
  <advance width="653"/>
  <unicode hex="212E"/>
  <outline>
    <contour>
      <point x="164" y="349" type="line" name="hr00"/>
      <point x="622" y="349" type="line"/>
      <point x="622" y="589"/>
      <point x="497" y="710"/>
      <point x="327" y="710" type="curve" smooth="yes"/>
      <point x="157" y="710"/>
      <point x="32" y="589"/>
      <point x="32" y="349" type="curve" smooth="yes"/>
      <point x="32" y="109"/>
      <point x="157" y="-12"/>
      <point x="327" y="-12" type="curve" smooth="yes"/>
      <point x="464" y="-12"/>
      <point x="544" y="60"/>
      <point x="591" y="160" type="curve"/>
      <point x="551" y="182" type="line"/>
      <point x="510" y="93"/>
      <point x="439" y="34"/>
      <point x="327" y="34" type="curve" smooth="yes"/>
      <point x="258" y="34"/>
      <point x="199" y="61"/>
      <point x="164" y="97" type="curve"/>
    </contour>
    <contour>
      <point x="164" y="395" type="line"/>
      <point x="164" y="605" type="line"/>
      <point x="201" y="638"/>
      <point x="258" y="664"/>
      <point x="327" y="664" type="curve" smooth="yes"/>
      <point x="397" y="664"/>
      <point x="454" y="638"/>
      <point x="490" y="605" type="curve"/>
      <point x="490" y="395" type="line"/>
    </contour>
  </outline>
</glyph>
<glyph name="arrowleftright" format="1">
  <advance width="780"/>
  <unicode hex="2194"/>
  <outline>
    <contour>
      <point x="29" y="349" type="line" name="hr00"/>
      <point x="229" y="149" type="line"/>
      <point x="275" y="195" type="line"/>
      <point x="211" y="259" type="line"/>
      <point x="135" y="316" type="line"/>
      <point x="140" y="326" type="line"/>
      <point x="243" y="317" type="line"/>
      <point x="537" y="317" type="line"/>
      <point x="640" y="326" type="line"/>
      <point x="645" y="316" type="line"/>
      <point x="569" y="259" type="line"/>
      <point x="505" y="195" type="line"/>
      <point x="551" y="149" type="line"/>
      <point x="751" y="349" type="line"/>
      <point x="551" y="549" type="line"/>
      <point x="505" y="503" type="line"/>
      <point x="569" y="439" type="line"/>
      <point x="644" y="383" type="line"/>
      <point x="639" y="372" type="line"/>
      <point x="537" y="381" type="line"/>
      <point x="243" y="381" type="line"/>
      <point x="141" y="372" type="line"/>
      <point x="136" y="383" type="line"/>
      <point x="211" y="439" type="line"/>
      <point x="275" y="503" type="line"/>
      <point x="229" y="549" type="line"/>
    </contour>
  </outline>
</glyph>
<glyph name="arrowupdown" format="1">
  <advance width="780"/>
  <unicode hex="2195"/>
  <outline>
    <contour>
      <point x="390" y="-12" type="line" name="hr00"/>
      <point x="590" y="188" type="line"/>
      <point x="544" y="234" type="line"/>
      <point x="480" y="170" type="line"/>
      <point x="423" y="94" type="line"/>
      <point x="413" y="99" type="line"/>
      <point x="422" y="202" type="line"/>
      <point x="422" y="496" type="line"/>
      <point x="413" y="599" type="line"/>
      <point x="423" y="604" type="line"/>
      <point x="480" y="528" type="line"/>
      <point x="544" y="464" type="line"/>
      <point x="590" y="510" type="line"/>
      <point x="390" y="710" type="line"/>
      <point x="190" y="510" type="line"/>
      <point x="236" y="464" type="line"/>
      <point x="300" y="528" type="line"/>
      <point x="356" y="603" type="line"/>
      <point x="367" y="598" type="line"/>
      <point x="358" y="496" type="line"/>
      <point x="358" y="202" type="line"/>
      <point x="367" y="100" type="line"/>
      <point x="356" y="95" type="line"/>
      <point x="300" y="170" type="line"/>
      <point x="236" y="234" type="line"/>
      <point x="190" y="188" type="line"/>
    </contour>
  </outline>
</glyph>
<glyph name="Delta" format="1">
  <advance width="580"/>
  <unicode hex="2206"/>
  <outline>
    <contour>
      <point x="44" y="0" type="line" name="hr00"/>
      <point x="536" y="0" type="line"/>
      <point x="536" y="68" type="line"/>
      <point x="336" y="698" type="line"/>
      <point x="244" y="698" type="line"/>
      <point x="44" y="68" type="line"/>
    </contour>
    <contour>
      <point x="452" y="70" type="line"/>
      <point x="126" y="70" type="line"/>
      <point x="240" y="451" type="line"/>
      <point x="284" y="628" type="line"/>
      <point x="294" y="628" type="line"/>
      <point x="338" y="451" type="line"/>
    </contour>
  </outline>
</glyph>
<glyph name="product" format="1">
  <advance width="637"/>
  <unicode hex="220F"/>
  <outline>
    <contour>
      <point x="195" y="-200" type="line" name="hr00"/>
      <point x="195" y="628" type="line"/>
      <point x="442" y="628" type="line"/>
      <point x="442" y="-200" type="line"/>
      <point x="522" y="-200" type="line"/>
      <point x="522" y="628" type="line"/>
      <point x="594" y="628" type="line"/>
      <point x="594" y="698" type="line"/>
      <point x="43" y="698" type="line"/>
      <point x="43" y="628" type="line"/>
      <point x="115" y="628" type="line"/>
      <point x="115" y="-200" type="line"/>
    </contour>
  </outline>
</glyph>
<glyph name="summation" format="1">
  <advance width="457"/>
  <unicode hex="2211"/>
  <outline>
    <contour>
      <point x="424" y="-130" type="line" name="hr00"/>
      <point x="101" y="-130" type="line"/>
      <point x="323" y="230" type="line"/>
      <point x="323" y="268" type="line"/>
      <point x="101" y="628" type="line"/>
      <point x="424" y="628" type="line"/>
      <point x="424" y="698" type="line"/>
      <point x="18" y="698" type="line"/>
      <point x="18" y="630" type="line"/>
      <point x="250" y="253" type="line"/>
      <point x="250" y="245" type="line"/>
      <point x="18" y="-132" type="line"/>
      <point x="18" y="-200" type="line"/>
      <point x="424" y="-200" type="line"/>
    </contour>
  </outline>
</glyph>
<glyph name="radical" format="1">
  <advance width="540"/>
  <unicode hex="221A"/>
  <outline>
    <contour>
      <point x="331" y="0" type="line" name="hr00"/>
      <point x="517" y="700" type="line"/>
      <point x="443" y="700" type="line"/>
      <point x="327" y="256" type="line"/>
      <point x="284" y="63" type="line"/>
      <point x="274" y="63" type="line"/>
      <point x="231" y="256" type="line"/>
      <point x="162" y="516" type="line"/>
      <point x="19" y="516" type="line"/>
      <point x="19" y="449" type="line"/>
      <point x="106" y="449" type="line"/>
      <point x="227" y="0" type="line"/>
    </contour>
  </outline>
</glyph>
<glyph name="infinity" format="1">
  <advance width="669"/>
  <unicode hex="221E"/>
  <outline>
    <contour>
      <point x="176" y="117" type="curve" smooth="yes" name="hr00"/>
      <point x="245" y="117"/>
      <point x="298" y="160"/>
      <point x="309" y="257" type="curve"/>
      <point x="319" y="257" type="line"/>
      <point x="348" y="164"/>
      <point x="395" y="117"/>
      <point x="493" y="117" type="curve" smooth="yes"/>
      <point x="595" y="117"/>
      <point x="654" y="185"/>
      <point x="654" y="306" type="curve" smooth="yes"/>
      <point x="654" y="427"/>
      <point x="595" y="495"/>
      <point x="493" y="495" type="curve" smooth="yes"/>
      <point x="424" y="495"/>
      <point x="371" y="452"/>
      <point x="360" y="355" type="curve"/>
      <point x="350" y="355" type="line"/>
      <point x="321" y="448"/>
      <point x="274" y="495"/>
      <point x="176" y="495" type="curve" smooth="yes"/>
      <point x="74" y="495"/>
      <point x="15" y="427"/>
      <point x="15" y="306" type="curve" smooth="yes"/>
      <point x="15" y="185"/>
      <point x="74" y="117"/>
    </contour>
    <contour>
      <point x="176" y="181" type="curve" smooth="yes"/>
      <point x="125" y="181"/>
      <point x="91" y="214"/>
      <point x="91" y="272" type="curve" smooth="yes"/>
      <point x="91" y="340" type="line" smooth="yes"/>
      <point x="91" y="398"/>
      <point x="125" y="431"/>
      <point x="176" y="431" type="curve" smooth="yes"/>
      <point x="238" y="431"/>
      <point x="276" y="396"/>
      <point x="297" y="307" type="curve"/>
      <point x="277" y="217"/>
      <point x="238" y="181"/>
    </contour>
    <contour>
      <point x="493" y="181" type="curve" smooth="yes"/>
      <point x="431" y="181"/>
      <point x="393" y="216"/>
      <point x="372" y="305" type="curve"/>
      <point x="393" y="395"/>
      <point x="431" y="431"/>
      <point x="493" y="431" type="curve" smooth="yes"/>
      <point x="544" y="431"/>
      <point x="578" y="398"/>
      <point x="578" y="340" type="curve" smooth="yes"/>
      <point x="578" y="272" type="line" smooth="yes"/>
      <point x="578" y="214"/>
      <point x="544" y="181"/>
    </contour>
  </outline>
</glyph>
<glyph name="notequal" format="1">
  <advance width="540"/>
  <unicode hex="2260"/>
  <outline>
    <contour>
      <point x="190" y="74" type="line" name="hr00"/>
      <point x="239" y="174" type="line"/>
      <point x="480" y="174" type="line"/>
      <point x="480" y="238" type="line"/>
      <point x="271" y="238" type="line"/>
      <point x="336" y="372" type="line"/>
      <point x="480" y="372" type="line"/>
      <point x="480" y="436" type="line"/>
      <point x="368" y="436" type="line"/>
      <point x="418" y="538" type="line"/>
      <point x="350" y="538" type="line"/>
      <point x="300" y="436" type="line"/>
      <point x="60" y="436" type="line"/>
      <point x="60" y="372" type="line"/>
      <point x="268" y="372" type="line"/>
      <point x="203" y="238" type="line"/>
      <point x="60" y="238" type="line"/>
      <point x="60" y="174" type="line"/>
      <point x="171" y="174" type="line"/>
      <point x="122" y="74" type="line"/>
    </contour>
  </outline>
</glyph>
<glyph name="lozenge" format="1">
  <advance width="540"/>
  <unicode hex="25CA"/>
  <outline>
    <contour>
      <point x="307" y="0" type="line" name="hr00"/>
      <point x="498" y="349" type="line"/>
      <point x="307" y="698" type="line"/>
      <point x="233" y="698" type="line"/>
      <point x="42" y="349" type="line"/>
      <point x="233" y="0" type="line"/>
    </contour>
    <contour>
      <point x="265" y="70" type="line"/>
      <point x="120" y="349" type="line"/>
      <point x="265" y="628" type="line"/>
      <point x="275" y="628" type="line"/>
      <point x="420" y="349" type="line"/>
      <point x="275" y="70" type="line"/>
    </contour>
  </outline>
</glyph>
<glyph name="arrowrightdowncorner" format="1">
  <advance width="780"/>
  <unicode hex="2B0E"/>
  <outline>
    <contour>
      <point x="551" y="122" type="line" name="hr00"/>
      <point x="751" y="322" type="line"/>
      <point x="705" y="368" type="line"/>
      <point x="641" y="304" type="line"/>
      <point x="585" y="229" type="line"/>
      <point x="574" y="234" type="line"/>
      <point x="583" y="336" type="line"/>
      <point x="583" y="614" type="line"/>
      <point x="41" y="614" type="line"/>
      <point x="41" y="550" type="line"/>
      <point x="519" y="550" type="line"/>
      <point x="519" y="336" type="line"/>
      <point x="528" y="233" type="line"/>
      <point x="518" y="228" type="line"/>
      <point x="461" y="304" type="line"/>
      <point x="397" y="368" type="line"/>
      <point x="351" y="322" type="line"/>
    </contour>
  </outline>
</glyph>
<glyph name="fi" format="1">
  <advance width="522"/>
  <unicode hex="FB01"/>
  <outline>
    <contour>
      <point x="101" y="0" type="line"/>
      <point x="177" y="0" type="line"/>
      <point x="177" y="449" type="line"/>
      <point x="370" y="449" type="line"/>
      <point x="370" y="0" type="line"/>
      <point x="446" y="0" type="line"/>
      <point x="446" y="516" type="line"/>
      <point x="177" y="516" type="line"/>
      <point x="177" y="673" type="line"/>
      <point x="276" y="673" type="line"/>
      <point x="276" y="740" type="line"/>
      <point x="199" y="740" type="line" smooth="yes"/>
      <point x="131" y="740"/>
      <point x="101" y="710"/>
      <point x="101" y="642" type="curve" smooth="yes"/>
      <point x="101" y="516" type="line"/>
      <point x="26" y="516" type="line"/>
      <point x="26" y="449" type="line"/>
      <point x="101" y="449" type="line"/>
    </contour>
    <contour>
      <point x="408" y="641" type="curve" smooth="yes" name="hr01"/>
      <point x="441" y="641"/>
      <point x="455" y="656"/>
      <point x="455" y="682" type="curve" smooth="yes"/>
      <point x="455" y="698" type="line" smooth="yes"/>
      <point x="455" y="724"/>
      <point x="441" y="739"/>
      <point x="408" y="739" type="curve" smooth="yes"/>
      <point x="375" y="739"/>
      <point x="361" y="724"/>
      <point x="361" y="698" type="curve" smooth="yes"/>
      <point x="361" y="682" type="line" smooth="yes"/>
      <point x="361" y="656"/>
      <point x="375" y="641"/>
    </contour>
  </outline>
</glyph>
<glyph name="a.alt01" format="1">
  <advance width="524"/>
  <outline>
    <contour>
      <point x="372" y="0" type="line"/>
      <point x="448" y="0" type="line"/>
      <point x="448" y="516" type="line"/>
      <point x="372" y="516" type="line"/>
      <point x="372" y="432" type="line"/>
      <point x="362" y="432" type="line"/>
      <point x="342" y="499"/>
      <point x="296" y="528"/>
      <point x="232" y="528" type="curve" smooth="yes" name="hr01"/>
      <point x="109" y="528"/>
      <point x="44" y="424"/>
      <point x="44" y="258" type="curve" smooth="yes"/>
      <point x="44" y="92"/>
      <point x="109" y="-12"/>
      <point x="232" y="-12" type="curve" smooth="yes"/>
      <point x="296" y="-12"/>
      <point x="342" y="17"/>
      <point x="362" y="84" type="curve" name="hr02"/>
      <point x="372" y="84" type="line"/>
    </contour>
    <contour>
      <point x="255" y="56" type="curve" smooth="yes" name="hr03"/>
      <point x="171" y="56"/>
      <point x="126" y="112"/>
      <point x="126" y="206" type="curve" smooth="yes"/>
      <point x="126" y="310" type="line" smooth="yes"/>
      <point x="126" y="404"/>
      <point x="171" y="460"/>
      <point x="255" y="460" type="curve" smooth="yes"/>
      <point x="319" y="460"/>
      <point x="372" y="420"/>
      <point x="372" y="362" type="curve" smooth="yes"/>
      <point x="372" y="154" type="line" smooth="yes"/>
      <point x="372" y="96"/>
      <point x="319" y="56"/>
    </contour>
    <contour>
      <point x="230" y="0" type="move" name="bottom"/>
    </contour>
    <contour>
      <point x="448" y="0" type="move" name="bottomright"/>
    </contour>
    <contour>
      <point x="252" y="540" type="move" name="top"/>
    </contour>
  </outline>
</glyph>
<glyph name="acute.case" format="1">
  <advance width="540"/>
  <outline>
    <contour>
      <point x="374" y="913" type="line" name="hr00"/>
      <point x="305" y="949" type="line"/>
      <point x="228" y="780" type="line"/>
      <point x="277" y="755" type="line"/>
    </contour>
    <contour>
      <point x="270" y="698" type="move" name="_top"/>
    </contour>
  </outline>
</glyph>
<glyph name="aogonek.alt01" format="1">
  <advance width="524"/>
  <outline>
    <contour>
      <point x="448" y="516" type="line"/>
      <point x="372" y="516" type="line"/>
      <point x="372" y="432" type="line"/>
      <point x="362" y="432" type="line"/>
      <point x="342" y="499"/>
      <point x="296" y="528"/>
      <point x="232" y="528" type="curve" smooth="yes" name="hr01"/>
      <point x="109" y="528"/>
      <point x="44" y="424"/>
      <point x="44" y="258" type="curve" smooth="yes"/>
      <point x="44" y="92"/>
      <point x="109" y="-12"/>
      <point x="232" y="-12" type="curve" smooth="yes"/>
      <point x="296" y="-12"/>
      <point x="342" y="17"/>
      <point x="362" y="84" type="curve"/>
      <point x="372" y="84" type="line"/>
      <point x="372" y="0" type="line" name="hr02"/>
      <point x="397" y="0" type="line"/>
      <point x="399" y="-9" type="line"/>
      <point x="338" y="-41"/>
      <point x="289" y="-82"/>
      <point x="289" y="-138" type="curve" smooth="yes"/>
      <point x="289" y="-185"/>
      <point x="330" y="-207"/>
      <point x="384" y="-207" type="curve" smooth="yes"/>
      <point x="423" y="-207"/>
      <point x="455" y="-188"/>
      <point x="468" y="-168" type="curve"/>
      <point x="433" y="-132" type="line"/>
      <point x="422" y="-147"/>
      <point x="407" y="-154"/>
      <point x="388" y="-154" type="curve" smooth="yes"/>
      <point x="368" y="-154"/>
      <point x="352" y="-144"/>
      <point x="352" y="-120" type="curve" smooth="yes"/>
      <point x="352" y="-81"/>
      <point x="378" y="-51"/>
      <point x="448" y="0" type="curve"/>
    </contour>
    <contour>
      <point x="255" y="56" type="curve" smooth="yes" name="hr03"/>
      <point x="171" y="56"/>
      <point x="126" y="112"/>
      <point x="126" y="206" type="curve" smooth="yes"/>
      <point x="126" y="310" type="line" smooth="yes"/>
      <point x="126" y="404"/>
      <point x="171" y="460"/>
      <point x="255" y="460" type="curve" smooth="yes"/>
      <point x="319" y="460"/>
      <point x="372" y="420"/>
      <point x="372" y="362" type="curve" smooth="yes"/>
      <point x="372" y="154" type="line" smooth="yes"/>
      <point x="372" y="96"/>
      <point x="319" y="56"/>
    </contour>
  </outline>
</glyph>
<glyph name="brevetilde" format="1">
  <advance width="0"/>
  <outline>
    <contour>
      <point x="0" y="585" type="curve" smooth="yes"/>
      <point x="96" y="585"/>
      <point x="124" y="657"/>
      <point x="141" y="712" type="curve"/>
      <point x="99" y="733" type="line"/>
      <point x="81" y="700" type="line" smooth="yes"/>
      <point x="65" y="670"/>
      <point x="43" y="641"/>
      <point x="0" y="641" type="curve" smooth="yes"/>
      <point x="-43" y="641"/>
      <point x="-65" y="670"/>
      <point x="-81" y="700" type="curve" smooth="yes"/>
      <point x="-99" y="733" type="line"/>
      <point x="-141" y="712" type="line"/>
      <point x="-124" y="657"/>
      <point x="-96" y="585"/>
    </contour>
    <contour>
      <point x="65" y="770" type="curve" smooth="yes"/>
      <point x="108" y="770"/>
      <point x="134" y="796"/>
      <point x="150" y="822" type="curve"/>
      <point x="120" y="860" type="line"/>
      <point x="102" y="843"/>
      <point x="87" y="832"/>
      <point x="67" y="832" type="curve" smooth="yes"/>
      <point x="52" y="832"/>
      <point x="35" y="840"/>
      <point x="7" y="857" type="curve" smooth="yes"/>
      <point x="-12" y="868"/>
      <point x="-35" y="883"/>
      <point x="-65" y="883" type="curve" smooth="yes" name="hr01"/>
      <point x="-108" y="883"/>
      <point x="-134" y="857"/>
      <point x="-150" y="831" type="curve"/>
      <point x="-120" y="793" type="line"/>
      <point x="-102" y="810"/>
      <point x="-87" y="821"/>
      <point x="-67" y="821" type="curve" smooth="yes"/>
      <point x="-52" y="821"/>
      <point x="-35" y="813"/>
      <point x="-7" y="796" type="curve" smooth="yes"/>
      <point x="12" y="785"/>
      <point x="35" y="770"/>
    </contour>
    <contour>
      <point x="0" y="540" type="move" name="_top"/>
    </contour>
  </outline>
</glyph>
<glyph name="caron.case" format="1">
  <advance width="540"/>
  <outline>
    <contour>
      <point x="316" y="769" type="line" name="hr00"/>
      <point x="417" y="913" type="line"/>
      <point x="376" y="943" type="line"/>
      <point x="270" y="825" type="line"/>
      <point x="164" y="943" type="line"/>
      <point x="123" y="913" type="line"/>
      <point x="224" y="769" type="line"/>
    </contour>
    <contour>
      <point x="270" y="698" type="move" name="_top"/>
    </contour>
  </outline>
</glyph>
<glyph name="circumflex.alt01" format="1">
  <advance width="540"/>
  <outline>
    <contour>
      <point x="224" y="765" type="line" name="hr00"/>
      <point x="136" y="621" type="line"/>
      <point x="177" y="591" type="line"/>
      <point x="270" y="709" type="line"/>
      <point x="363" y="591" type="line"/>
      <point x="404" y="621" type="line"/>
      <point x="316" y="765" type="line"/>
    </contour>
    <contour>
      <point x="270" y="540" type="move" name="_top"/>
    </contour>
  </outline>
</glyph>
<glyph name="circumflex.case" format="1">
  <advance width="540"/>
  <outline>
    <contour>
      <point x="224" y="935" type="line" name="hr00"/>
      <point x="123" y="791" type="line"/>
      <point x="164" y="761" type="line"/>
      <point x="270" y="879" type="line"/>
      <point x="376" y="761" type="line"/>
      <point x="417" y="791" type="line"/>
      <point x="316" y="935" type="line"/>
    </contour>
    <contour>
      <point x="270" y="698" type="move" name="_top"/>
    </contour>
  </outline>
</glyph>
<glyph name="circumflexacute.case" format="1">
  <advance width="0"/>
  <outline>
    <contour>
      <point x="241" y="1026" type="line" name="hr00"/>
      <point x="172" y="1062" type="line"/>
      <point x="95" y="893" type="line"/>
      <point x="144" y="868" type="line"/>
    </contour>
    <contour>
      <point x="-46" y="915" type="line"/>
      <point x="-148" y="781" type="line"/>
      <point x="-108" y="751" type="line"/>
      <point x="0" y="859" type="line"/>
      <point x="108" y="751" type="line"/>
      <point x="148" y="781" type="line"/>
      <point x="46" y="915" type="line"/>
    </contour>
    <contour>
      <point x="0" y="698" type="move" name="_top"/>
    </contour>
  </outline>
</glyph>
<glyph name="circumflexacute" format="1">
  <advance width="0"/>
  <outline>
    <contour>
      <point x="241" y="856" type="line" name="hr00"/>
      <point x="172" y="892" type="line"/>
      <point x="95" y="723" type="line"/>
      <point x="144" y="698" type="line"/>
    </contour>
    <contour>
      <point x="-46" y="745" type="line"/>
      <point x="-148" y="611" type="line"/>
      <point x="-108" y="581" type="line"/>
      <point x="0" y="689" type="line"/>
      <point x="108" y="581" type="line"/>
      <point x="148" y="611" type="line"/>
      <point x="46" y="745" type="line"/>
    </contour>
    <contour>
      <point x="0" y="540" type="move" name="_top"/>
    </contour>
  </outline>
</glyph>
<glyph name="circumflexbreve.case" format="1">
  <advance width="0"/>
  <outline>
    <contour>
      <point x="-46" y="890" type="line" name="hr00"/>
      <point x="-150" y="784" type="line"/>
      <point x="-114" y="754" type="line"/>
      <point x="0" y="834" type="line"/>
      <point x="114" y="754" type="line"/>
      <point x="150" y="784" type="line"/>
      <point x="46" y="890" type="line"/>
    </contour>
    <contour>
      <point x="0" y="917" type="curve" smooth="yes"/>
      <point x="96" y="917"/>
      <point x="124" y="989"/>
      <point x="141" y="1044" type="curve"/>
      <point x="99" y="1065" type="line"/>
      <point x="81" y="1032" type="line" smooth="yes"/>
      <point x="65" y="1002"/>
      <point x="43" y="973"/>
      <point x="0" y="973" type="curve" smooth="yes"/>
      <point x="-43" y="973"/>
      <point x="-65" y="1002"/>
      <point x="-81" y="1032" type="curve" smooth="yes"/>
      <point x="-99" y="1065" type="line"/>
      <point x="-141" y="1044" type="line"/>
      <point x="-124" y="989"/>
      <point x="-96" y="917"/>
    </contour>
    <contour>
      <point x="0" y="698" type="move" name="_top"/>
    </contour>
  </outline>
</glyph>
<glyph name="circumflexbreve" format="1">
  <advance width="0"/>
  <outline>
    <contour>
      <point x="-46" y="721" type="line" name="hr00"/>
      <point x="-150" y="615" type="line"/>
      <point x="-114" y="585" type="line"/>
      <point x="0" y="665" type="line"/>
      <point x="114" y="585" type="line"/>
      <point x="150" y="615" type="line"/>
      <point x="46" y="721" type="line"/>
    </contour>
    <contour>
      <point x="0" y="748" type="curve" smooth="yes"/>
      <point x="96" y="748"/>
      <point x="124" y="820"/>
      <point x="141" y="875" type="curve"/>
      <point x="99" y="896" type="line"/>
      <point x="81" y="863" type="line" smooth="yes"/>
      <point x="65" y="833"/>
      <point x="43" y="804"/>
      <point x="0" y="804" type="curve" smooth="yes"/>
      <point x="-43" y="804"/>
      <point x="-65" y="833"/>
      <point x="-81" y="863" type="curve" smooth="yes"/>
      <point x="-99" y="896" type="line"/>
      <point x="-141" y="875" type="line"/>
      <point x="-124" y="820"/>
      <point x="-96" y="748"/>
    </contour>
    <contour>
      <point x="0" y="540" type="move" name="_top"/>
    </contour>
  </outline>
</glyph>
<glyph name="circumflextilde.case" format="1">
  <advance width="0"/>
  <outline>
    <contour>
      <point x="-65" y="1053" type="curve" smooth="yes"/>
      <point x="-108" y="1053"/>
      <point x="-134" y="1027"/>
      <point x="-150" y="1001" type="curve"/>
      <point x="-120" y="963" type="line"/>
      <point x="-102" y="980"/>
      <point x="-87" y="991"/>
      <point x="-67" y="991" type="curve" smooth="yes"/>
      <point x="-52" y="991"/>
      <point x="-35" y="983"/>
      <point x="-7" y="966" type="curve" smooth="yes"/>
      <point x="12" y="955"/>
      <point x="35" y="940"/>
      <point x="65" y="940" type="curve" smooth="yes" name="hr01"/>
      <point x="108" y="940"/>
      <point x="134" y="966"/>
      <point x="150" y="992" type="curve"/>
      <point x="120" y="1030" type="line"/>
      <point x="102" y="1013"/>
      <point x="87" y="1002"/>
      <point x="67" y="1002" type="curve" smooth="yes"/>
      <point x="52" y="1002"/>
      <point x="35" y="1010"/>
      <point x="7" y="1027" type="curve" smooth="yes"/>
      <point x="-12" y="1038"/>
      <point x="-35" y="1053"/>
    </contour>
    <contour>
      <point x="-46" y="915" type="line"/>
      <point x="-148" y="781" type="line"/>
      <point x="-108" y="751" type="line"/>
      <point x="0" y="859" type="line"/>
      <point x="108" y="751" type="line"/>
      <point x="148" y="781" type="line"/>
      <point x="46" y="915" type="line"/>
    </contour>
    <contour>
      <point x="0" y="698" type="move" name="_top"/>
    </contour>
  </outline>
</glyph>
<glyph name="circumflextilde" format="1">
  <advance width="0"/>
  <outline>
    <contour>
      <point x="-65" y="883" type="curve" smooth="yes"/>
      <point x="-108" y="883"/>
      <point x="-134" y="857"/>
      <point x="-150" y="831" type="curve"/>
      <point x="-120" y="793" type="line"/>
      <point x="-102" y="810"/>
      <point x="-87" y="821"/>
      <point x="-67" y="821" type="curve" smooth="yes"/>
      <point x="-52" y="821"/>
      <point x="-35" y="813"/>
      <point x="-7" y="796" type="curve" smooth="yes"/>
      <point x="12" y="785"/>
      <point x="35" y="770"/>
      <point x="65" y="770" type="curve" smooth="yes" name="hr01"/>
      <point x="108" y="770"/>
      <point x="134" y="796"/>
      <point x="150" y="822" type="curve"/>
      <point x="120" y="860" type="line"/>
      <point x="102" y="843"/>
      <point x="87" y="832"/>
      <point x="67" y="832" type="curve" smooth="yes"/>
      <point x="52" y="832"/>
      <point x="35" y="840"/>
      <point x="7" y="857" type="curve" smooth="yes"/>
      <point x="-12" y="868"/>
      <point x="-35" y="883"/>
    </contour>
    <contour>
      <point x="-46" y="745" type="line"/>
      <point x="-148" y="611" type="line"/>
      <point x="-108" y="581" type="line"/>
      <point x="0" y="689" type="line"/>
      <point x="108" y="581" type="line"/>
      <point x="148" y="611" type="line"/>
      <point x="46" y="745" type="line"/>
    </contour>
    <contour>
      <point x="0" y="540" type="move" name="_top"/>
    </contour>
  </outline>
</glyph>
<glyph name="dotaccent.case" format="1">
  <advance width="540"/>
  <outline>
    <contour>
      <point x="270" y="792" type="curve" smooth="yes" name="hr00"/>
      <point x="303" y="792"/>
      <point x="320" y="807"/>
      <point x="320" y="832" type="curve" smooth="yes"/>
      <point x="320" y="850" type="line" smooth="yes"/>
      <point x="320" y="875"/>
      <point x="303" y="890"/>
      <point x="270" y="890" type="curve" smooth="yes"/>
      <point x="237" y="890"/>
      <point x="220" y="875"/>
      <point x="220" y="850" type="curve" smooth="yes"/>
      <point x="220" y="832" type="line" smooth="yes"/>
      <point x="220" y="807"/>
      <point x="237" y="792"/>
    </contour>
    <contour>
      <point x="270" y="698" type="move" name="_top"/>
    </contour>
  </outline>
</glyph>
<glyph name="five.tosf" format="1">
  <advance width="540"/>
  <outline>
    <contour>
      <point x="264" y="-165" type="curve" smooth="yes" name=""/>
      <point x="397" y="-165"/>
      <point x="476" y="-84"/>
      <point x="476" y="65" type="curve" smooth="yes"/>
      <point x="476" y="208"/>
      <point x="403" y="280"/>
      <point x="293" y="280" type="curve" smooth="yes"/>
      <point x="227" y="280"/>
      <point x="182" y="245"/>
      <point x="164" y="197" type="curve"/>
      <point x="154" y="197" type="line"/>
      <point x="173" y="466" type="line"/>
      <point x="445" y="466" type="line"/>
      <point x="445" y="536" type="line"/>
      <point x="111" y="536" type="line"/>
      <point x="85" y="160" type="line"/>
      <point x="154" y="151" type="line"/>
      <point x="179" y="185"/>
      <point x="207" y="211"/>
      <point x="262" y="211" type="curve" smooth="yes"/>
      <point x="353" y="211"/>
      <point x="394" y="162"/>
      <point x="394" y="70" type="curve" smooth="yes"/>
      <point x="394" y="47" type="line" smooth="yes"/>
      <point x="394" y="-47"/>
      <point x="355" y="-94"/>
      <point x="265" y="-94" type="curve" smooth="yes"/>
      <point x="196" y="-94"/>
      <point x="158" y="-56"/>
      <point x="126" y="-2" type="curve"/>
      <point x="66" y="-48" type="line"/>
      <point x="103" y="-109"/>
      <point x="159" y="-165"/>
    </contour>
  </outline>
</glyph>
<glyph name="fraction.alt01" format="1">
  <advance width="100"/>
  <outline>
    <contour>
      <point x="135" y="434" type="line" name="hr00"/>
      <point x="301" y="698" type="line"/>
      <point x="239" y="698" type="line"/>
      <point x="73" y="434" type="line"/>
    </contour>
    <contour>
      <point x="-139" y="0" type="line"/>
      <point x="21" y="254" type="line"/>
      <point x="-41" y="254" type="line"/>
      <point x="-201" y="0" type="line"/>
    </contour>
  </outline>
</glyph>
<glyph name="g.alt01" format="1">
  <advance width="524"/>
  <outline>
    <contour>
      <point x="448" y="516" type="line"/>
      <point x="372" y="516" type="line"/>
      <point x="372" y="432" type="line"/>
      <point x="362" y="432" type="line"/>
      <point x="342" y="499"/>
      <point x="296" y="528"/>
      <point x="232" y="528" type="curve" smooth="yes" name="hr01"/>
      <point x="109" y="528"/>
      <point x="44" y="424"/>
      <point x="44" y="258" type="curve" smooth="yes"/>
      <point x="44" y="92"/>
      <point x="109" y="-12"/>
      <point x="232" y="-12" type="curve" smooth="yes"/>
      <point x="296" y="-12"/>
      <point x="342" y="17"/>
      <point x="362" y="84" type="curve"/>
      <point x="372" y="84" type="line"/>
      <point x="372" y="0" type="line"/>
      <point x="372" y="-103"/>
      <point x="322" y="-145"/>
      <point x="239" y="-145" type="curve" smooth="yes"/>
      <point x="185" y="-145"/>
      <point x="146" y="-125"/>
      <point x="116" y="-89" type="curve"/>
      <point x="71" y="-141" type="line"/>
      <point x="107" y="-183"/>
      <point x="163" y="-212"/>
      <point x="239" y="-212" type="curve" smooth="yes" name="hr02"/>
      <point x="371" y="-212"/>
      <point x="448" y="-141"/>
      <point x="448" y="0" type="curve"/>
    </contour>
    <contour>
      <point x="255" y="56" type="curve" smooth="yes"/>
      <point x="171" y="56"/>
      <point x="126" y="112"/>
      <point x="126" y="206" type="curve" smooth="yes"/>
      <point x="126" y="310" type="line" smooth="yes"/>
      <point x="126" y="404"/>
      <point x="171" y="460"/>
      <point x="255" y="460" type="curve" smooth="yes" name="hr03"/>
      <point x="319" y="460"/>
      <point x="372" y="420"/>
      <point x="372" y="362" type="curve" smooth="yes"/>
      <point x="372" y="154" type="line" smooth="yes"/>
      <point x="372" y="96"/>
      <point x="319" y="56"/>
    </contour>
    <contour>
      <point x="251" y="540" type="move" name="top"/>
    </contour>
  </outline>
</glyph>
<glyph name="grave.case" format="1">
  <advance width="540"/>
  <outline>
    <contour>
      <point x="263" y="755" type="line" name="hr00"/>
      <point x="312" y="780" type="line"/>
      <point x="235" y="949" type="line"/>
      <point x="166" y="913" type="line"/>
    </contour>
    <contour>
      <point x="270" y="698" type="move" name="_top"/>
    </contour>
  </outline>
</glyph>
